<?xml version="1.0" encoding="utf-8"?>
<!-- Generator: Adobe Illustrator 17.0.0, SVG Export Plug-In . SVG Version: 6.00 Build 0)  -->
<!DOCTYPE svg PUBLIC "-//W3C//DTD SVG 1.0//EN" "http://www.w3.org/TR/2001/REC-SVG-20010904/DTD/svg10.dtd">
<svg version="1.0" id="l2_1_" xmlns="http://www.w3.org/2000/svg" xmlns:xlink="http://www.w3.org/1999/xlink" x="0px" y="0px"
	 width="1486.8px" height="1189.4px" viewBox="0 0 1486.8 1189.4" style="enable-background:new 0 0 1486.8 1189.4;"
	 xml:space="preserve">
<style type="text/css">
	.st0{fill:url(#SVGID_1_);}
	.st1{fill:url(#SVGID_2_);}
	.st2{fill:url(#SVGID_3_);}
	.st3{fill:url(#SVGID_4_);}
	.st4{fill:#DADBDA;}
	.st5{fill:#EEEEEF;}
	.st6{fill:url(#SVGID_5_);}
	.st7{fill:url(#SVGID_6_);}
	.st8{fill:url(#SVGID_7_);}
	.st9{fill:url(#SVGID_8_);}
	.st10{fill:url(#SVGID_9_);}
	.st11{fill:url(#SVGID_10_);}
	.st12{fill:url(#SVGID_11_);}
	.st13{fill:url(#SVGID_12_);}
	.st14{fill:url(#SVGID_13_);}
	.st15{fill:url(#SVGID_14_);}
	.st16{fill:url(#SVGID_15_);}
	.st17{fill:url(#SVGID_16_);}
	.st18{fill:url(#SVGID_17_);}
	.st19{fill:#F7F8F9;}
	.st20{fill:url(#SVGID_18_);}
	.st21{fill:url(#SVGID_19_);}
	.st22{fill:url(#SVGID_20_);}
	.st23{fill:url(#SVGID_21_);}
	.st24{fill:url(#SVGID_22_);}
	.st25{fill:url(#SVGID_23_);}
	.st26{fill:url(#SVGID_24_);}
	.st27{fill:url(#SVGID_25_);}
	.st28{fill:url(#SVGID_26_);}
	.st29{fill:url(#SVGID_27_);}
	.st30{fill:url(#SVGID_28_);}
	.st31{fill:url(#SVGID_29_);}
	.st32{fill:url(#SVGID_30_);}
	.st33{fill:url(#SVGID_31_);}
	.st34{fill:url(#SVGID_32_);}
	.st35{fill:url(#SVGID_33_);}
	.st36{fill:url(#SVGID_34_);}
	.st37{fill:url(#SVGID_35_);}
	.st38{fill:url(#SVGID_36_);}
	.st39{fill:url(#SVGID_37_);}
	.st40{fill:url(#SVGID_38_);}
	.st41{fill:url(#SVGID_39_);}
	.st42{fill:url(#SVGID_40_);}
	.st43{fill:url(#SVGID_41_);}
	.st44{fill:url(#SVGID_42_);}
	.st45{fill:url(#SVGID_43_);}
	.st46{fill:#FFFFFF;}
	.st47{fill:url(#SVGID_44_);}
	.st48{fill:url(#SVGID_45_);}
	.st49{fill:url(#SVGID_46_);}
	.st50{fill:url(#SVGID_47_);}
	.st51{fill:url(#SVGID_48_);}
	.st52{fill:url(#SVGID_49_);}
	.st53{fill:url(#SVGID_50_);}
	.st54{fill:url(#SVGID_51_);}
</style>
<g>
	
		<linearGradient id="SVGID_1_" gradientUnits="userSpaceOnUse" x1="2138.99" y1="326.0226" x2="2149.9219" y2="351.3031" gradientTransform="matrix(0.7071 -0.7071 0.7071 0.7071 -910.2749 1452.6466)">
		<stop  offset="0" style="stop-color:#D9D9DA"/>
		<stop  offset="0.803" style="stop-color:#D3D4D3"/>
		<stop  offset="1" style="stop-color:#D1D2D1"/>
	</linearGradient>
	<polygon class="st0" points="857.7,197.5 841.6,154.6 839.6,157.1 849.5,196.9 	"/>
	
		<linearGradient id="SVGID_2_" gradientUnits="userSpaceOnUse" x1="2134.0029" y1="291.4324" x2="2153.4656" y2="291.4324" gradientTransform="matrix(0.7071 -0.7071 0.7071 0.7071 -910.2749 1452.6466)">
		<stop  offset="0" style="stop-color:#C3C3C2"/>
		<stop  offset="1" style="stop-color:#D1D2D1"/>
	</linearGradient>
	<polygon class="st1" points="839.6,157.1 787.2,125.1 791.9,136.9 	"/>
	
		<linearGradient id="SVGID_3_" gradientUnits="userSpaceOnUse" x1="2106.8489" y1="320.3886" x2="2153.4656" y2="320.3886" gradientTransform="matrix(0.7071 -0.7071 0.7071 0.7071 -910.2749 1452.6466)">
		<stop  offset="0" style="stop-color:#D1D2D1"/>
		<stop  offset="1" style="stop-color:#DEDFDE"/>
	</linearGradient>
	<polygon class="st2" points="839.6,157.1 806.5,185.2 807.9,191.3 	"/>
	
		<linearGradient id="SVGID_4_" gradientUnits="userSpaceOnUse" x1="2100.7559" y1="305.8718" x2="2153.4763" y2="305.8718" gradientTransform="matrix(0.7071 -0.7071 0.7071 0.7071 -910.2749 1452.6466)">
		<stop  offset="0" style="stop-color:#C3C3C2"/>
		<stop  offset="1" style="stop-color:#D1D2D1"/>
	</linearGradient>
	<polygon class="st3" points="839.6,157.1 780.6,172.6 791.4,176.8 	"/>
	<polygon class="st4" points="820,199.9 816.4,197.2 846.4,184.4 	"/>
	<polygon class="st5" points="816.4,197.2 815.6,193.6 843.4,172.5 	"/>
	
		<linearGradient id="SVGID_5_" gradientUnits="userSpaceOnUse" x1="2106.8489" y1="328.967" x2="2145.2766" y2="328.967" gradientTransform="matrix(0.7071 -0.7071 0.7071 0.7071 -910.2749 1452.6466)">
		<stop  offset="0" style="stop-color:#F4F4F5"/>
		<stop  offset="1" style="stop-color:#D9D9DA"/>
	</linearGradient>
	<polygon class="st6" points="815.6,193.6 807.9,191.3 843.4,172.5 	"/>
	
		<linearGradient id="SVGID_6_" gradientUnits="userSpaceOnUse" x1="2123.6448" y1="295.5575" x2="2153.4656" y2="295.5575" gradientTransform="matrix(0.7071 -0.7071 0.7071 0.7071 -910.2749 1452.6466)">
		<stop  offset="0" style="stop-color:#D1D2D1"/>
		<stop  offset="1" style="stop-color:#DEDFDE"/>
	</linearGradient>
	<polygon class="st7" points="839.6,157.1 791.9,136.9 782.2,141.8 	"/>
	
		<linearGradient id="SVGID_7_" gradientUnits="userSpaceOnUse" x1="2121.0654" y1="295.5575" x2="2153.4656" y2="295.5575" gradientTransform="matrix(0.7071 -0.7071 0.7071 0.7071 -910.2749 1452.6466)">
		<stop  offset="0" style="stop-color:#C3C3C2"/>
		<stop  offset="1" style="stop-color:#D1D2D1"/>
	</linearGradient>
	<polygon class="st8" points="839.6,157.1 782.2,141.8 787.4,150.7 	"/>
	
		<linearGradient id="SVGID_8_" gradientUnits="userSpaceOnUse" x1="2110.3384" y1="300.1972" x2="2153.4656" y2="300.1972" gradientTransform="matrix(0.7071 -0.7071 0.7071 0.7071 -910.2749 1452.6466)">
		<stop  offset="0" style="stop-color:#D1D2D1"/>
		<stop  offset="1" style="stop-color:#DEDFDE"/>
	</linearGradient>
	<polygon class="st9" points="839.6,157.1 787.4,150.7 779.3,157.8 	"/>
	
		<linearGradient id="SVGID_9_" gradientUnits="userSpaceOnUse" x1="2110.3384" y1="300.1972" x2="2153.4656" y2="300.1972" gradientTransform="matrix(0.7071 -0.7071 0.7071 0.7071 -910.2749 1452.6466)">
		<stop  offset="0" style="stop-color:#C3C3C2"/>
		<stop  offset="1" style="stop-color:#D1D2D1"/>
	</linearGradient>
	<polygon class="st10" points="839.6,157.1 779.3,157.8 787.3,163.9 	"/>
	
		<linearGradient id="SVGID_10_" gradientUnits="userSpaceOnUse" x1="2100.7559" y1="305.1562" x2="2153.4656" y2="305.1562" gradientTransform="matrix(0.7071 -0.7071 0.7071 0.7071 -910.2749 1452.6466)">
		<stop  offset="0" style="stop-color:#D1D2D1"/>
		<stop  offset="1" style="stop-color:#DEDFDE"/>
	</linearGradient>
	<polygon class="st11" points="839.6,157.1 787.3,163.9 780.6,172.6 	"/>
	
		<linearGradient id="SVGID_11_" gradientUnits="userSpaceOnUse" x1="2101.062" y1="311.1726" x2="2153.4656" y2="311.1726" gradientTransform="matrix(0.7071 -0.7071 0.7071 0.7071 -910.2749 1452.6466)">
		<stop  offset="0" style="stop-color:#D1D2D1"/>
		<stop  offset="1" style="stop-color:#DEDFDE"/>
	</linearGradient>
	<polygon class="st12" points="839.6,157.1 791.4,176.8 793.3,184.9 	"/>
	
		<linearGradient id="SVGID_12_" gradientUnits="userSpaceOnUse" x1="2101.062" y1="314.69" x2="2153.4656" y2="314.69" gradientTransform="matrix(0.7071 -0.7071 0.7071 0.7071 -910.2749 1452.6466)">
		<stop  offset="0" style="stop-color:#C3C3C2"/>
		<stop  offset="1" style="stop-color:#D1D2D1"/>
	</linearGradient>
	<polygon class="st13" points="839.6,157.1 793.3,184.9 806.5,185.2 	"/>
	
		<linearGradient id="SVGID_13_" gradientUnits="userSpaceOnUse" x1="2139.0422" y1="291.4324" x2="2156.6089" y2="291.4324" gradientTransform="matrix(0.7071 -0.7071 0.7071 0.7071 -910.2749 1452.6466)">
		<stop  offset="0" style="stop-color:#F4F4F5"/>
		<stop  offset="1" style="stop-color:#E2E3E3"/>
	</linearGradient>
	<polygon class="st14" points="841.6,154.6 787.2,125.1 839.6,157.1 	"/>
	<polygon class="st5" points="846.4,184.4 821.1,204.3 820,199.9 	"/>
	
		<linearGradient id="SVGID_14_" gradientUnits="userSpaceOnUse" x1="2106.8489" y1="328.055" x2="2153.4656" y2="328.055" gradientTransform="matrix(0.7071 -0.7071 0.7071 0.7071 -910.2749 1452.6466)">
		<stop  offset="0" style="stop-color:#F4F4F5"/>
		<stop  offset="1" style="stop-color:#E2E3E3"/>
	</linearGradient>
	<polygon class="st15" points="843.4,172.5 839.6,157.1 807.9,191.3 	"/>
	
		<linearGradient id="SVGID_15_" gradientUnits="userSpaceOnUse" x1="2153.0325" y1="357.6099" x2="2144.6772" y2="335.0705" gradientTransform="matrix(0.7071 -0.7071 0.7071 0.7071 -910.2749 1452.6466)">
		<stop  offset="0" style="stop-color:#A4A4A4"/>
		<stop  offset="1" style="stop-color:#C7C7C7"/>
	</linearGradient>
	<polygon class="st16" points="841.6,154.6 857.7,197.5 858.2,193.7 	"/>
	
		<linearGradient id="SVGID_16_" gradientUnits="userSpaceOnUse" x1="2106.958" y1="348.9904" x2="2138.9666" y2="348.9904" gradientTransform="matrix(0.7071 -0.7071 0.7071 0.7071 -910.2749 1452.6466)">
		<stop  offset="0" style="stop-color:#F4F4F5"/>
		<stop  offset="1" style="stop-color:#E2E3E3"/>
	</linearGradient>
	<polygon class="st17" points="846.4,184.4 849.5,196.9 821.1,204.3 	"/>
	
		<linearGradient id="SVGID_17_" gradientUnits="userSpaceOnUse" x1="2108.6799" y1="339.2961" x2="2145.2766" y2="339.2961" gradientTransform="matrix(0.7071 -0.7071 0.7071 0.7071 -910.2749 1452.6466)">
		<stop  offset="0" style="stop-color:#F4F4F5"/>
		<stop  offset="1" style="stop-color:#E2E3E3"/>
	</linearGradient>
	<polygon class="st18" points="846.4,184.4 816.4,197.2 843.4,172.5 	"/>
	<polygon class="st19" points="948.9,125.7 907.2,150.2 904.2,161.9 	"/>
	
		<linearGradient id="SVGID_18_" gradientUnits="userSpaceOnUse" x1="2196.9365" y1="356.6455" x2="2201.7329" y2="369.366" gradientTransform="matrix(0.7071 -0.7071 0.7071 0.7071 -910.2749 1452.6466)">
		<stop  offset="0" style="stop-color:#E8E8E9"/>
		<stop  offset="1" style="stop-color:#D1D2D1"/>
	</linearGradient>
	<polygon class="st20" points="907.2,150.2 894.1,154.5 904.2,161.9 	"/>
	
		<linearGradient id="SVGID_19_" gradientUnits="userSpaceOnUse" x1="2195.0896" y1="362.8413" x2="2155.1614" y2="375.1049" gradientTransform="matrix(0.7071 -0.7071 0.7071 0.7071 -910.2749 1452.6466)">
		<stop  offset="0" style="stop-color:#F0F0F0"/>
		<stop  offset="1" style="stop-color:#DCDCDD"/>
	</linearGradient>
	<polygon class="st21" points="894.1,154.5 876.4,183.1 874.3,192.4 904.2,161.9 	"/>
	
		<linearGradient id="SVGID_20_" gradientUnits="userSpaceOnUse" x1="2195.9194" y1="373.3038" x2="2252.5549" y2="373.3038" gradientTransform="matrix(0.7071 -0.7071 0.7071 0.7071 -910.2749 1452.6466)">
		<stop  offset="0" style="stop-color:#9A9A99"/>
		<stop  offset="1" style="stop-color:#C4C5C4"/>
	</linearGradient>
	<polygon class="st22" points="948.9,125.7 909.4,162.4 904.2,161.9 	"/>
	
		<linearGradient id="SVGID_21_" gradientUnits="userSpaceOnUse" x1="2175.8452" y1="370.1962" x2="2176.5237" y2="377.3677" gradientTransform="matrix(0.7071 -0.7071 0.7071 0.7071 -910.2749 1452.6466)">
		<stop  offset="0" style="stop-color:#9C9D9C"/>
		<stop  offset="1" style="stop-color:#B8B8B8"/>
	</linearGradient>
	<polygon class="st23" points="909.4,162.4 890.3,186.8 874.3,192.4 904.2,161.9 	"/>
	
		<linearGradient id="SVGID_22_" gradientUnits="userSpaceOnUse" x1="2131.3909" y1="354.8546" x2="2146.5242" y2="371.7687" gradientTransform="matrix(0.7071 -0.7071 0.7071 0.7071 -910.2749 1452.6466)">
		<stop  offset="0" style="stop-color:#F4F4F5"/>
		<stop  offset="1" style="stop-color:#DADBDA"/>
	</linearGradient>
	<polygon class="st24" points="847.5,195 850,200 870.4,196.3 858.5,193.6 	"/>
	
		<linearGradient id="SVGID_23_" gradientUnits="userSpaceOnUse" x1="2133.3025" y1="352.9416" x2="2140.5225" y2="361.0111" gradientTransform="matrix(0.7071 -0.7071 0.7071 0.7071 -910.2749 1452.6466)">
		<stop  offset="5.494510e-03" style="stop-color:#F4F4F5"/>
		<stop  offset="1" style="stop-color:#FAFAFB"/>
	</linearGradient>
	<polygon class="st25" points="847.5,195 851.4,192.7 858.5,193.6 	"/>
	
		<linearGradient id="SVGID_24_" gradientUnits="userSpaceOnUse" x1="2073.4937" y1="371.0427" x2="2129.4504" y2="356.0892" gradientTransform="matrix(0.7071 -0.7071 0.7071 0.7071 -910.2749 1452.6466)">
		<stop  offset="0" style="stop-color:#EBECEC"/>
		<stop  offset="0.5032" style="stop-color:#E7E8E9"/>
		<stop  offset="0.9625" style="stop-color:#DEDEDE"/>
		<stop  offset="1" style="stop-color:#DCDCDD"/>
	</linearGradient>
	<polygon class="st26" points="820.5,250.4 840.3,204.7 850,200 	"/>
	
		<linearGradient id="SVGID_25_" gradientUnits="userSpaceOnUse" x1="2105.02" y1="359.0742" x2="2114.1455" y2="380.1774" gradientTransform="matrix(0.7071 -0.7071 0.7071 0.7071 -910.2749 1452.6466)">
		<stop  offset="0" style="stop-color:#F4F4F5"/>
		<stop  offset="1" style="stop-color:#D9D9DA"/>
	</linearGradient>
	<polygon class="st27" points="820.5,250.4 834.7,243.9 870.4,196.3 850,200 	"/>
	
		<linearGradient id="SVGID_26_" gradientUnits="userSpaceOnUse" x1="2086.918" y1="392.4433" x2="2087.7449" y2="387.3325" gradientTransform="matrix(0.7071 -0.7071 0.7071 0.7071 -910.2749 1452.6466)">
		<stop  offset="0" style="stop-color:#ACAEAC"/>
		<stop  offset="1" style="stop-color:#919292"/>
	</linearGradient>
	<polygon class="st28" points="854.8,238.8 839.7,256.6 825.5,262.6 	"/>
	
		<linearGradient id="SVGID_27_" gradientUnits="userSpaceOnUse" x1="2121.1646" y1="292.1419" x2="2119.5166" y2="356.4093" gradientTransform="matrix(0.7071 -0.7071 0.7071 0.7071 -910.2749 1452.6466)">
		<stop  offset="0" style="stop-color:#CECDCD"/>
		<stop  offset="0.3254" style="stop-color:#C8C8C8"/>
		<stop  offset="0.7769" style="stop-color:#B9B9B9"/>
		<stop  offset="1" style="stop-color:#AEAFAF"/>
	</linearGradient>
	<polygon class="st29" points="796.4,157.3 796.4,157.3 796.2,161.6 840.3,204.7 	"/>
	
		<linearGradient id="SVGID_28_" gradientUnits="userSpaceOnUse" x1="2109.436" y1="257.088" x2="2069.502" y2="266.7149" gradientTransform="matrix(0.7071 -0.7071 0.7071 0.7071 -910.2749 1452.6466)">
		<stop  offset="0" style="stop-color:#E8E8E9"/>
		<stop  offset="1" style="stop-color:#D1D2D1"/>
	</linearGradient>
	<polygon class="st30" points="796.2,161.7 710.3,156.2 725.3,167.8 	"/>
	<polygon class="st4" points="817.7,234.5 840.3,204.7 814.1,232.5 	"/>
	
		<linearGradient id="SVGID_29_" gradientUnits="userSpaceOnUse" x1="2069.2732" y1="313.4217" x2="2119.5383" y2="313.4217" gradientTransform="matrix(0.7071 -0.7071 0.7071 0.7071 -910.2749 1452.6466)">
		<stop  offset="0" style="stop-color:#F4F4F5"/>
		<stop  offset="1" style="stop-color:#E2E3E3"/>
	</linearGradient>
	<polygon class="st31" points="796.2,161.7 781.7,218.3 788.4,225 	"/>
	
		<linearGradient id="SVGID_30_" gradientUnits="userSpaceOnUse" x1="2115.4739" y1="286.5053" x2="2041.9845" y2="304.2213" gradientTransform="matrix(0.7071 -0.7071 0.7071 0.7071 -910.2749 1452.6466)">
		<stop  offset="0" style="stop-color:#E8E8E9"/>
		<stop  offset="1" style="stop-color:#D1D2D1"/>
	</linearGradient>
	<polygon class="st32" points="796.2,161.7 741.9,219.6 757.6,217.7 	"/>
	
		<linearGradient id="SVGID_31_" gradientUnits="userSpaceOnUse" x1="2119.2271" y1="337.7474" x2="2078.9385" y2="347.4597" gradientTransform="matrix(0.7071 -0.7071 0.7071 0.7071 -910.2749 1452.6466)">
		<stop  offset="0" style="stop-color:#E8E8E9"/>
		<stop  offset="1" style="stop-color:#D1D2D1"/>
	</linearGradient>
	<polygon class="st33" points="809.3,227.7 802.9,226.7 826.4,191.1 	"/>
	
		<linearGradient id="SVGID_32_" gradientUnits="userSpaceOnUse" x1="2078.2908" y1="331.1108" x2="2119.842" y2="331.1108" gradientTransform="matrix(0.7071 -0.7071 0.7071 0.7071 -910.2749 1452.6466)">
		<stop  offset="0" style="stop-color:#F4F4F5"/>
		<stop  offset="1" style="stop-color:#E2E3E3"/>
	</linearGradient>
	<polygon class="st34" points="802.9,226.7 798.9,222.7 813.3,178.3 	"/>
	
		<linearGradient id="SVGID_33_" gradientUnits="userSpaceOnUse" x1="2119.6465" y1="323.3255" x2="2069.7722" y2="335.3487" gradientTransform="matrix(0.7071 -0.7071 0.7071 0.7071 -910.2749 1452.6466)">
		<stop  offset="0" style="stop-color:#E8E8E9"/>
		<stop  offset="1" style="stop-color:#D1D2D1"/>
	</linearGradient>
	<polygon class="st35" points="798.9,222.7 788.4,225 813.3,178.3 	"/>
	<polygon class="st19" points="796.2,161.7 725.3,167.8 718.3,180.3 	"/>
	
		<linearGradient id="SVGID_34_" gradientUnits="userSpaceOnUse" x1="2111.3113" y1="266.6252" x2="2057.8748" y2="279.507" gradientTransform="matrix(0.7071 -0.7071 0.7071 0.7071 -910.2749 1452.6466)">
		<stop  offset="0" style="stop-color:#E8E8E9"/>
		<stop  offset="1" style="stop-color:#D1D2D1"/>
	</linearGradient>
	<polygon class="st36" points="796.2,161.7 718.3,180.3 731.5,187.9 	"/>
	<polygon class="st19" points="796.2,161.7 731.5,187.9 728.3,202 	"/>
	
		<linearGradient id="SVGID_35_" gradientUnits="userSpaceOnUse" x1="2113.2561" y1="276.3362" x2="2047.2091" y2="292.2581" gradientTransform="matrix(0.7071 -0.7071 0.7071 0.7071 -910.2749 1452.6466)">
		<stop  offset="0" style="stop-color:#E8E8E9"/>
		<stop  offset="1" style="stop-color:#D1D2D1"/>
	</linearGradient>
	<polygon class="st37" points="796.2,161.7 728.3,202 742.3,204.3 	"/>
	<polygon class="st19" points="796.2,161.7 742.3,204.3 741.9,219.6 	"/>
	<polygon class="st19" points="796.2,161.7 757.6,217.7 766.4,226.5 	"/>
	
		<linearGradient id="SVGID_36_" gradientUnits="userSpaceOnUse" x1="2119.5637" y1="302.6229" x2="2052.5808" y2="318.7704" gradientTransform="matrix(0.7071 -0.7071 0.7071 0.7071 -910.2749 1452.6466)">
		<stop  offset="0" style="stop-color:#E8E8E9"/>
		<stop  offset="1" style="stop-color:#D1D2D1"/>
	</linearGradient>
	<polygon class="st38" points="796.2,161.7 766.4,226.5 781.7,218.3 	"/>
	
		<linearGradient id="SVGID_37_" gradientUnits="userSpaceOnUse" x1="2082.594" y1="362.8501" x2="2120.3093" y2="362.8501" gradientTransform="matrix(0.7071 -0.7071 0.7071 0.7071 -910.2749 1452.6466)">
		<stop  offset="0" style="stop-color:#F4F4F5"/>
		<stop  offset="1" style="stop-color:#F7F8F9"/>
	</linearGradient>
	<polygon class="st39" points="817.7,234.5 824.2,241.9 840.3,204.7 	"/>
	
		<linearGradient id="SVGID_38_" gradientUnits="userSpaceOnUse" x1="2062.6387" y1="261.511" x2="2122.781" y2="261.511" gradientTransform="matrix(0.7071 -0.7071 0.7071 0.7071 -910.2749 1452.6466)">
		<stop  offset="0" style="stop-color:#CECDCD"/>
		<stop  offset="0.7045" style="stop-color:#C8C8C8"/>
		<stop  offset="1" style="stop-color:#C4C5C4"/>
	</linearGradient>
	<polygon class="st40" points="796.4,157.3 710.3,156.2 796.2,161.7 	"/>
	
		<linearGradient id="SVGID_39_" gradientUnits="userSpaceOnUse" x1="2082.1001" y1="346.2705" x2="2120.0698" y2="346.2705" gradientTransform="matrix(0.7071 -0.7071 0.7071 0.7071 -910.2749 1452.6466)">
		<stop  offset="0" style="stop-color:#F4F4F5"/>
		<stop  offset="1" style="stop-color:#E2E3E3"/>
	</linearGradient>
	<polygon class="st41" points="826.4,191.1 814.1,232.5 809.3,227.7 	"/>
	<polygon class="st19" points="813.3,178.3 796.2,161.7 788.4,225 	"/>
	
		<linearGradient id="SVGID_40_" gradientUnits="userSpaceOnUse" x1="2151.0588" y1="363.0276" x2="2150.3855" y2="370.4335" gradientTransform="matrix(0.7071 -0.7071 0.7071 0.7071 -910.2749 1452.6466)">
		<stop  offset="0" style="stop-color:#DEDFDE"/>
		<stop  offset="1" style="stop-color:#C3C3C2"/>
	</linearGradient>
	<polygon class="st42" points="876.4,183.1 858.5,193.6 870.4,196.3 874.3,192.4 	"/>
	
		<linearGradient id="SVGID_41_" gradientUnits="userSpaceOnUse" x1="2158.1831" y1="371.9788" x2="2157.5493" y2="377.3019" gradientTransform="matrix(0.7071 -0.7071 0.7071 0.7071 -910.2749 1452.6466)">
		<stop  offset="0" style="stop-color:#90918F"/>
		<stop  offset="1" style="stop-color:#989898"/>
	</linearGradient>
	<polygon class="st43" points="874.3,200.3 890.3,186.8 874.3,192.4 870.4,196.3 	"/>
	
		<linearGradient id="SVGID_42_" gradientUnits="userSpaceOnUse" x1="2113.6101" y1="360.837" x2="2101.0771" y2="379.0949" gradientTransform="matrix(0.7071 -0.7071 0.7071 0.7071 -910.2749 1452.6466)">
		<stop  offset="0" style="stop-color:#9A9A99"/>
		<stop  offset="1" style="stop-color:#B8B8B8"/>
	</linearGradient>
	<polygon class="st44" points="813.1,272.6 868.8,227.5 874.3,200.3 	"/>
	
		<linearGradient id="SVGID_43_" gradientUnits="userSpaceOnUse" x1="2115.9204" y1="357.4714" x2="2102.4312" y2="377.1223" gradientTransform="matrix(0.7071 -0.7071 0.7071 0.7071 -910.2749 1452.6466)">
		<stop  offset="0" style="stop-color:#878887"/>
		<stop  offset="0.989" style="stop-color:#A4A4A4"/>
	</linearGradient>
	<polygon class="st45" points="813.1,272.6 870.4,196.3 874.3,200.3 	"/>
	<polygon class="st46" points="796.4,157.3 850,200 847.5,195 	"/>
	
		<linearGradient id="SVGID_44_" gradientUnits="userSpaceOnUse" x1="2053.1013" y1="380.5848" x2="2088.5627" y2="380.5848" gradientTransform="matrix(0.7071 -0.7071 0.7071 0.7071 -910.2749 1452.6466)">
		<stop  offset="0" style="stop-color:#F4F4F5"/>
		<stop  offset="1" style="stop-color:#F7F8F9"/>
	</linearGradient>
	<polygon class="st47" points="834.7,243.9 813.1,272.6 828.9,246.6 	"/>
	
		<linearGradient id="SVGID_45_" gradientUnits="userSpaceOnUse" x1="2032.241" y1="374.5384" x2="2078.2913" y2="374.5384" gradientTransform="matrix(0.7071 -0.7071 0.7071 0.7071 -910.2749 1452.6466)">
		<stop  offset="0" style="stop-color:#F4F4F5"/>
		<stop  offset="1" style="stop-color:#F7F8F9"/>
	</linearGradient>
	<polygon class="st48" points="824.7,248.5 791,279.9 820.5,250.4 	"/>
	
		<linearGradient id="SVGID_46_" gradientUnits="userSpaceOnUse" x1="2043.6781" y1="377.2569" x2="2082.657" y2="377.2569" gradientTransform="matrix(0.7071 -0.7071 0.7071 0.7071 -910.2749 1452.6466)">
		<stop  offset="0" style="stop-color:#F4F4F5"/>
		<stop  offset="1" style="stop-color:#F7F8F9"/>
	</linearGradient>
	<polygon class="st49" points="828.9,246.6 802.9,275.7 824.7,248.5 	"/>
	<polygon class="st19" points="826.4,191.1 840.3,204.7 814.1,232.5 	"/>
	<polygon class="st19" points="826.4,191.1 802.9,226.7 813.3,178.3 	"/>
	
		<linearGradient id="SVGID_47_" gradientUnits="userSpaceOnUse" x1="2108.8816" y1="293.8467" x2="2131.5042" y2="346.1613" gradientTransform="matrix(0.7071 -0.7071 0.7071 0.7071 -910.2749 1452.6466)">
		<stop  offset="0" style="stop-color:#E5E7E8"/>
		<stop  offset="0.4624" style="stop-color:#E0E1E2"/>
		<stop  offset="1" style="stop-color:#D3D4D4"/>
	</linearGradient>
	<polygon class="st50" points="850,200 840.3,204.7 796.4,157.3 	"/>
	
		<linearGradient id="SVGID_48_" gradientUnits="userSpaceOnUse" x1="2080.8147" y1="374.0555" x2="2044.5135" y2="382.8066" gradientTransform="matrix(0.7071 -0.7071 0.7071 0.7071 -910.2749 1452.6466)">
		<stop  offset="0" style="stop-color:#E8E8E9"/>
		<stop  offset="1" style="stop-color:#AEAFAF"/>
	</linearGradient>
	<polygon class="st51" points="813.1,272.6 810.5,277.5 802.9,275.7 828.9,246.6 	"/>
	
		<linearGradient id="SVGID_49_" gradientUnits="userSpaceOnUse" x1="2075.5979" y1="369.6371" x2="2033.644" y2="379.7509" gradientTransform="matrix(0.7071 -0.7071 0.7071 0.7071 -910.2749 1452.6466)">
		<stop  offset="0" style="stop-color:#E8E8E9"/>
		<stop  offset="1" style="stop-color:#BCBCBC"/>
	</linearGradient>
	<polygon class="st52" points="824.7,248.5 791,279.9 797.4,283.2 802.9,275.7 	"/>
	
		<linearGradient id="SVGID_50_" gradientUnits="userSpaceOnUse" x1="2140.7556" y1="351.5427" x2="2156.8872" y2="369.5723" gradientTransform="matrix(0.7071 -0.7071 0.7071 0.7071 -910.2749 1452.6466)">
		<stop  offset="5.494510e-03" style="stop-color:#F4F4F5"/>
		<stop  offset="1" style="stop-color:#FAFAFB"/>
	</linearGradient>
	<polygon class="st53" points="851.4,192.7 876.4,183.1 858.5,193.6 	"/>
	
		<linearGradient id="SVGID_51_" gradientUnits="userSpaceOnUse" x1="2150.699" y1="376.9127" x2="2125.3875" y2="392.1768" gradientTransform="matrix(0.7071 -0.7071 0.7071 0.7071 -910.2749 1452.6466)">
		<stop  offset="5.494510e-03" style="stop-color:#787879"/>
		<stop  offset="0.9615" style="stop-color:#90918F"/>
		<stop  offset="0.989" style="stop-color:#8A8A89"/>
	</linearGradient>
	<polygon class="st54" points="868.8,227.5 874.3,200.3 880,195.5 	"/>
	<polygon class="st46" points="907.2,150.2 906.8,151.6 894.1,154.5 	"/>
	<polygon class="st46" points="906.8,151.6 948.9,125.7 907.2,150.2 	"/>
	<polygon class="st46" points="796.4,157.3 796.4,158.6 710.3,156.2 	"/>
</g>
<g>
</g>
<g>
</g>
<g>
</g>
<g>
</g>
<g>
</g>
<g>
</g>
</svg>
