<?xml version="1.0" encoding="utf-8"?>
<!-- Generator: Adobe Illustrator 17.0.0, SVG Export Plug-In . SVG Version: 6.00 Build 0)  -->
<!DOCTYPE svg PUBLIC "-//W3C//DTD SVG 1.0//EN" "http://www.w3.org/TR/2001/REC-SVG-20010904/DTD/svg10.dtd">
<svg version="1.0" id="l3" xmlns="http://www.w3.org/2000/svg" xmlns:xlink="http://www.w3.org/1999/xlink" x="0px" y="0px"
	 width="1486.8px" height="1189.4px" viewBox="0 0 1486.8 1189.4" style="enable-background:new 0 0 1486.8 1189.4;"
	 xml:space="preserve">
<style type="text/css">
	.st0{fill:url(#SVGID_1_);}
	.st1{fill:url(#SVGID_2_);}
	.st2{fill:url(#SVGID_3_);}
	.st3{fill:url(#SVGID_4_);}
	.st4{fill:#DADBDA;}
	.st5{fill:#EEEEEF;}
	.st6{fill:url(#SVGID_5_);}
	.st7{fill:url(#SVGID_6_);}
	.st8{fill:url(#SVGID_7_);}
	.st9{fill:url(#SVGID_8_);}
	.st10{fill:url(#SVGID_9_);}
	.st11{fill:url(#SVGID_10_);}
	.st12{fill:url(#SVGID_11_);}
	.st13{fill:url(#SVGID_12_);}
	.st14{fill:url(#SVGID_13_);}
	.st15{fill:url(#SVGID_14_);}
	.st16{fill:url(#SVGID_15_);}
	.st17{fill:url(#SVGID_16_);}
	.st18{fill:url(#SVGID_17_);}
	.st19{fill:#F7F8F9;}
	.st20{fill:url(#SVGID_18_);}
	.st21{fill:url(#SVGID_19_);}
	.st22{fill:url(#SVGID_20_);}
	.st23{fill:url(#SVGID_21_);}
	.st24{fill:url(#SVGID_22_);}
	.st25{fill:url(#SVGID_23_);}
	.st26{fill:url(#SVGID_24_);}
	.st27{fill:url(#SVGID_25_);}
	.st28{fill:url(#SVGID_26_);}
	.st29{fill:url(#SVGID_27_);}
	.st30{fill:url(#SVGID_28_);}
	.st31{fill:url(#SVGID_29_);}
	.st32{fill:url(#SVGID_30_);}
	.st33{fill:url(#SVGID_31_);}
	.st34{fill:url(#SVGID_32_);}
	.st35{fill:url(#SVGID_33_);}
	.st36{fill:url(#SVGID_34_);}
	.st37{fill:url(#SVGID_35_);}
	.st38{fill:url(#SVGID_36_);}
	.st39{fill:url(#SVGID_37_);}
	.st40{fill:url(#SVGID_38_);}
	.st41{fill:url(#SVGID_39_);}
	.st42{fill:url(#SVGID_40_);}
	.st43{fill:url(#SVGID_41_);}
	.st44{fill:url(#SVGID_42_);}
	.st45{fill:url(#SVGID_43_);}
	.st46{fill:#FFFFFF;}
	.st47{fill:url(#SVGID_44_);}
	.st48{fill:url(#SVGID_45_);}
	.st49{fill:url(#SVGID_46_);}
	.st50{fill:url(#SVGID_47_);}
	.st51{fill:url(#SVGID_48_);}
	.st52{fill:url(#SVGID_49_);}
	.st53{fill:url(#SVGID_50_);}
	.st54{fill:url(#SVGID_51_);}
</style>
<g>
	
		<linearGradient id="SVGID_1_" gradientUnits="userSpaceOnUse" x1="1670.6669" y1="856.0255" x2="1687.0597" y2="893.934" gradientTransform="matrix(-0.7071 0.7071 -0.7071 -0.7071 2908.2175 -434.0375)">
		<stop  offset="0" style="stop-color:#D9D9DA"/>
		<stop  offset="0.803" style="stop-color:#D3D4D3"/>
		<stop  offset="1" style="stop-color:#D1D2D1"/>
	</linearGradient>
	<polygon class="st0" points="1084.2,101.9 1108.3,166.1 1111.3,162.4 1096.5,102.7 	"/>
	
		<linearGradient id="SVGID_2_" gradientUnits="userSpaceOnUse" x1="1663.189" y1="804.157" x2="1692.3733" y2="804.157" gradientTransform="matrix(-0.7071 0.7071 -0.7071 -0.7071 2908.2175 -434.0375)">
		<stop  offset="0" style="stop-color:#C3C3C2"/>
		<stop  offset="1" style="stop-color:#D1D2D1"/>
	</linearGradient>
	<polygon class="st1" points="1111.3,162.4 1189.8,210.3 1182.9,192.7 	"/>
	
		<linearGradient id="SVGID_3_" gradientUnits="userSpaceOnUse" x1="1622.4711" y1="847.5773" x2="1692.3733" y2="847.5773" gradientTransform="matrix(-0.7071 0.7071 -0.7071 -0.7071 2908.2175 -434.0375)">
		<stop  offset="0" style="stop-color:#D1D2D1"/>
		<stop  offset="1" style="stop-color:#DEDFDE"/>
	</linearGradient>
	<polygon class="st2" points="1111.3,162.4 1161,120.3 1158.8,111 	"/>
	
		<linearGradient id="SVGID_4_" gradientUnits="userSpaceOnUse" x1="1613.3344" y1="825.809" x2="1692.3895" y2="825.809" gradientTransform="matrix(-0.7071 0.7071 -0.7071 -0.7071 2908.2175 -434.0375)">
		<stop  offset="0" style="stop-color:#C3C3C2"/>
		<stop  offset="1" style="stop-color:#D1D2D1"/>
	</linearGradient>
	<polygon class="st3" points="1111.3,162.4 1199.8,139.1 1183.6,132.8 	"/>
	<polygon class="st4" points="1140.6,98.2 1146.1,102.2 1101.1,121.5 	"/>
	<polygon class="st5" points="1146.1,102.2 1147.4,107.7 1105.6,139.3 	"/>
	
		<linearGradient id="SVGID_5_" gradientUnits="userSpaceOnUse" x1="1622.4711" y1="860.4407" x2="1680.0939" y2="860.4407" gradientTransform="matrix(-0.7071 0.7071 -0.7071 -0.7071 2908.2175 -434.0375)">
		<stop  offset="0" style="stop-color:#F4F4F5"/>
		<stop  offset="1" style="stop-color:#D9D9DA"/>
	</linearGradient>
	<polygon class="st6" points="1147.4,107.7 1158.8,111 1105.6,139.3 	"/>
	
		<linearGradient id="SVGID_6_" gradientUnits="userSpaceOnUse" x1="1647.6567" y1="810.3426" x2="1692.3733" y2="810.3426" gradientTransform="matrix(-0.7071 0.7071 -0.7071 -0.7071 2908.2175 -434.0375)">
		<stop  offset="0" style="stop-color:#D1D2D1"/>
		<stop  offset="1" style="stop-color:#DEDFDE"/>
	</linearGradient>
	<polygon class="st7" points="1111.3,162.4 1182.9,192.7 1197.4,185.3 	"/>
	
		<linearGradient id="SVGID_7_" gradientUnits="userSpaceOnUse" x1="1643.7887" y1="810.3426" x2="1692.3733" y2="810.3426" gradientTransform="matrix(-0.7071 0.7071 -0.7071 -0.7071 2908.2175 -434.0375)">
		<stop  offset="0" style="stop-color:#C3C3C2"/>
		<stop  offset="1" style="stop-color:#D1D2D1"/>
	</linearGradient>
	<polygon class="st8" points="1111.3,162.4 1197.4,185.3 1189.6,172 	"/>
	
		<linearGradient id="SVGID_8_" gradientUnits="userSpaceOnUse" x1="1627.7036" y1="817.3" x2="1692.3733" y2="817.3" gradientTransform="matrix(-0.7071 0.7071 -0.7071 -0.7071 2908.2175 -434.0375)">
		<stop  offset="0" style="stop-color:#D1D2D1"/>
		<stop  offset="1" style="stop-color:#DEDFDE"/>
	</linearGradient>
	<polygon class="st9" points="1111.3,162.4 1189.6,172 1201.7,161.3 	"/>
	
		<linearGradient id="SVGID_9_" gradientUnits="userSpaceOnUse" x1="1627.7036" y1="817.3" x2="1692.3733" y2="817.3" gradientTransform="matrix(-0.7071 0.7071 -0.7071 -0.7071 2908.2175 -434.0375)">
		<stop  offset="0" style="stop-color:#C3C3C2"/>
		<stop  offset="1" style="stop-color:#D1D2D1"/>
	</linearGradient>
	<polygon class="st10" points="1111.3,162.4 1201.7,161.3 1189.7,152.3 	"/>
	
		<linearGradient id="SVGID_10_" gradientUnits="userSpaceOnUse" x1="1613.3344" y1="824.736" x2="1692.3733" y2="824.736" gradientTransform="matrix(-0.7071 0.7071 -0.7071 -0.7071 2908.2175 -434.0375)">
		<stop  offset="0" style="stop-color:#D1D2D1"/>
		<stop  offset="1" style="stop-color:#DEDFDE"/>
	</linearGradient>
	<polygon class="st11" points="1111.3,162.4 1189.7,152.3 1199.8,139.1 	"/>
	
		<linearGradient id="SVGID_11_" gradientUnits="userSpaceOnUse" x1="1613.7935" y1="833.7578" x2="1692.3733" y2="833.7578" gradientTransform="matrix(-0.7071 0.7071 -0.7071 -0.7071 2908.2175 -434.0375)">
		<stop  offset="0" style="stop-color:#D1D2D1"/>
		<stop  offset="1" style="stop-color:#DEDFDE"/>
	</linearGradient>
	<polygon class="st12" points="1111.3,162.4 1183.6,132.8 1180.8,120.7 	"/>
	
		<linearGradient id="SVGID_12_" gradientUnits="userSpaceOnUse" x1="1613.7935" y1="839.0321" x2="1692.3733" y2="839.0321" gradientTransform="matrix(-0.7071 0.7071 -0.7071 -0.7071 2908.2175 -434.0375)">
		<stop  offset="0" style="stop-color:#C3C3C2"/>
		<stop  offset="1" style="stop-color:#D1D2D1"/>
	</linearGradient>
	<polygon class="st13" points="1111.3,162.4 1180.8,120.7 1161,120.3 	"/>
	
		<linearGradient id="SVGID_13_" gradientUnits="userSpaceOnUse" x1="1670.7455" y1="804.157" x2="1697.0868" y2="804.157" gradientTransform="matrix(-0.7071 0.7071 -0.7071 -0.7071 2908.2175 -434.0375)">
		<stop  offset="0" style="stop-color:#F4F4F5"/>
		<stop  offset="1" style="stop-color:#E2E3E3"/>
	</linearGradient>
	<polygon class="st14" points="1108.3,166.1 1189.8,210.3 1111.3,162.4 	"/>
	<polygon class="st5" points="1101.1,121.5 1139.1,91.6 1140.6,98.2 	"/>
	
		<linearGradient id="SVGID_14_" gradientUnits="userSpaceOnUse" x1="1622.4711" y1="859.0731" x2="1692.3733" y2="859.0731" gradientTransform="matrix(-0.7071 0.7071 -0.7071 -0.7071 2908.2175 -434.0375)">
		<stop  offset="0" style="stop-color:#F4F4F5"/>
		<stop  offset="1" style="stop-color:#E2E3E3"/>
	</linearGradient>
	<polygon class="st15" points="1105.6,139.3 1111.3,162.4 1158.8,111 	"/>
	
		<linearGradient id="SVGID_15_" gradientUnits="userSpaceOnUse" x1="1691.7239" y1="903.3911" x2="1679.1953" y2="869.593" gradientTransform="matrix(-0.7071 0.7071 -0.7071 -0.7071 2908.2175 -434.0375)">
		<stop  offset="0" style="stop-color:#A4A4A4"/>
		<stop  offset="1" style="stop-color:#C7C7C7"/>
	</linearGradient>
	<polygon class="st16" points="1108.3,166.1 1084.2,101.9 1083.5,107.4 	"/>
	
		<linearGradient id="SVGID_16_" gradientUnits="userSpaceOnUse" x1="1622.6345" y1="890.4661" x2="1670.6317" y2="890.4661" gradientTransform="matrix(-0.7071 0.7071 -0.7071 -0.7071 2908.2175 -434.0375)">
		<stop  offset="0" style="stop-color:#F4F4F5"/>
		<stop  offset="1" style="stop-color:#E2E3E3"/>
	</linearGradient>
	<polygon class="st17" points="1101.1,121.5 1096.5,102.7 1139.1,91.6 	"/>
	
		<linearGradient id="SVGID_17_" gradientUnits="userSpaceOnUse" x1="1625.2167" y1="875.9293" x2="1680.0939" y2="875.9293" gradientTransform="matrix(-0.7071 0.7071 -0.7071 -0.7071 2908.2175 -434.0375)">
		<stop  offset="0" style="stop-color:#F4F4F5"/>
		<stop  offset="1" style="stop-color:#E2E3E3"/>
	</linearGradient>
	<polygon class="st18" points="1101.1,121.5 1146.1,102.2 1105.6,139.3 	"/>
	<polygon class="st19" points="947.5,209.5 1009.9,172.8 1014.5,155.2 	"/>
	
		<linearGradient id="SVGID_18_" gradientUnits="userSpaceOnUse" x1="1757.5587" y1="901.945" x2="1764.7509" y2="921.0196" gradientTransform="matrix(-0.7071 0.7071 -0.7071 -0.7071 2908.2175 -434.0375)">
		<stop  offset="0" style="stop-color:#E8E8E9"/>
		<stop  offset="1" style="stop-color:#D1D2D1"/>
	</linearGradient>
	<polygon class="st20" points="1009.9,172.8 1029.6,166.3 1014.5,155.2 	"/>
	
		<linearGradient id="SVGID_19_" gradientUnits="userSpaceOnUse" x1="1754.7892" y1="911.2357" x2="1694.9164" y2="929.6252" gradientTransform="matrix(-0.7071 0.7071 -0.7071 -0.7071 2908.2175 -434.0375)">
		<stop  offset="0" style="stop-color:#F0F0F0"/>
		<stop  offset="1" style="stop-color:#DCDCDD"/>
	</linearGradient>
	<polygon class="st21" points="1029.6,166.3 1056.2,123.5 1059.2,109.5 1014.5,155.2 	"/>
	
		<linearGradient id="SVGID_20_" gradientUnits="userSpaceOnUse" x1="1756.0334" y1="926.9244" x2="1840.9595" y2="926.9244" gradientTransform="matrix(-0.7071 0.7071 -0.7071 -0.7071 2908.2175 -434.0375)">
		<stop  offset="0" style="stop-color:#9A9A99"/>
		<stop  offset="1" style="stop-color:#C4C5C4"/>
	</linearGradient>
	<polygon class="st22" points="947.5,209.5 1006.7,154.5 1014.5,155.2 	"/>
	
		<linearGradient id="SVGID_21_" gradientUnits="userSpaceOnUse" x1="1725.9321" y1="922.2645" x2="1726.9495" y2="933.0182" gradientTransform="matrix(-0.7071 0.7071 -0.7071 -0.7071 2908.2175 -434.0375)">
		<stop  offset="0" style="stop-color:#9C9D9C"/>
		<stop  offset="1" style="stop-color:#B8B8B8"/>
	</linearGradient>
	<polygon class="st23" points="1006.7,154.5 1035.3,117.8 1059.2,109.5 1014.5,155.2 	"/>
	
		<linearGradient id="SVGID_22_" gradientUnits="userSpaceOnUse" x1="1659.272" y1="899.2596" x2="1681.9648" y2="924.6224" gradientTransform="matrix(-0.7071 0.7071 -0.7071 -0.7071 2908.2175 -434.0375)">
		<stop  offset="0" style="stop-color:#F4F4F5"/>
		<stop  offset="1" style="stop-color:#DADBDA"/>
	</linearGradient>
	<polygon class="st24" points="1099.4,105.5 1095.7,98.1 1065.2,103.6 1082.9,107.6 	"/>
	
		<linearGradient id="SVGID_23_" gradientUnits="userSpaceOnUse" x1="1662.1384" y1="896.3909" x2="1672.9651" y2="908.4913" gradientTransform="matrix(-0.7071 0.7071 -0.7071 -0.7071 2908.2175 -434.0375)">
		<stop  offset="5.494510e-03" style="stop-color:#F4F4F5"/>
		<stop  offset="1" style="stop-color:#FAFAFB"/>
	</linearGradient>
	<polygon class="st25" points="1099.4,105.5 1093.6,109.1 1082.9,107.6 	"/>
	
		<linearGradient id="SVGID_24_" gradientUnits="userSpaceOnUse" x1="1572.4542" y1="923.5338" x2="1656.3623" y2="901.1108" gradientTransform="matrix(-0.7071 0.7071 -0.7071 -0.7071 2908.2175 -434.0375)">
		<stop  offset="0" style="stop-color:#EBECEC"/>
		<stop  offset="0.5032" style="stop-color:#E7E8E9"/>
		<stop  offset="0.9625" style="stop-color:#DEDEDE"/>
		<stop  offset="1" style="stop-color:#DCDCDD"/>
	</linearGradient>
	<polygon class="st26" points="1140,22.5 1110.3,91.1 1095.7,98.1 	"/>
	
		<linearGradient id="SVGID_25_" gradientUnits="userSpaceOnUse" x1="1619.7285" y1="905.5869" x2="1633.4125" y2="937.2313" gradientTransform="matrix(-0.7071 0.7071 -0.7071 -0.7071 2908.2175 -434.0375)">
		<stop  offset="0" style="stop-color:#F4F4F5"/>
		<stop  offset="1" style="stop-color:#D9D9DA"/>
	</linearGradient>
	<polygon class="st27" points="1140,22.5 1118.7,32.2 1065.2,103.6 1095.7,98.1 	"/>
	
		<linearGradient id="SVGID_26_" gradientUnits="userSpaceOnUse" x1="1592.5845" y1="955.6243" x2="1593.8241" y2="947.9606" gradientTransform="matrix(-0.7071 0.7071 -0.7071 -0.7071 2908.2175 -434.0375)">
		<stop  offset="0" style="stop-color:#ACAEAC"/>
		<stop  offset="1" style="stop-color:#919292"/>
	</linearGradient>
	<polygon class="st28" points="1088.5,39.9 1111.1,13.2 1132.5,4.2 	"/>
	
		<linearGradient id="SVGID_27_" gradientUnits="userSpaceOnUse" x1="1643.9375" y1="805.2209" x2="1641.4664" y2="901.5908" gradientTransform="matrix(-0.7071 0.7071 -0.7071 -0.7071 2908.2175 -434.0375)">
		<stop  offset="0" style="stop-color:#CECDCD"/>
		<stop  offset="0.3254" style="stop-color:#C8C8C8"/>
		<stop  offset="0.7769" style="stop-color:#B9B9B9"/>
		<stop  offset="1" style="stop-color:#AEAFAF"/>
	</linearGradient>
	<polygon class="st29" points="1176,162.1 1176,162.1 1176.4,155.6 1110.3,91.1 	"/>
	
		<linearGradient id="SVGID_28_" gradientUnits="userSpaceOnUse" x1="1626.3506" y1="752.6572" x2="1566.4688" y2="767.0928" gradientTransform="matrix(-0.7071 0.7071 -0.7071 -0.7071 2908.2175 -434.0375)">
		<stop  offset="0" style="stop-color:#E8E8E9"/>
		<stop  offset="1" style="stop-color:#D1D2D1"/>
	</linearGradient>
	<polygon class="st30" points="1176.4,155.5 1305.2,163.7 1282.7,146.3 	"/>
	<polygon class="st4" points="1144.2,46.3 1110.3,91.1 1149.5,49.3 	"/>
	
		<linearGradient id="SVGID_29_" gradientUnits="userSpaceOnUse" x1="1566.1257" y1="837.1302" x2="1641.4991" y2="837.1302" gradientTransform="matrix(-0.7071 0.7071 -0.7071 -0.7071 2908.2175 -434.0375)">
		<stop  offset="0" style="stop-color:#F4F4F5"/>
		<stop  offset="1" style="stop-color:#E2E3E3"/>
	</linearGradient>
	<polygon class="st31" points="1176.4,155.5 1198.1,70.7 1188.1,60.6 	"/>
	
		<linearGradient id="SVGID_30_" gradientUnits="userSpaceOnUse" x1="1635.4044" y1="796.7688" x2="1525.2059" y2="823.3342" gradientTransform="matrix(-0.7071 0.7071 -0.7071 -0.7071 2908.2175 -434.0375)">
		<stop  offset="0" style="stop-color:#E8E8E9"/>
		<stop  offset="1" style="stop-color:#D1D2D1"/>
	</linearGradient>
	<polygon class="st32" points="1176.4,155.5 1257.8,68.6 1234.2,71.5 	"/>
	
		<linearGradient id="SVGID_31_" gradientUnits="userSpaceOnUse" x1="1641.0321" y1="873.6071" x2="1580.6191" y2="888.1707" gradientTransform="matrix(-0.7071 0.7071 -0.7071 -0.7071 2908.2175 -434.0375)">
		<stop  offset="0" style="stop-color:#E8E8E9"/>
		<stop  offset="1" style="stop-color:#D1D2D1"/>
	</linearGradient>
	<polygon class="st33" points="1156.8,56.5 1166.3,58 1131.1,111.4 	"/>
	
		<linearGradient id="SVGID_32_" gradientUnits="userSpaceOnUse" x1="1579.6478" y1="863.6553" x2="1641.9545" y2="863.6553" gradientTransform="matrix(-0.7071 0.7071 -0.7071 -0.7071 2908.2175 -434.0375)">
		<stop  offset="0" style="stop-color:#F4F4F5"/>
		<stop  offset="1" style="stop-color:#E2E3E3"/>
	</linearGradient>
	<polygon class="st34" points="1166.3,58 1172.3,63.9 1150.8,130.6 	"/>
	
		<linearGradient id="SVGID_33_" gradientUnits="userSpaceOnUse" x1="1641.6614" y1="851.9812" x2="1566.8739" y2="870.0101" gradientTransform="matrix(-0.7071 0.7071 -0.7071 -0.7071 2908.2175 -434.0375)">
		<stop  offset="0" style="stop-color:#E8E8E9"/>
		<stop  offset="1" style="stop-color:#D1D2D1"/>
	</linearGradient>
	<polygon class="st35" points="1172.3,63.9 1188.1,60.6 1150.8,130.6 	"/>
	<polygon class="st19" points="1176.4,155.5 1282.7,146.3 1293.1,127.6 	"/>
	
		<linearGradient id="SVGID_34_" gradientUnits="userSpaceOnUse" x1="1629.1624" y1="766.9582" x2="1549.0336" y2="786.2747" gradientTransform="matrix(-0.7071 0.7071 -0.7071 -0.7071 2908.2175 -434.0375)">
		<stop  offset="0" style="stop-color:#E8E8E9"/>
		<stop  offset="1" style="stop-color:#D1D2D1"/>
	</linearGradient>
	<polygon class="st36" points="1176.4,155.5 1293.1,127.6 1273.4,116.2 	"/>
	<polygon class="st19" points="1176.4,155.5 1273.4,116.2 1278.2,95 	"/>
	
		<linearGradient id="SVGID_35_" gradientUnits="userSpaceOnUse" x1="1632.0789" y1="781.5201" x2="1533.0403" y2="805.3951" gradientTransform="matrix(-0.7071 0.7071 -0.7071 -0.7071 2908.2175 -434.0375)">
		<stop  offset="0" style="stop-color:#E8E8E9"/>
		<stop  offset="1" style="stop-color:#D1D2D1"/>
	</linearGradient>
	<polygon class="st37" points="1176.4,155.5 1278.2,95 1257.2,91.6 	"/>
	<polygon class="st19" points="1176.4,155.5 1257.2,91.6 1257.8,68.6 	"/>
	<polygon class="st19" points="1176.4,155.5 1234.2,71.5 1221,58.3 	"/>
	
		<linearGradient id="SVGID_36_" gradientUnits="userSpaceOnUse" x1="1641.5371" y1="820.9373" x2="1541.0953" y2="845.1506" gradientTransform="matrix(-0.7071 0.7071 -0.7071 -0.7071 2908.2175 -434.0375)">
		<stop  offset="0" style="stop-color:#E8E8E9"/>
		<stop  offset="1" style="stop-color:#D1D2D1"/>
	</linearGradient>
	<polygon class="st38" points="1176.4,155.5 1221,58.3 1198.1,70.7 	"/>
	
		<linearGradient id="SVGID_37_" gradientUnits="userSpaceOnUse" x1="1586.1005" y1="911.2488" x2="1642.655" y2="911.2488" gradientTransform="matrix(-0.7071 0.7071 -0.7071 -0.7071 2908.2175 -434.0375)">
		<stop  offset="0" style="stop-color:#F4F4F5"/>
		<stop  offset="1" style="stop-color:#F7F8F9"/>
	</linearGradient>
	<polygon class="st39" points="1144.2,46.3 1134.4,35.2 1110.3,91.1 	"/>
	
		<linearGradient id="SVGID_38_" gradientUnits="userSpaceOnUse" x1="1556.1774" y1="759.2895" x2="1646.3613" y2="759.2895" gradientTransform="matrix(-0.7071 0.7071 -0.7071 -0.7071 2908.2175 -434.0375)">
		<stop  offset="0" style="stop-color:#CECDCD"/>
		<stop  offset="0.7045" style="stop-color:#C8C8C8"/>
		<stop  offset="1" style="stop-color:#C4C5C4"/>
	</linearGradient>
	<polygon class="st40" points="1176,162.1 1305.2,163.7 1176.4,155.5 	"/>
	
		<linearGradient id="SVGID_39_" gradientUnits="userSpaceOnUse" x1="1585.36" y1="886.3876" x2="1642.2959" y2="886.3876" gradientTransform="matrix(-0.7071 0.7071 -0.7071 -0.7071 2908.2175 -434.0375)">
		<stop  offset="0" style="stop-color:#F4F4F5"/>
		<stop  offset="1" style="stop-color:#E2E3E3"/>
	</linearGradient>
	<polygon class="st41" points="1131.1,111.4 1149.5,49.3 1156.8,56.5 	"/>
	<polygon class="st19" points="1150.8,130.6 1176.4,155.5 1188.1,60.6 	"/>
	
		<linearGradient id="SVGID_40_" gradientUnits="userSpaceOnUse" x1="1688.7644" y1="911.515" x2="1687.7546" y2="922.6202" gradientTransform="matrix(-0.7071 0.7071 -0.7071 -0.7071 2908.2175 -434.0375)">
		<stop  offset="0" style="stop-color:#DEDFDE"/>
		<stop  offset="1" style="stop-color:#C3C3C2"/>
	</linearGradient>
	<polygon class="st42" points="1056.2,123.5 1082.9,107.6 1065.2,103.6 1059.2,109.5 	"/>
	
		<linearGradient id="SVGID_41_" gradientUnits="userSpaceOnUse" x1="1699.4474" y1="924.9374" x2="1698.4969" y2="932.9196" gradientTransform="matrix(-0.7071 0.7071 -0.7071 -0.7071 2908.2175 -434.0375)">
		<stop  offset="0" style="stop-color:#90918F"/>
		<stop  offset="1" style="stop-color:#989898"/>
	</linearGradient>
	<polygon class="st43" points="1059.3,97.7 1035.3,117.8 1059.2,109.5 1065.2,103.6 	"/>
	
		<linearGradient id="SVGID_42_" gradientUnits="userSpaceOnUse" x1="1632.6095" y1="908.2302" x2="1613.8162" y2="935.6082" gradientTransform="matrix(-0.7071 0.7071 -0.7071 -0.7071 2908.2175 -434.0375)">
		<stop  offset="0" style="stop-color:#9A9A99"/>
		<stop  offset="1" style="stop-color:#B8B8B8"/>
	</linearGradient>
	<polygon class="st44" points="1151,-10.8 1067.5,56.8 1059.3,97.7 	"/>
	
		<linearGradient id="SVGID_43_" gradientUnits="userSpaceOnUse" x1="1636.0739" y1="903.1835" x2="1615.8467" y2="932.6502" gradientTransform="matrix(-0.7071 0.7071 -0.7071 -0.7071 2908.2175 -434.0375)">
		<stop  offset="0" style="stop-color:#878887"/>
		<stop  offset="0.989" style="stop-color:#A4A4A4"/>
	</linearGradient>
	<polygon class="st45" points="1151,-10.8 1065.2,103.6 1059.3,97.7 	"/>
	<polygon class="st46" points="1176,162.1 1095.7,98.1 1099.4,105.5 	"/>
	
		<linearGradient id="SVGID_44_" gradientUnits="userSpaceOnUse" x1="1541.876" y1="937.8423" x2="1595.0507" y2="937.8423" gradientTransform="matrix(-0.7071 0.7071 -0.7071 -0.7071 2908.2175 -434.0375)">
		<stop  offset="0" style="stop-color:#F4F4F5"/>
		<stop  offset="1" style="stop-color:#F7F8F9"/>
	</linearGradient>
	<polygon class="st47" points="1118.7,32.2 1151,-10.8 1127.3,28.2 	"/>
	
		<linearGradient id="SVGID_45_" gradientUnits="userSpaceOnUse" x1="1510.5955" y1="928.7756" x2="1579.6484" y2="928.7756" gradientTransform="matrix(-0.7071 0.7071 -0.7071 -0.7071 2908.2175 -434.0375)">
		<stop  offset="0" style="stop-color:#F4F4F5"/>
		<stop  offset="1" style="stop-color:#F7F8F9"/>
	</linearGradient>
	<polygon class="st48" points="1133.7,25.3 1184.2,-21.8 1140,22.5 	"/>
	
		<linearGradient id="SVGID_46_" gradientUnits="userSpaceOnUse" x1="1527.7456" y1="932.8521" x2="1586.1951" y2="932.8521" gradientTransform="matrix(-0.7071 0.7071 -0.7071 -0.7071 2908.2175 -434.0375)">
		<stop  offset="0" style="stop-color:#F4F4F5"/>
		<stop  offset="1" style="stop-color:#F7F8F9"/>
	</linearGradient>
	<polygon class="st49" points="1127.3,28.2 1166.3,-15.4 1133.7,25.3 	"/>
	<polygon class="st19" points="1131.1,111.4 1110.3,91.1 1149.5,49.3 	"/>
	<polygon class="st19" points="1131.1,111.4 1166.3,58 1150.8,130.6 	"/>
	
		<linearGradient id="SVGID_47_" gradientUnits="userSpaceOnUse" x1="1625.5193" y1="807.7773" x2="1659.442" y2="886.2238" gradientTransform="matrix(-0.7071 0.7071 -0.7071 -0.7071 2908.2175 -434.0375)">
		<stop  offset="0" style="stop-color:#E5E7E8"/>
		<stop  offset="0.4624" style="stop-color:#E0E1E2"/>
		<stop  offset="1" style="stop-color:#D3D4D4"/>
	</linearGradient>
	<polygon class="st50" points="1095.7,98.1 1110.3,91.1 1176,162.1 	"/>
	
		<linearGradient id="SVGID_48_" gradientUnits="userSpaceOnUse" x1="1583.4323" y1="928.0516" x2="1528.9983" y2="941.1739" gradientTransform="matrix(-0.7071 0.7071 -0.7071 -0.7071 2908.2175 -434.0375)">
		<stop  offset="0" style="stop-color:#E8E8E9"/>
		<stop  offset="1" style="stop-color:#AEAFAF"/>
	</linearGradient>
	<polygon class="st51" points="1151,-10.8 1154.9,-18.2 1166.3,-15.4 1127.3,28.2 	"/>
	
		<linearGradient id="SVGID_49_" gradientUnits="userSpaceOnUse" x1="1575.6097" y1="921.4261" x2="1512.6993" y2="936.5918" gradientTransform="matrix(-0.7071 0.7071 -0.7071 -0.7071 2908.2175 -434.0375)">
		<stop  offset="0" style="stop-color:#E8E8E9"/>
		<stop  offset="1" style="stop-color:#BCBCBC"/>
	</linearGradient>
	<polygon class="st52" points="1133.7,25.3 1184.2,-21.8 1174.6,-26.7 1166.3,-15.4 	"/>
	
		<linearGradient id="SVGID_50_" gradientUnits="userSpaceOnUse" x1="1673.3146" y1="894.2933" x2="1697.5042" y2="921.3289" gradientTransform="matrix(-0.7071 0.7071 -0.7071 -0.7071 2908.2175 -434.0375)">
		<stop  offset="5.494510e-03" style="stop-color:#F4F4F5"/>
		<stop  offset="1" style="stop-color:#FAFAFB"/>
	</linearGradient>
	<polygon class="st53" points="1093.6,109.1 1056.2,123.5 1082.9,107.6 	"/>
	
		<linearGradient id="SVGID_51_" gradientUnits="userSpaceOnUse" x1="1688.2249" y1="932.3358" x2="1650.2699" y2="955.2247" gradientTransform="matrix(-0.7071 0.7071 -0.7071 -0.7071 2908.2175 -434.0375)">
		<stop  offset="5.494510e-03" style="stop-color:#787879"/>
		<stop  offset="0.9615" style="stop-color:#90918F"/>
		<stop  offset="0.989" style="stop-color:#8A8A89"/>
	</linearGradient>
	<polygon class="st54" points="1067.5,56.8 1059.3,97.7 1050.7,104.9 	"/>
	<polygon class="st46" points="1009.9,172.8 1010.5,170.6 1029.6,166.3 	"/>
	<polygon class="st46" points="1010.5,170.6 947.5,209.5 1009.9,172.8 	"/>
	<polygon class="st46" points="1176,162.1 1176.1,160.1 1305.2,163.7 	"/>
</g>
<g>
</g>
<g>
</g>
<g>
</g>
<g>
</g>
<g>
</g>
<g>
</g>
</svg>
