<?xml version="1.0" encoding="utf-8"?>
<!-- Generator: Adobe Illustrator 17.0.0, SVG Export Plug-In . SVG Version: 6.00 Build 0)  -->
<!DOCTYPE svg PUBLIC "-//W3C//DTD SVG 1.0//EN" "http://www.w3.org/TR/2001/REC-SVG-20010904/DTD/svg10.dtd">
<svg version="1.0" id="l4.2" xmlns="http://www.w3.org/2000/svg" xmlns:xlink="http://www.w3.org/1999/xlink" x="0px" y="0px"
	 width="1486.8px" height="1189.4px" viewBox="0 0 1486.8 1189.4" style="enable-background:new 0 0 1486.8 1189.4;"
	 xml:space="preserve">
<style type="text/css">
	.st0{fill:url(#SVGID_1_);}
	.st1{fill:url(#SVGID_2_);}
	.st2{fill:url(#SVGID_3_);}
	.st3{fill:url(#SVGID_4_);}
	.st4{fill:#DADBDA;}
	.st5{fill:#EEEEEF;}
	.st6{fill:url(#SVGID_5_);}
	.st7{fill:url(#SVGID_6_);}
	.st8{fill:url(#SVGID_7_);}
	.st9{fill:url(#SVGID_8_);}
	.st10{fill:url(#SVGID_9_);}
	.st11{fill:url(#SVGID_10_);}
	.st12{fill:url(#SVGID_11_);}
	.st13{fill:url(#SVGID_12_);}
	.st14{fill:url(#SVGID_13_);}
	.st15{fill:url(#SVGID_14_);}
	.st16{fill:url(#SVGID_15_);}
	.st17{fill:url(#SVGID_16_);}
	.st18{fill:url(#SVGID_17_);}
	.st19{fill:#F7F8F9;}
	.st20{fill:url(#SVGID_18_);}
	.st21{fill:url(#SVGID_19_);}
	.st22{fill:url(#SVGID_20_);}
	.st23{fill:url(#SVGID_21_);}
	.st24{fill:url(#SVGID_22_);}
	.st25{fill:url(#SVGID_23_);}
	.st26{fill:url(#SVGID_24_);}
	.st27{fill:url(#SVGID_25_);}
	.st28{fill:url(#SVGID_26_);}
	.st29{fill:url(#SVGID_27_);}
	.st30{fill:url(#SVGID_28_);}
	.st31{fill:url(#SVGID_29_);}
	.st32{fill:url(#SVGID_30_);}
	.st33{fill:url(#SVGID_31_);}
	.st34{fill:url(#SVGID_32_);}
	.st35{fill:url(#SVGID_33_);}
	.st36{fill:url(#SVGID_34_);}
	.st37{fill:url(#SVGID_35_);}
	.st38{fill:url(#SVGID_36_);}
	.st39{fill:url(#SVGID_37_);}
	.st40{fill:url(#SVGID_38_);}
	.st41{fill:url(#SVGID_39_);}
	.st42{fill:url(#SVGID_40_);}
	.st43{fill:url(#SVGID_41_);}
	.st44{fill:url(#SVGID_42_);}
	.st45{fill:url(#SVGID_43_);}
	.st46{fill:#FFFFFF;}
	.st47{fill:url(#SVGID_44_);}
	.st48{fill:url(#SVGID_45_);}
	.st49{fill:url(#SVGID_46_);}
	.st50{fill:url(#SVGID_47_);}
	.st51{fill:url(#SVGID_48_);}
	.st52{fill:url(#SVGID_49_);}
	.st53{fill:url(#SVGID_50_);}
	.st54{fill:url(#SVGID_51_);}
</style>
<g>
	
		<linearGradient id="SVGID_1_" gradientUnits="userSpaceOnUse" x1="1402.9725" y1="343.2249" x2="1424.9301" y2="394.0018" gradientTransform="matrix(0.7071 -0.7071 0.7071 0.7071 -910.2749 1452.6466)">
		<stop  offset="0" style="stop-color:#D9D9DA"/>
		<stop  offset="0.803" style="stop-color:#D3D4D3"/>
		<stop  offset="1" style="stop-color:#D1D2D1"/>
	</linearGradient>
	<polygon class="st0" points="374.5,757 342.2,671 338.2,675.9 358.1,756 	"/>
	
		<linearGradient id="SVGID_2_" gradientUnits="userSpaceOnUse" x1="1392.9562" y1="273.7491" x2="1432.0474" y2="273.7491" gradientTransform="matrix(0.7071 -0.7071 0.7071 0.7071 -910.2749 1452.6466)">
		<stop  offset="0" style="stop-color:#C3C3C2"/>
		<stop  offset="1" style="stop-color:#D1D2D1"/>
	</linearGradient>
	<polygon class="st1" points="338.2,676 233.1,611.8 242.4,635.4 	"/>
	
		<linearGradient id="SVGID_3_" gradientUnits="userSpaceOnUse" x1="1338.4161" y1="331.9088" x2="1432.0474" y2="331.9088" gradientTransform="matrix(0.7071 -0.7071 0.7071 0.7071 -910.2749 1452.6466)">
		<stop  offset="0" style="stop-color:#D1D2D1"/>
		<stop  offset="1" style="stop-color:#DEDFDE"/>
	</linearGradient>
	<polygon class="st2" points="338.2,676 271.7,732.4 274.6,744.8 	"/>
	
		<linearGradient id="SVGID_4_" gradientUnits="userSpaceOnUse" x1="1326.1777" y1="302.7511" x2="1432.0692" y2="302.7511" gradientTransform="matrix(0.7071 -0.7071 0.7071 0.7071 -910.2749 1452.6466)">
		<stop  offset="0" style="stop-color:#C3C3C2"/>
		<stop  offset="1" style="stop-color:#D1D2D1"/>
	</linearGradient>
	<polygon class="st3" points="338.2,675.9 219.7,707.2 241.4,715.6 	"/>
	<polygon class="st4" points="299,762 291.7,756.6 351.9,730.8 	"/>
	<polygon class="st5" points="291.7,756.6 290,749.3 345.9,706.9 	"/>
	
		<linearGradient id="SVGID_5_" gradientUnits="userSpaceOnUse" x1="1338.4161" y1="349.1388" x2="1415.5996" y2="349.1388" gradientTransform="matrix(0.7071 -0.7071 0.7071 0.7071 -910.2749 1452.6466)">
		<stop  offset="0" style="stop-color:#F4F4F5"/>
		<stop  offset="1" style="stop-color:#D9D9DA"/>
	</linearGradient>
	<polygon class="st6" points="290,749.3 274.6,744.8 345.9,706.9 	"/>
	
		<linearGradient id="SVGID_6_" gradientUnits="userSpaceOnUse" x1="1372.1514" y1="282.0344" x2="1432.0474" y2="282.0344" gradientTransform="matrix(0.7071 -0.7071 0.7071 0.7071 -910.2749 1452.6466)">
		<stop  offset="0" style="stop-color:#D1D2D1"/>
		<stop  offset="1" style="stop-color:#DEDFDE"/>
	</linearGradient>
	<polygon class="st7" points="338.2,676 242.4,635.4 222.9,645.3 	"/>
	
		<linearGradient id="SVGID_7_" gradientUnits="userSpaceOnUse" x1="1366.9703" y1="282.0344" x2="1432.0474" y2="282.0344" gradientTransform="matrix(0.7071 -0.7071 0.7071 0.7071 -910.2749 1452.6466)">
		<stop  offset="0" style="stop-color:#C3C3C2"/>
		<stop  offset="1" style="stop-color:#D1D2D1"/>
	</linearGradient>
	<polygon class="st8" points="338.2,676 222.9,645.3 233.3,663.1 	"/>
	
		<linearGradient id="SVGID_8_" gradientUnits="userSpaceOnUse" x1="1345.4248" y1="291.3536" x2="1432.0474" y2="291.3536" gradientTransform="matrix(0.7071 -0.7071 0.7071 0.7071 -910.2749 1452.6466)">
		<stop  offset="0" style="stop-color:#D1D2D1"/>
		<stop  offset="1" style="stop-color:#DEDFDE"/>
	</linearGradient>
	<polygon class="st9" points="338.2,676 233.3,663.1 217.2,677.4 	"/>
	
		<linearGradient id="SVGID_9_" gradientUnits="userSpaceOnUse" x1="1345.4248" y1="291.3536" x2="1432.0474" y2="291.3536" gradientTransform="matrix(0.7071 -0.7071 0.7071 0.7071 -910.2749 1452.6466)">
		<stop  offset="0" style="stop-color:#C3C3C2"/>
		<stop  offset="1" style="stop-color:#D1D2D1"/>
	</linearGradient>
	<polygon class="st10" points="338.2,676 217.2,677.4 233.2,689.6 	"/>
	
		<linearGradient id="SVGID_10_" gradientUnits="userSpaceOnUse" x1="1326.1777" y1="301.3138" x2="1432.0474" y2="301.3138" gradientTransform="matrix(0.7071 -0.7071 0.7071 0.7071 -910.2749 1452.6466)">
		<stop  offset="0" style="stop-color:#D1D2D1"/>
		<stop  offset="1" style="stop-color:#DEDFDE"/>
	</linearGradient>
	<polygon class="st11" points="338.2,676 233.2,689.6 219.7,707.2 	"/>
	
		<linearGradient id="SVGID_11_" gradientUnits="userSpaceOnUse" x1="1326.7927" y1="313.3981" x2="1432.0474" y2="313.3981" gradientTransform="matrix(0.7071 -0.7071 0.7071 0.7071 -910.2749 1452.6466)">
		<stop  offset="0" style="stop-color:#D1D2D1"/>
		<stop  offset="1" style="stop-color:#DEDFDE"/>
	</linearGradient>
	<polygon class="st12" points="338.2,676 241.4,715.6 245.2,731.8 	"/>
	
		<linearGradient id="SVGID_12_" gradientUnits="userSpaceOnUse" x1="1326.7927" y1="320.4629" x2="1432.0474" y2="320.4629" gradientTransform="matrix(0.7071 -0.7071 0.7071 0.7071 -910.2749 1452.6466)">
		<stop  offset="0" style="stop-color:#C3C3C2"/>
		<stop  offset="1" style="stop-color:#D1D2D1"/>
	</linearGradient>
	<polygon class="st13" points="338.2,676 245.2,731.8 271.7,732.4 	"/>
	
		<linearGradient id="SVGID_13_" gradientUnits="userSpaceOnUse" x1="1403.0778" y1="273.7491" x2="1438.3611" y2="273.7491" gradientTransform="matrix(0.7071 -0.7071 0.7071 0.7071 -910.2749 1452.6466)">
		<stop  offset="0" style="stop-color:#F4F4F5"/>
		<stop  offset="1" style="stop-color:#E2E3E3"/>
	</linearGradient>
	<polygon class="st14" points="342.2,671 233.1,611.8 338.2,676 	"/>
	<polygon class="st5" points="351.9,730.8 301,770.9 299,762 	"/>
	
		<linearGradient id="SVGID_14_" gradientUnits="userSpaceOnUse" x1="1338.4161" y1="347.307" x2="1432.0474" y2="347.307" gradientTransform="matrix(0.7071 -0.7071 0.7071 0.7071 -910.2749 1452.6466)">
		<stop  offset="0" style="stop-color:#F4F4F5"/>
		<stop  offset="1" style="stop-color:#E2E3E3"/>
	</linearGradient>
	<polygon class="st15" points="345.9,706.9 338.2,676 274.6,744.8 	"/>
	
		<linearGradient id="SVGID_15_" gradientUnits="userSpaceOnUse" x1="1431.1776" y1="406.6693" x2="1414.396" y2="361.3979" gradientTransform="matrix(0.7071 -0.7071 0.7071 0.7071 -910.2749 1452.6466)">
		<stop  offset="0" style="stop-color:#A4A4A4"/>
		<stop  offset="1" style="stop-color:#C7C7C7"/>
	</linearGradient>
	<polygon class="st16" points="342.2,671 374.5,757 375.5,749.6 	"/>
	
		<linearGradient id="SVGID_16_" gradientUnits="userSpaceOnUse" x1="1338.6351" y1="389.3567" x2="1402.9254" y2="389.3567" gradientTransform="matrix(0.7071 -0.7071 0.7071 0.7071 -910.2749 1452.6466)">
		<stop  offset="0" style="stop-color:#F4F4F5"/>
		<stop  offset="1" style="stop-color:#E2E3E3"/>
	</linearGradient>
	<polygon class="st17" points="351.9,730.8 358.1,756 301,770.9 	"/>
	
		<linearGradient id="SVGID_17_" gradientUnits="userSpaceOnUse" x1="1342.0938" y1="369.8853" x2="1415.5996" y2="369.8853" gradientTransform="matrix(0.7071 -0.7071 0.7071 0.7071 -910.2749 1452.6466)">
		<stop  offset="0" style="stop-color:#F4F4F5"/>
		<stop  offset="1" style="stop-color:#E2E3E3"/>
	</linearGradient>
	<polygon class="st18" points="351.9,730.8 291.7,756.6 345.9,706.9 	"/>
	<polygon class="st19" points="557.7,612.8 474,662.1 467.9,685.6 	"/>
	
		<linearGradient id="SVGID_18_" gradientUnits="userSpaceOnUse" x1="1519.3608" y1="404.7323" x2="1528.9944" y2="430.282" gradientTransform="matrix(0.7071 -0.7071 0.7071 0.7071 -910.2749 1452.6466)">
		<stop  offset="0" style="stop-color:#E8E8E9"/>
		<stop  offset="1" style="stop-color:#D1D2D1"/>
	</linearGradient>
	<polygon class="st20" points="474,662.1 447.7,670.7 467.9,685.6 	"/>
	
		<linearGradient id="SVGID_19_" gradientUnits="userSpaceOnUse" x1="1515.6511" y1="417.1768" x2="1435.4539" y2="441.8088" gradientTransform="matrix(0.7071 -0.7071 0.7071 0.7071 -910.2749 1452.6466)">
		<stop  offset="0" style="stop-color:#F0F0F0"/>
		<stop  offset="1" style="stop-color:#DCDCDD"/>
	</linearGradient>
	<polygon class="st21" points="447.7,670.7 412.1,728.1 408,746.8 467.9,685.6 	"/>
	
		<linearGradient id="SVGID_20_" gradientUnits="userSpaceOnUse" x1="1517.3179" y1="438.1912" x2="1631.0728" y2="438.1912" gradientTransform="matrix(0.7071 -0.7071 0.7071 0.7071 -910.2749 1452.6466)">
		<stop  offset="0" style="stop-color:#9A9A99"/>
		<stop  offset="1" style="stop-color:#C4C5C4"/>
	</linearGradient>
	<polygon class="st22" points="557.7,612.8 478.4,686.6 467.9,685.6 	"/>
	
		<linearGradient id="SVGID_21_" gradientUnits="userSpaceOnUse" x1="1476.9982" y1="431.9495" x2="1478.3608" y2="446.3537" gradientTransform="matrix(0.7071 -0.7071 0.7071 0.7071 -910.2749 1452.6466)">
		<stop  offset="0" style="stop-color:#9C9D9C"/>
		<stop  offset="1" style="stop-color:#B8B8B8"/>
	</linearGradient>
	<polygon class="st23" points="478.4,686.6 440.1,735.7 408,746.8 467.9,685.6 	"/>
	
		<linearGradient id="SVGID_22_" gradientUnits="userSpaceOnUse" x1="1387.7095" y1="401.1353" x2="1418.1057" y2="435.1078" gradientTransform="matrix(0.7071 -0.7071 0.7071 0.7071 -910.2749 1452.6466)">
		<stop  offset="0" style="stop-color:#F4F4F5"/>
		<stop  offset="1" style="stop-color:#DADBDA"/>
	</linearGradient>
	<polygon class="st24" points="354.2,752.2 359.2,762.2 400,754.8 376.3,749.4 	"/>
	
		<linearGradient id="SVGID_23_" gradientUnits="userSpaceOnUse" x1="1391.5491" y1="397.2927" x2="1406.0508" y2="413.5008" gradientTransform="matrix(0.7071 -0.7071 0.7071 0.7071 -910.2749 1452.6466)">
		<stop  offset="5.494510e-03" style="stop-color:#F4F4F5"/>
		<stop  offset="1" style="stop-color:#FAFAFB"/>
	</linearGradient>
	<polygon class="st25" points="354.2,752.2 362,747.4 376.3,749.4 	"/>
	
		<linearGradient id="SVGID_24_" gradientUnits="userSpaceOnUse" x1="1271.4204" y1="433.6497" x2="1383.8121" y2="403.6149" gradientTransform="matrix(0.7071 -0.7071 0.7071 0.7071 -910.2749 1452.6466)">
		<stop  offset="0" style="stop-color:#EBECEC"/>
		<stop  offset="0.5032" style="stop-color:#E7E8E9"/>
		<stop  offset="0.9625" style="stop-color:#DEDEDE"/>
		<stop  offset="1" style="stop-color:#DCDCDD"/>
	</linearGradient>
	<polygon class="st26" points="299.9,863.4 339.6,771.5 359.2,762.2 	"/>
	
		<linearGradient id="SVGID_25_" gradientUnits="userSpaceOnUse" x1="1334.7424" y1="409.6105" x2="1353.0718" y2="451.997" gradientTransform="matrix(0.7071 -0.7071 0.7071 0.7071 -910.2749 1452.6466)">
		<stop  offset="0" style="stop-color:#F4F4F5"/>
		<stop  offset="1" style="stop-color:#D9D9DA"/>
	</linearGradient>
	<polygon class="st27" points="299.9,863.4 328.3,850.4 400,754.8 359.2,762.2 	"/>
	
		<linearGradient id="SVGID_26_" gradientUnits="userSpaceOnUse" x1="1298.384" y1="476.6337" x2="1300.0446" y2="466.3684" gradientTransform="matrix(0.7071 -0.7071 0.7071 0.7071 -910.2749 1452.6466)">
		<stop  offset="0" style="stop-color:#ACAEAC"/>
		<stop  offset="1" style="stop-color:#919292"/>
	</linearGradient>
	<polygon class="st28" points="368.8,840.1 338.5,875.8 309.9,887.8 	"/>
	
		<linearGradient id="SVGID_27_" gradientUnits="userSpaceOnUse" x1="1367.1696" y1="275.174" x2="1363.8597" y2="404.2579" gradientTransform="matrix(0.7071 -0.7071 0.7071 0.7071 -910.2749 1452.6466)">
		<stop  offset="0" style="stop-color:#CECDCD"/>
		<stop  offset="0.3254" style="stop-color:#C8C8C8"/>
		<stop  offset="0.7769" style="stop-color:#B9B9B9"/>
		<stop  offset="1" style="stop-color:#AEAFAF"/>
	</linearGradient>
	<polygon class="st29" points="251.5,676.4 251.5,676.4 251,685.1 339.6,771.5 	"/>
	
		<linearGradient id="SVGID_28_" gradientUnits="userSpaceOnUse" x1="1343.6125" y1="204.767" x2="1263.4031" y2="224.1029" gradientTransform="matrix(0.7071 -0.7071 0.7071 0.7071 -910.2749 1452.6466)">
		<stop  offset="0" style="stop-color:#E8E8E9"/>
		<stop  offset="1" style="stop-color:#D1D2D1"/>
	</linearGradient>
	<polygon class="st30" points="251.1,685.2 78.6,674.3 108.6,697.5 	"/>
	<polygon class="st4" points="294.2,831.5 339.6,771.5 287,827.4 	"/>
	
		<linearGradient id="SVGID_29_" gradientUnits="userSpaceOnUse" x1="1262.9437" y1="317.9154" x2="1363.9034" y2="317.9154" gradientTransform="matrix(0.7071 -0.7071 0.7071 0.7071 -910.2749 1452.6466)">
		<stop  offset="0" style="stop-color:#F4F4F5"/>
		<stop  offset="1" style="stop-color:#E2E3E3"/>
	</linearGradient>
	<polygon class="st31" points="251.1,685.2 222,798.8 235.4,812.3 	"/>
	
		<linearGradient id="SVGID_30_" gradientUnits="userSpaceOnUse" x1="1355.7399" y1="263.8529" x2="1208.1332" y2="299.4362" gradientTransform="matrix(0.7071 -0.7071 0.7071 0.7071 -910.2749 1452.6466)">
		<stop  offset="0" style="stop-color:#E8E8E9"/>
		<stop  offset="1" style="stop-color:#D1D2D1"/>
	</linearGradient>
	<polygon class="st32" points="251.1,685.2 142,801.5 173.6,797.8 	"/>
	
		<linearGradient id="SVGID_31_" gradientUnits="userSpaceOnUse" x1="1363.2778" y1="366.7747" x2="1282.3569" y2="386.2822" gradientTransform="matrix(0.7071 -0.7071 0.7071 0.7071 -910.2749 1452.6466)">
		<stop  offset="0" style="stop-color:#E8E8E9"/>
		<stop  offset="1" style="stop-color:#D1D2D1"/>
	</linearGradient>
	<polygon class="st33" points="277.3,817.8 264.6,815.9 311.8,744.3 	"/>
	
		<linearGradient id="SVGID_32_" gradientUnits="userSpaceOnUse" x1="1281.056" y1="353.4447" x2="1364.5133" y2="353.4447" gradientTransform="matrix(0.7071 -0.7071 0.7071 0.7071 -910.2749 1452.6466)">
		<stop  offset="0" style="stop-color:#F4F4F5"/>
		<stop  offset="1" style="stop-color:#E2E3E3"/>
	</linearGradient>
	<polygon class="st34" points="264.6,815.9 256.6,807.8 285.4,718.6 	"/>
	
		<linearGradient id="SVGID_33_" gradientUnits="userSpaceOnUse" x1="1364.1207" y1="337.8077" x2="1263.9458" y2="361.9567" gradientTransform="matrix(0.7071 -0.7071 0.7071 0.7071 -910.2749 1452.6466)">
		<stop  offset="0" style="stop-color:#E8E8E9"/>
		<stop  offset="1" style="stop-color:#D1D2D1"/>
	</linearGradient>
	<polygon class="st35" points="256.6,807.8 235.4,812.3 285.4,718.6 	"/>
	<polygon class="st19" points="251.1,685.2 108.6,697.5 94.7,722.6 	"/>
	
		<linearGradient id="SVGID_34_" gradientUnits="userSpaceOnUse" x1="1347.3788" y1="223.9226" x2="1240.0493" y2="249.7964" gradientTransform="matrix(0.7071 -0.7071 0.7071 0.7071 -910.2749 1452.6466)">
		<stop  offset="0" style="stop-color:#E8E8E9"/>
		<stop  offset="1" style="stop-color:#D1D2D1"/>
	</linearGradient>
	<polygon class="st36" points="251.1,685.2 94.7,722.6 121.1,737.9 	"/>
	<polygon class="st19" points="251.1,685.2 121.1,737.9 114.6,766.2 	"/>
	
		<linearGradient id="SVGID_35_" gradientUnits="userSpaceOnUse" x1="1351.2854" y1="243.4278" x2="1218.627" y2="275.4075" gradientTransform="matrix(0.7071 -0.7071 0.7071 0.7071 -910.2749 1452.6466)">
		<stop  offset="0" style="stop-color:#E8E8E9"/>
		<stop  offset="1" style="stop-color:#D1D2D1"/>
	</linearGradient>
	<polygon class="st37" points="251.1,685.2 114.6,766.2 142.9,770.8 	"/>
	<polygon class="st19" points="251.1,685.2 142.9,770.8 142,801.5 	"/>
	<polygon class="st19" points="251.1,685.2 173.6,797.8 191.3,815.4 	"/>
	
		<linearGradient id="SVGID_36_" gradientUnits="userSpaceOnUse" x1="1363.9542" y1="296.2256" x2="1229.4164" y2="328.6584" gradientTransform="matrix(0.7071 -0.7071 0.7071 0.7071 -910.2749 1452.6466)">
		<stop  offset="0" style="stop-color:#E8E8E9"/>
		<stop  offset="1" style="stop-color:#D1D2D1"/>
	</linearGradient>
	<polygon class="st38" points="251.1,685.2 191.3,815.4 222,798.8 	"/>
	
		<linearGradient id="SVGID_37_" gradientUnits="userSpaceOnUse" x1="1289.6991" y1="417.1944" x2="1365.4518" y2="417.1944" gradientTransform="matrix(0.7071 -0.7071 0.7071 0.7071 -910.2749 1452.6466)">
		<stop  offset="0" style="stop-color:#F4F4F5"/>
		<stop  offset="1" style="stop-color:#F7F8F9"/>
	</linearGradient>
	<polygon class="st39" points="294.2,831.5 307.3,846.3 339.6,771.5 	"/>
	
		<linearGradient id="SVGID_38_" gradientUnits="userSpaceOnUse" x1="1249.6182" y1="213.6507" x2="1370.4161" y2="213.6507" gradientTransform="matrix(0.7071 -0.7071 0.7071 0.7071 -910.2749 1452.6466)">
		<stop  offset="0" style="stop-color:#CECDCD"/>
		<stop  offset="0.7045" style="stop-color:#C8C8C8"/>
		<stop  offset="1" style="stop-color:#C4C5C4"/>
	</linearGradient>
	<polygon class="st40" points="251.5,676.4 78.6,674.3 251.1,685.2 	"/>
	
		<linearGradient id="SVGID_39_" gradientUnits="userSpaceOnUse" x1="1288.7072" y1="383.8937" x2="1364.9707" y2="383.8937" gradientTransform="matrix(0.7071 -0.7071 0.7071 0.7071 -910.2749 1452.6466)">
		<stop  offset="0" style="stop-color:#F4F4F5"/>
		<stop  offset="1" style="stop-color:#E2E3E3"/>
	</linearGradient>
	<polygon class="st41" points="311.8,744.3 287,827.4 277.3,817.8 	"/>
	<polygon class="st19" points="285.4,718.6 251.1,685.2 235.4,812.3 	"/>
	
		<linearGradient id="SVGID_40_" gradientUnits="userSpaceOnUse" x1="1427.2135" y1="417.551" x2="1425.8608" y2="432.426" gradientTransform="matrix(0.7071 -0.7071 0.7071 0.7071 -910.2749 1452.6466)">
		<stop  offset="0" style="stop-color:#DEDFDE"/>
		<stop  offset="1" style="stop-color:#C3C3C2"/>
	</linearGradient>
	<polygon class="st42" points="412.1,728.1 376.3,749.4 400,754.8 408,746.8 	"/>
	
		<linearGradient id="SVGID_41_" gradientUnits="userSpaceOnUse" x1="1441.5229" y1="435.5298" x2="1440.2499" y2="446.2215" gradientTransform="matrix(0.7071 -0.7071 0.7071 0.7071 -910.2749 1452.6466)">
		<stop  offset="0" style="stop-color:#90918F"/>
		<stop  offset="1" style="stop-color:#989898"/>
	</linearGradient>
	<polygon class="st43" points="407.9,762.7 440.1,735.7 408,746.8 400,754.8 	"/>
	
		<linearGradient id="SVGID_42_" gradientUnits="userSpaceOnUse" x1="1351.9961" y1="413.1511" x2="1326.8232" y2="449.8228" gradientTransform="matrix(0.7071 -0.7071 0.7071 0.7071 -910.2749 1452.6466)">
		<stop  offset="0" style="stop-color:#9A9A99"/>
		<stop  offset="1" style="stop-color:#B8B8B8"/>
	</linearGradient>
	<polygon class="st44" points="285.1,907.9 396.9,817.4 407.9,762.7 	"/>
	
		<linearGradient id="SVGID_43_" gradientUnits="userSpaceOnUse" x1="1356.6365" y1="406.3912" x2="1329.5428" y2="445.8607" gradientTransform="matrix(0.7071 -0.7071 0.7071 0.7071 -910.2749 1452.6466)">
		<stop  offset="0" style="stop-color:#878887"/>
		<stop  offset="0.989" style="stop-color:#A4A4A4"/>
	</linearGradient>
	<polygon class="st45" points="285.1,907.9 400,754.8 407.9,762.7 	"/>
	<polygon class="st46" points="251.5,676.4 359.2,762.2 354.2,752.2 	"/>
	
		<linearGradient id="SVGID_44_" gradientUnits="userSpaceOnUse" x1="1230.462" y1="452.8154" x2="1301.6875" y2="452.8154" gradientTransform="matrix(0.7071 -0.7071 0.7071 0.7071 -910.2749 1452.6466)">
		<stop  offset="0" style="stop-color:#F4F4F5"/>
		<stop  offset="1" style="stop-color:#F7F8F9"/>
	</linearGradient>
	<polygon class="st47" points="328.3,850.4 285.1,907.9 316.8,855.7 	"/>
	
		<linearGradient id="SVGID_45_" gradientUnits="userSpaceOnUse" x1="1188.563" y1="440.6708" x2="1281.0568" y2="440.6708" gradientTransform="matrix(0.7071 -0.7071 0.7071 0.7071 -910.2749 1452.6466)">
		<stop  offset="0" style="stop-color:#F4F4F5"/>
		<stop  offset="1" style="stop-color:#F7F8F9"/>
	</linearGradient>
	<polygon class="st48" points="308.3,859.6 240.6,922.7 299.9,863.4 	"/>
	
		<linearGradient id="SVGID_46_" gradientUnits="userSpaceOnUse" x1="1211.5349" y1="446.1312" x2="1289.8257" y2="446.1312" gradientTransform="matrix(0.7071 -0.7071 0.7071 0.7071 -910.2749 1452.6466)">
		<stop  offset="0" style="stop-color:#F4F4F5"/>
		<stop  offset="1" style="stop-color:#F7F8F9"/>
	</linearGradient>
	<polygon class="st49" points="316.8,855.7 264.6,914.1 308.3,859.6 	"/>
	<polygon class="st19" points="311.8,744.3 339.6,771.5 287,827.4 	"/>
	<polygon class="st19" points="311.8,744.3 264.6,815.9 285.4,718.6 	"/>
	
		<linearGradient id="SVGID_47_" gradientUnits="userSpaceOnUse" x1="1342.499" y1="278.5984" x2="1387.9373" y2="383.6744" gradientTransform="matrix(0.7071 -0.7071 0.7071 0.7071 -910.2749 1452.6466)">
		<stop  offset="0" style="stop-color:#E5E7E8"/>
		<stop  offset="0.4624" style="stop-color:#E0E1E2"/>
		<stop  offset="1" style="stop-color:#D3D4D4"/>
	</linearGradient>
	<polygon class="st50" points="359.2,762.2 339.6,771.5 251.5,676.4 	"/>
	
		<linearGradient id="SVGID_48_" gradientUnits="userSpaceOnUse" x1="1286.1251" y1="439.701" x2="1213.2129" y2="457.2779" gradientTransform="matrix(0.7071 -0.7071 0.7071 0.7071 -910.2749 1452.6466)">
		<stop  offset="0" style="stop-color:#E8E8E9"/>
		<stop  offset="1" style="stop-color:#AEAFAF"/>
	</linearGradient>
	<polygon class="st51" points="285.1,907.9 279.9,917.8 264.6,914.1 316.8,855.7 	"/>
	
		<linearGradient id="SVGID_49_" gradientUnits="userSpaceOnUse" x1="1275.6471" y1="430.8264" x2="1191.3811" y2="451.1403" gradientTransform="matrix(0.7071 -0.7071 0.7071 0.7071 -910.2749 1452.6466)">
		<stop  offset="0" style="stop-color:#E8E8E9"/>
		<stop  offset="1" style="stop-color:#BCBCBC"/>
	</linearGradient>
	<polygon class="st52" points="308.3,859.6 240.6,922.7 253.5,929.2 264.6,914.1 	"/>
	
		<linearGradient id="SVGID_50_" gradientUnits="userSpaceOnUse" x1="1406.519" y1="394.4831" x2="1438.92" y2="430.6963" gradientTransform="matrix(0.7071 -0.7071 0.7071 0.7071 -910.2749 1452.6466)">
		<stop  offset="5.494510e-03" style="stop-color:#F4F4F5"/>
		<stop  offset="1" style="stop-color:#FAFAFB"/>
	</linearGradient>
	<polygon class="st53" points="362,747.4 412.1,728.1 376.3,749.4 	"/>
	
		<linearGradient id="SVGID_51_" gradientUnits="userSpaceOnUse" x1="1426.4907" y1="445.4397" x2="1375.6515" y2="476.0984" gradientTransform="matrix(0.7071 -0.7071 0.7071 0.7071 -910.2749 1452.6466)">
		<stop  offset="5.494510e-03" style="stop-color:#787879"/>
		<stop  offset="0.9615" style="stop-color:#90918F"/>
		<stop  offset="0.989" style="stop-color:#8A8A89"/>
	</linearGradient>
	<polygon class="st54" points="396.9,817.4 407.9,762.7 419.4,753 	"/>
	<polygon class="st46" points="474,662.1 473.3,665 447.7,670.7 	"/>
	<polygon class="st46" points="473.3,665 557.7,612.8 474,662.1 	"/>
	<polygon class="st46" points="251.5,676.4 251.4,679.1 78.6,674.3 	"/>
</g>
<g>
</g>
<g>
</g>
<g>
</g>
<g>
</g>
<g>
</g>
<g>
</g>
</svg>
