<?xml version="1.0" encoding="utf-8"?>
<!-- Generator: Adobe Illustrator 17.0.0, SVG Export Plug-In . SVG Version: 6.00 Build 0)  -->
<!DOCTYPE svg PUBLIC "-//W3C//DTD SVG 1.0//EN" "http://www.w3.org/TR/2001/REC-SVG-20010904/DTD/svg10.dtd">
<svg version="1.0" id="l6_1_" xmlns="http://www.w3.org/2000/svg" xmlns:xlink="http://www.w3.org/1999/xlink" x="0px" y="0px"
	 width="1486.8px" height="1189.4px" viewBox="0 0 1486.8 1189.4" style="enable-background:new 0 0 1486.8 1189.4;"
	 xml:space="preserve">
<style type="text/css">
	.st0{fill:url(#SVGID_1_);}
	.st1{fill:url(#SVGID_2_);}
	.st2{fill:url(#SVGID_3_);}
	.st3{fill:url(#SVGID_4_);}
	.st4{fill:#DADBDA;}
	.st5{fill:#EEEEEF;}
	.st6{fill:url(#SVGID_5_);}
	.st7{fill:url(#SVGID_6_);}
	.st8{fill:url(#SVGID_7_);}
	.st9{fill:url(#SVGID_8_);}
	.st10{fill:url(#SVGID_9_);}
	.st11{fill:url(#SVGID_10_);}
	.st12{fill:url(#SVGID_11_);}
	.st13{fill:url(#SVGID_12_);}
	.st14{fill:url(#SVGID_13_);}
	.st15{fill:url(#SVGID_14_);}
	.st16{fill:url(#SVGID_15_);}
	.st17{fill:url(#SVGID_16_);}
	.st18{fill:url(#SVGID_17_);}
	.st19{fill:#F7F8F9;}
	.st20{fill:url(#SVGID_18_);}
	.st21{fill:url(#SVGID_19_);}
	.st22{fill:url(#SVGID_20_);}
	.st23{fill:url(#SVGID_21_);}
	.st24{fill:url(#SVGID_22_);}
	.st25{fill:url(#SVGID_23_);}
	.st26{fill:url(#SVGID_24_);}
	.st27{fill:url(#SVGID_25_);}
	.st28{fill:url(#SVGID_26_);}
	.st29{fill:url(#SVGID_27_);}
	.st30{fill:url(#SVGID_28_);}
	.st31{fill:url(#SVGID_29_);}
	.st32{fill:url(#SVGID_30_);}
	.st33{fill:url(#SVGID_31_);}
	.st34{fill:url(#SVGID_32_);}
	.st35{fill:url(#SVGID_33_);}
	.st36{fill:url(#SVGID_34_);}
	.st37{fill:url(#SVGID_35_);}
	.st38{fill:url(#SVGID_36_);}
	.st39{fill:url(#SVGID_37_);}
	.st40{fill:url(#SVGID_38_);}
	.st41{fill:url(#SVGID_39_);}
	.st42{fill:url(#SVGID_40_);}
	.st43{fill:url(#SVGID_41_);}
	.st44{fill:url(#SVGID_42_);}
	.st45{fill:url(#SVGID_43_);}
	.st46{fill:#FFFFFF;}
	.st47{fill:url(#SVGID_44_);}
	.st48{fill:url(#SVGID_45_);}
	.st49{fill:url(#SVGID_46_);}
	.st50{fill:url(#SVGID_47_);}
	.st51{fill:url(#SVGID_48_);}
	.st52{fill:url(#SVGID_49_);}
	.st53{fill:url(#SVGID_50_);}
	.st54{fill:url(#SVGID_51_);}
</style>
<g>
	
		<linearGradient id="SVGID_1_" gradientUnits="userSpaceOnUse" x1="1956.4553" y1="-192.2889" x2="1983.4728" y2="-129.811" gradientTransform="matrix(0.7071 -0.7071 0.7071 0.7071 -910.2749 1452.6466)">
		<stop  offset="0" style="stop-color:#D9D9DA"/>
		<stop  offset="0.803" style="stop-color:#D3D4D3"/>
		<stop  offset="1" style="stop-color:#D1D2D1"/>
	</linearGradient>
	<polygon class="st0" points="398.8,-0.6 359,-106.5 354.1,-100.4 378.6,-1.9 	"/>
	
		<linearGradient id="SVGID_2_" gradientUnits="userSpaceOnUse" x1="1944.1309" y1="-277.7745" x2="1992.2301" y2="-277.7745" gradientTransform="matrix(0.7071 -0.7071 0.7071 0.7071 -910.2749 1452.6466)">
		<stop  offset="0" style="stop-color:#C3C3C2"/>
		<stop  offset="1" style="stop-color:#D1D2D1"/>
	</linearGradient>
	<polygon class="st1" points="354.1,-100.4 224.7,-179.4 236.2,-150.3 	"/>
	
		<linearGradient id="SVGID_3_" gradientUnits="userSpaceOnUse" x1="1877.0227" y1="-206.2125" x2="1992.2301" y2="-206.2125" gradientTransform="matrix(0.7071 -0.7071 0.7071 0.7071 -910.2749 1452.6466)">
		<stop  offset="0" style="stop-color:#D1D2D1"/>
		<stop  offset="1" style="stop-color:#DEDFDE"/>
	</linearGradient>
	<polygon class="st2" points="354.1,-100.4 272.3,-30.9 275.8,-15.7 	"/>
	
		<linearGradient id="SVGID_4_" gradientUnits="userSpaceOnUse" x1="1861.9641" y1="-242.0893" x2="1992.257" y2="-242.0893" gradientTransform="matrix(0.7071 -0.7071 0.7071 0.7071 -910.2749 1452.6466)">
		<stop  offset="0" style="stop-color:#C3C3C2"/>
		<stop  offset="1" style="stop-color:#D1D2D1"/>
	</linearGradient>
	<polygon class="st3" points="354.1,-100.4 208.3,-62 235,-51.6 	"/>
	<polygon class="st4" points="305.8,5.5 296.8,-1.1 370.9,-32.9 	"/>
	<polygon class="st5" points="296.8,-1.1 294.7,-10.2 363.6,-62.3 	"/>
	
		<linearGradient id="SVGID_5_" gradientUnits="userSpaceOnUse" x1="1877.0227" y1="-185.0121" x2="1971.9922" y2="-185.0121" gradientTransform="matrix(0.7071 -0.7071 0.7071 0.7071 -910.2749 1452.6466)">
		<stop  offset="0" style="stop-color:#F4F4F5"/>
		<stop  offset="1" style="stop-color:#D9D9DA"/>
	</linearGradient>
	<polygon class="st6" points="294.7,-10.2 275.8,-15.7 363.6,-62.3 	"/>
	
		<linearGradient id="SVGID_6_" gradientUnits="userSpaceOnUse" x1="1918.5317" y1="-267.5799" x2="1992.2301" y2="-267.5799" gradientTransform="matrix(0.7071 -0.7071 0.7071 0.7071 -910.2749 1452.6466)">
		<stop  offset="0" style="stop-color:#D1D2D1"/>
		<stop  offset="1" style="stop-color:#DEDFDE"/>
	</linearGradient>
	<polygon class="st7" points="354.1,-100.4 236.2,-150.3 212.2,-138 	"/>
	
		<linearGradient id="SVGID_7_" gradientUnits="userSpaceOnUse" x1="1912.1569" y1="-267.5799" x2="1992.2301" y2="-267.5799" gradientTransform="matrix(0.7071 -0.7071 0.7071 0.7071 -910.2749 1452.6466)">
		<stop  offset="0" style="stop-color:#C3C3C2"/>
		<stop  offset="1" style="stop-color:#D1D2D1"/>
	</linearGradient>
	<polygon class="st8" points="354.1,-100.4 212.2,-138 225,-116.2 	"/>
	
		<linearGradient id="SVGID_8_" gradientUnits="userSpaceOnUse" x1="1885.6465" y1="-256.1133" x2="1992.2301" y2="-256.1133" gradientTransform="matrix(0.7071 -0.7071 0.7071 0.7071 -910.2749 1452.6466)">
		<stop  offset="0" style="stop-color:#D1D2D1"/>
		<stop  offset="1" style="stop-color:#DEDFDE"/>
	</linearGradient>
	<polygon class="st9" points="354.1,-100.4 225,-116.2 205.2,-98.6 	"/>
	
		<linearGradient id="SVGID_9_" gradientUnits="userSpaceOnUse" x1="1885.6465" y1="-256.1133" x2="1992.2301" y2="-256.1133" gradientTransform="matrix(0.7071 -0.7071 0.7071 0.7071 -910.2749 1452.6466)">
		<stop  offset="0" style="stop-color:#C3C3C2"/>
		<stop  offset="1" style="stop-color:#D1D2D1"/>
	</linearGradient>
	<polygon class="st10" points="354.1,-100.4 205.2,-98.6 224.9,-83.6 	"/>
	
		<linearGradient id="SVGID_10_" gradientUnits="userSpaceOnUse" x1="1861.9641" y1="-243.8578" x2="1992.2301" y2="-243.8578" gradientTransform="matrix(0.7071 -0.7071 0.7071 0.7071 -910.2749 1452.6466)">
		<stop  offset="0" style="stop-color:#D1D2D1"/>
		<stop  offset="1" style="stop-color:#DEDFDE"/>
	</linearGradient>
	<polygon class="st11" points="354.1,-100.4 224.9,-83.6 208.3,-62 	"/>
	
		<linearGradient id="SVGID_11_" gradientUnits="userSpaceOnUse" x1="1862.7208" y1="-228.9889" x2="1992.2301" y2="-228.9889" gradientTransform="matrix(0.7071 -0.7071 0.7071 0.7071 -910.2749 1452.6466)">
		<stop  offset="0" style="stop-color:#D1D2D1"/>
		<stop  offset="1" style="stop-color:#DEDFDE"/>
	</linearGradient>
	<polygon class="st12" points="354.1,-100.4 235,-51.6 239.6,-31.7 	"/>
	
		<linearGradient id="SVGID_12_" gradientUnits="userSpaceOnUse" x1="1862.7208" y1="-220.2961" x2="1992.2301" y2="-220.2961" gradientTransform="matrix(0.7071 -0.7071 0.7071 0.7071 -910.2749 1452.6466)">
		<stop  offset="0" style="stop-color:#C3C3C2"/>
		<stop  offset="1" style="stop-color:#D1D2D1"/>
	</linearGradient>
	<polygon class="st13" points="354.1,-100.4 239.6,-31.7 272.3,-30.9 	"/>
	
		<linearGradient id="SVGID_13_" gradientUnits="userSpaceOnUse" x1="1956.5848" y1="-277.7745" x2="1999.9987" y2="-277.7745" gradientTransform="matrix(0.7071 -0.7071 0.7071 0.7071 -910.2749 1452.6466)">
		<stop  offset="0" style="stop-color:#F4F4F5"/>
		<stop  offset="1" style="stop-color:#E2E3E3"/>
	</linearGradient>
	<polygon class="st14" points="359,-106.5 224.7,-179.4 354.1,-100.4 	"/>
	<polygon class="st5" points="370.9,-32.9 308.4,16.4 305.8,5.5 	"/>
	
		<linearGradient id="SVGID_14_" gradientUnits="userSpaceOnUse" x1="1877.0227" y1="-187.2661" x2="1992.2301" y2="-187.2661" gradientTransform="matrix(0.7071 -0.7071 0.7071 0.7071 -910.2749 1452.6466)">
		<stop  offset="0" style="stop-color:#F4F4F5"/>
		<stop  offset="1" style="stop-color:#E2E3E3"/>
	</linearGradient>
	<polygon class="st15" points="363.6,-62.3 354.1,-100.4 275.8,-15.7 	"/>
	
		<linearGradient id="SVGID_15_" gradientUnits="userSpaceOnUse" x1="1991.1599" y1="-114.2244" x2="1970.5112" y2="-169.928" gradientTransform="matrix(0.7071 -0.7071 0.7071 0.7071 -910.2749 1452.6466)">
		<stop  offset="0" style="stop-color:#A4A4A4"/>
		<stop  offset="1" style="stop-color:#C7C7C7"/>
	</linearGradient>
	<polygon class="st16" points="359,-106.5 398.8,-0.6 400,-9.8 	"/>
	
		<linearGradient id="SVGID_16_" gradientUnits="userSpaceOnUse" x1="1877.2921" y1="-135.5265" x2="1956.3973" y2="-135.5265" gradientTransform="matrix(0.7071 -0.7071 0.7071 0.7071 -910.2749 1452.6466)">
		<stop  offset="0" style="stop-color:#F4F4F5"/>
		<stop  offset="1" style="stop-color:#E2E3E3"/>
	</linearGradient>
	<polygon class="st17" points="370.9,-32.9 378.6,-1.9 308.4,16.4 	"/>
	
		<linearGradient id="SVGID_17_" gradientUnits="userSpaceOnUse" x1="1881.5477" y1="-159.4848" x2="1971.9922" y2="-159.4848" gradientTransform="matrix(0.7071 -0.7071 0.7071 0.7071 -910.2749 1452.6466)">
		<stop  offset="0" style="stop-color:#F4F4F5"/>
		<stop  offset="1" style="stop-color:#E2E3E3"/>
	</linearGradient>
	<polygon class="st18" points="370.9,-32.9 296.8,-1.1 363.6,-62.3 	"/>
	<polygon class="st19" points="624.2,-178 521.2,-117.4 513.7,-88.4 	"/>
	
		<linearGradient id="SVGID_18_" gradientUnits="userSpaceOnUse" x1="2099.6638" y1="-116.6078" x2="2111.5173" y2="-85.1705" gradientTransform="matrix(0.7071 -0.7071 0.7071 0.7071 -910.2749 1452.6466)">
		<stop  offset="0" style="stop-color:#E8E8E9"/>
		<stop  offset="1" style="stop-color:#D1D2D1"/>
	</linearGradient>
	<polygon class="st20" points="521.2,-117.4 488.8,-106.9 513.7,-88.4 	"/>
	
		<linearGradient id="SVGID_19_" gradientUnits="userSpaceOnUse" x1="2095.0994" y1="-101.2957" x2="1996.4216" y2="-70.9874" gradientTransform="matrix(0.7071 -0.7071 0.7071 0.7071 -910.2749 1452.6466)">
		<stop  offset="0" style="stop-color:#F0F0F0"/>
		<stop  offset="1" style="stop-color:#DCDCDD"/>
	</linearGradient>
	<polygon class="st21" points="488.8,-106.9 445,-36.2 439.9,-13.2 513.7,-88.4 	"/>
	
		<linearGradient id="SVGID_20_" gradientUnits="userSpaceOnUse" x1="2097.1501" y1="-75.4387" x2="2237.1187" y2="-75.4387" gradientTransform="matrix(0.7071 -0.7071 0.7071 0.7071 -910.2749 1452.6466)">
		<stop  offset="0" style="stop-color:#9A9A99"/>
		<stop  offset="1" style="stop-color:#C4C5C4"/>
	</linearGradient>
	<polygon class="st22" points="624.2,-178 526.5,-87.3 513.7,-88.4 	"/>
	
		<linearGradient id="SVGID_21_" gradientUnits="userSpaceOnUse" x1="2047.5393" y1="-83.1188" x2="2049.2158" y2="-65.3953" gradientTransform="matrix(0.7071 -0.7071 0.7071 0.7071 -910.2749 1452.6466)">
		<stop  offset="0" style="stop-color:#9C9D9C"/>
		<stop  offset="1" style="stop-color:#B8B8B8"/>
	</linearGradient>
	<polygon class="st23" points="526.5,-87.3 479.5,-26.9 439.9,-13.2 513.7,-88.4 	"/>
	
		<linearGradient id="SVGID_22_" gradientUnits="userSpaceOnUse" x1="1937.675" y1="-121.0337" x2="1975.0757" y2="-79.2326" gradientTransform="matrix(0.7071 -0.7071 0.7071 0.7071 -910.2749 1452.6466)">
		<stop  offset="0" style="stop-color:#F4F4F5"/>
		<stop  offset="1" style="stop-color:#DADBDA"/>
	</linearGradient>
	<polygon class="st24" points="373.8,-6.5 379.9,5.7 430.1,-3.4 400.9,-10 	"/>
	
		<linearGradient id="SVGID_23_" gradientUnits="userSpaceOnUse" x1="1942.3994" y1="-125.7617" x2="1960.2429" y2="-105.8187" gradientTransform="matrix(0.7071 -0.7071 0.7071 0.7071 -910.2749 1452.6466)">
		<stop  offset="5.494510e-03" style="stop-color:#F4F4F5"/>
		<stop  offset="1" style="stop-color:#FAFAFB"/>
	</linearGradient>
	<polygon class="st25" points="373.8,-6.5 383.4,-12.5 400.9,-10 	"/>
	
		<linearGradient id="SVGID_24_" gradientUnits="userSpaceOnUse" x1="1794.5886" y1="-81.0268" x2="1932.8796" y2="-117.9827" gradientTransform="matrix(0.7071 -0.7071 0.7071 0.7071 -910.2749 1452.6466)">
		<stop  offset="0" style="stop-color:#EBECEC"/>
		<stop  offset="0.5032" style="stop-color:#E7E8E9"/>
		<stop  offset="0.9625" style="stop-color:#DEDEDE"/>
		<stop  offset="1" style="stop-color:#DCDCDD"/>
	</linearGradient>
	<polygon class="st26" points="306.9,130.3 355.8,17.2 379.9,5.7 	"/>
	
		<linearGradient id="SVGID_25_" gradientUnits="userSpaceOnUse" x1="1872.5024" y1="-110.6055" x2="1895.0555" y2="-58.4515" gradientTransform="matrix(0.7071 -0.7071 0.7071 0.7071 -910.2749 1452.6466)">
		<stop  offset="0" style="stop-color:#F4F4F5"/>
		<stop  offset="1" style="stop-color:#D9D9DA"/>
	</linearGradient>
	<polygon class="st27" points="306.9,130.3 341.9,114.3 430.1,-3.4 379.9,5.7 	"/>
	
		<linearGradient id="SVGID_26_" gradientUnits="userSpaceOnUse" x1="1827.7657" y1="-28.1376" x2="1829.809" y2="-40.7684" gradientTransform="matrix(0.7071 -0.7071 0.7071 0.7071 -910.2749 1452.6466)">
		<stop  offset="0" style="stop-color:#ACAEAC"/>
		<stop  offset="1" style="stop-color:#919292"/>
	</linearGradient>
	<polygon class="st28" points="391.8,101.6 354.5,145.5 319.2,160.3 	"/>
	
		<linearGradient id="SVGID_27_" gradientUnits="userSpaceOnUse" x1="1912.402" y1="-276.0212" x2="1908.3295" y2="-117.1916" gradientTransform="matrix(0.7071 -0.7071 0.7071 0.7071 -910.2749 1452.6466)">
		<stop  offset="0" style="stop-color:#CECDCD"/>
		<stop  offset="0.3254" style="stop-color:#C8C8C8"/>
		<stop  offset="0.7769" style="stop-color:#B9B9B9"/>
		<stop  offset="1" style="stop-color:#AEAFAF"/>
	</linearGradient>
	<polygon class="st29" points="247.4,-99.8 247.4,-99.8 246.8,-89.1 355.8,17.2 	"/>
	
		<linearGradient id="SVGID_28_" gradientUnits="userSpaceOnUse" x1="1883.4165" y1="-362.6527" x2="1784.7239" y2="-338.861" gradientTransform="matrix(0.7071 -0.7071 0.7071 0.7071 -910.2749 1452.6466)">
		<stop  offset="0" style="stop-color:#E8E8E9"/>
		<stop  offset="1" style="stop-color:#D1D2D1"/>
	</linearGradient>
	<polygon class="st30" points="246.9,-89.1 34.6,-102.5 71.6,-73.8 	"/>
	<polygon class="st4" points="299.9,91 355.8,17.2 291.1,86 	"/>
	
		<linearGradient id="SVGID_29_" gradientUnits="userSpaceOnUse" x1="1784.1586" y1="-223.4306" x2="1908.3833" y2="-223.4306" gradientTransform="matrix(0.7071 -0.7071 0.7071 0.7071 -910.2749 1452.6466)">
		<stop  offset="0" style="stop-color:#F4F4F5"/>
		<stop  offset="1" style="stop-color:#E2E3E3"/>
	</linearGradient>
	<polygon class="st31" points="246.9,-89.1 211.1,50.8 227.6,67.4 	"/>
	
		<linearGradient id="SVGID_30_" gradientUnits="userSpaceOnUse" x1="1898.3384" y1="-289.9512" x2="1716.7177" y2="-246.1681" gradientTransform="matrix(0.7071 -0.7071 0.7071 0.7071 -910.2749 1452.6466)">
		<stop  offset="0" style="stop-color:#E8E8E9"/>
		<stop  offset="1" style="stop-color:#D1D2D1"/>
	</linearGradient>
	<polygon class="st32" points="246.9,-89.1 112.7,54.2 151.5,49.5 	"/>
	
		<linearGradient id="SVGID_31_" gradientUnits="userSpaceOnUse" x1="1907.6135" y1="-163.3123" x2="1808.0454" y2="-139.3095" gradientTransform="matrix(0.7071 -0.7071 0.7071 0.7071 -910.2749 1452.6466)">
		<stop  offset="0" style="stop-color:#E8E8E9"/>
		<stop  offset="1" style="stop-color:#D1D2D1"/>
	</linearGradient>
	<polygon class="st33" points="279.2,74.1 263.5,71.8 321.5,-16.2 	"/>
	
		<linearGradient id="SVGID_32_" gradientUnits="userSpaceOnUse" x1="1806.4446" y1="-179.714" x2="1909.1337" y2="-179.714" gradientTransform="matrix(0.7071 -0.7071 0.7071 0.7071 -910.2749 1452.6466)">
		<stop  offset="0" style="stop-color:#F4F4F5"/>
		<stop  offset="1" style="stop-color:#E2E3E3"/>
	</linearGradient>
	<polygon class="st34" points="263.5,71.8 253.7,61.9 289.1,-47.9 	"/>
	
		<linearGradient id="SVGID_33_" gradientUnits="userSpaceOnUse" x1="1908.6506" y1="-198.9543" x2="1785.3915" y2="-169.2405" gradientTransform="matrix(0.7071 -0.7071 0.7071 0.7071 -910.2749 1452.6466)">
		<stop  offset="0" style="stop-color:#E8E8E9"/>
		<stop  offset="1" style="stop-color:#D1D2D1"/>
	</linearGradient>
	<polygon class="st35" points="253.7,61.9 227.6,67.4 289.1,-47.9 	"/>
	<polygon class="st19" points="246.9,-89.1 71.6,-73.8 54.5,-42.9 	"/>
	
		<linearGradient id="SVGID_34_" gradientUnits="userSpaceOnUse" x1="1888.0507" y1="-339.0828" x2="1755.9885" y2="-307.2468" gradientTransform="matrix(0.7071 -0.7071 0.7071 0.7071 -910.2749 1452.6466)">
		<stop  offset="0" style="stop-color:#E8E8E9"/>
		<stop  offset="1" style="stop-color:#D1D2D1"/>
	</linearGradient>
	<polygon class="st36" points="246.9,-89.1 54.5,-42.9 87,-24.2 	"/>
	<polygon class="st19" points="246.9,-89.1 87,-24.2 79,10.7 	"/>
	
		<linearGradient id="SVGID_35_" gradientUnits="userSpaceOnUse" x1="1892.8575" y1="-315.083" x2="1729.6296" y2="-275.7339" gradientTransform="matrix(0.7071 -0.7071 0.7071 0.7071 -910.2749 1452.6466)">
		<stop  offset="0" style="stop-color:#E8E8E9"/>
		<stop  offset="1" style="stop-color:#D1D2D1"/>
	</linearGradient>
	<polygon class="st37" points="246.9,-89.1 79,10.7 113.7,16.3 	"/>
	<polygon class="st19" points="246.9,-89.1 113.7,16.3 112.7,54.2 	"/>
	<polygon class="st19" points="246.9,-89.1 151.5,49.5 173.3,71.2 	"/>
	
		<linearGradient id="SVGID_36_" gradientUnits="userSpaceOnUse" x1="1908.4458" y1="-250.1185" x2="1742.9053" y2="-210.2119" gradientTransform="matrix(0.7071 -0.7071 0.7071 0.7071 -910.2749 1452.6466)">
		<stop  offset="0" style="stop-color:#E8E8E9"/>
		<stop  offset="1" style="stop-color:#D1D2D1"/>
	</linearGradient>
	<polygon class="st38" points="246.9,-89.1 173.3,71.2 211.1,50.8 	"/>
	
		<linearGradient id="SVGID_37_" gradientUnits="userSpaceOnUse" x1="1817.0793" y1="-101.2739" x2="1910.2885" y2="-101.2739" gradientTransform="matrix(0.7071 -0.7071 0.7071 0.7071 -910.2749 1452.6466)">
		<stop  offset="0" style="stop-color:#F4F4F5"/>
		<stop  offset="1" style="stop-color:#F7F8F9"/>
	</linearGradient>
	<polygon class="st39" points="299.9,91 316,109.2 355.8,17.2 	"/>
	
		<linearGradient id="SVGID_38_" gradientUnits="userSpaceOnUse" x1="1767.7623" y1="-351.7218" x2="1916.3967" y2="-351.7218" gradientTransform="matrix(0.7071 -0.7071 0.7071 0.7071 -910.2749 1452.6466)">
		<stop  offset="0" style="stop-color:#CECDCD"/>
		<stop  offset="0.7045" style="stop-color:#C8C8C8"/>
		<stop  offset="1" style="stop-color:#C4C5C4"/>
	</linearGradient>
	<polygon class="st40" points="247.4,-99.8 34.6,-102.5 246.9,-89.1 	"/>
	
		<linearGradient id="SVGID_39_" gradientUnits="userSpaceOnUse" x1="1815.8589" y1="-142.2484" x2="1909.6964" y2="-142.2484" gradientTransform="matrix(0.7071 -0.7071 0.7071 0.7071 -910.2749 1452.6466)">
		<stop  offset="0" style="stop-color:#F4F4F5"/>
		<stop  offset="1" style="stop-color:#E2E3E3"/>
	</linearGradient>
	<polygon class="st41" points="321.5,-16.2 291.1,86 279.2,74.1 	"/>
	<polygon class="st19" points="289.1,-47.9 246.9,-89.1 227.6,67.4 	"/>
	
		<linearGradient id="SVGID_40_" gradientUnits="userSpaceOnUse" x1="1986.2823" y1="-100.8352" x2="1984.618" y2="-82.5325" gradientTransform="matrix(0.7071 -0.7071 0.7071 0.7071 -910.2749 1452.6466)">
		<stop  offset="0" style="stop-color:#DEDFDE"/>
		<stop  offset="1" style="stop-color:#C3C3C2"/>
	</linearGradient>
	<polygon class="st42" points="445,-36.2 400.9,-10 430.1,-3.4 439.9,-13.2 	"/>
	
		<linearGradient id="SVGID_41_" gradientUnits="userSpaceOnUse" x1="2003.8893" y1="-78.7134" x2="2002.3229" y2="-65.5579" gradientTransform="matrix(0.7071 -0.7071 0.7071 0.7071 -910.2749 1452.6466)">
		<stop  offset="0" style="stop-color:#90918F"/>
		<stop  offset="1" style="stop-color:#989898"/>
	</linearGradient>
	<polygon class="st43" points="439.8,6.3 479.5,-26.9 439.9,-13.2 430.1,-3.4 	"/>
	
		<linearGradient id="SVGID_42_" gradientUnits="userSpaceOnUse" x1="1893.7321" y1="-106.249" x2="1862.7583" y2="-61.1267" gradientTransform="matrix(0.7071 -0.7071 0.7071 0.7071 -910.2749 1452.6466)">
		<stop  offset="0" style="stop-color:#9A9A99"/>
		<stop  offset="1" style="stop-color:#B8B8B8"/>
	</linearGradient>
	<polygon class="st44" points="288.7,185 426.3,73.7 439.8,6.3 	"/>
	
		<linearGradient id="SVGID_43_" gradientUnits="userSpaceOnUse" x1="1899.4417" y1="-114.5666" x2="1866.1047" y2="-66.0018" gradientTransform="matrix(0.7071 -0.7071 0.7071 0.7071 -910.2749 1452.6466)">
		<stop  offset="0" style="stop-color:#878887"/>
		<stop  offset="0.989" style="stop-color:#A4A4A4"/>
	</linearGradient>
	<polygon class="st45" points="288.7,185 430.1,-3.4 439.8,6.3 	"/>
	<polygon class="st46" points="247.4,-99.8 379.9,5.7 373.8,-6.5 	"/>
	
		<linearGradient id="SVGID_44_" gradientUnits="userSpaceOnUse" x1="1744.1919" y1="-57.4445" x2="1831.8304" y2="-57.4445" gradientTransform="matrix(0.7071 -0.7071 0.7071 0.7071 -910.2749 1452.6466)">
		<stop  offset="0" style="stop-color:#F4F4F5"/>
		<stop  offset="1" style="stop-color:#F7F8F9"/>
	</linearGradient>
	<polygon class="st47" points="341.9,114.3 288.7,185 327.8,120.7 	"/>
	
		<linearGradient id="SVGID_45_" gradientUnits="userSpaceOnUse" x1="1692.6377" y1="-72.3877" x2="1806.4457" y2="-72.3877" gradientTransform="matrix(0.7071 -0.7071 0.7071 0.7071 -910.2749 1452.6466)">
		<stop  offset="0" style="stop-color:#F4F4F5"/>
		<stop  offset="1" style="stop-color:#F7F8F9"/>
	</linearGradient>
	<polygon class="st48" points="317.3,125.5 234,203.2 306.9,130.3 	"/>
	
		<linearGradient id="SVGID_46_" gradientUnits="userSpaceOnUse" x1="1720.9032" y1="-65.669" x2="1817.2352" y2="-65.669" gradientTransform="matrix(0.7071 -0.7071 0.7071 0.7071 -910.2749 1452.6466)">
		<stop  offset="0" style="stop-color:#F4F4F5"/>
		<stop  offset="1" style="stop-color:#F7F8F9"/>
	</linearGradient>
	<polygon class="st49" points="327.8,120.7 263.5,192.7 317.3,125.5 	"/>
	<polygon class="st19" points="321.5,-16.2 355.8,17.2 291.1,86 	"/>
	<polygon class="st19" points="321.5,-16.2 263.5,71.8 289.1,-47.9 	"/>
	
		<linearGradient id="SVGID_47_" gradientUnits="userSpaceOnUse" x1="1882.0464" y1="-271.8077" x2="1937.9553" y2="-142.5183" gradientTransform="matrix(0.7071 -0.7071 0.7071 0.7071 -910.2749 1452.6466)">
		<stop  offset="0" style="stop-color:#E5E7E8"/>
		<stop  offset="0.4624" style="stop-color:#E0E1E2"/>
		<stop  offset="1" style="stop-color:#D3D4D4"/>
	</linearGradient>
	<polygon class="st50" points="379.9,5.7 355.8,17.2 247.4,-99.8 	"/>
	
		<linearGradient id="SVGID_48_" gradientUnits="userSpaceOnUse" x1="1812.6819" y1="-73.5809" x2="1722.9679" y2="-51.9538" gradientTransform="matrix(0.7071 -0.7071 0.7071 0.7071 -910.2749 1452.6466)">
		<stop  offset="0" style="stop-color:#E8E8E9"/>
		<stop  offset="1" style="stop-color:#AEAFAF"/>
	</linearGradient>
	<polygon class="st51" points="288.7,185 282.3,197.2 263.5,192.7 327.8,120.7 	"/>
	
		<linearGradient id="SVGID_49_" gradientUnits="userSpaceOnUse" x1="1799.7893" y1="-84.5006" x2="1696.1052" y2="-59.5056" gradientTransform="matrix(0.7071 -0.7071 0.7071 0.7071 -910.2749 1452.6466)">
		<stop  offset="0" style="stop-color:#E8E8E9"/>
		<stop  offset="1" style="stop-color:#BCBCBC"/>
	</linearGradient>
	<polygon class="st52" points="317.3,125.5 234,203.2 249.9,211.2 263.5,192.7 	"/>
	
		<linearGradient id="SVGID_50_" gradientUnits="userSpaceOnUse" x1="1960.8191" y1="-129.2188" x2="2000.6865" y2="-84.6608" gradientTransform="matrix(0.7071 -0.7071 0.7071 0.7071 -910.2749 1452.6466)">
		<stop  offset="5.494510e-03" style="stop-color:#F4F4F5"/>
		<stop  offset="1" style="stop-color:#FAFAFB"/>
	</linearGradient>
	<polygon class="st53" points="383.4,-12.5 445,-36.2 400.9,-10 	"/>
	
		<linearGradient id="SVGID_51_" gradientUnits="userSpaceOnUse" x1="1985.3929" y1="-66.5199" x2="1922.8385" y2="-28.7962" gradientTransform="matrix(0.7071 -0.7071 0.7071 0.7071 -910.2749 1452.6466)">
		<stop  offset="5.494510e-03" style="stop-color:#787879"/>
		<stop  offset="0.9615" style="stop-color:#90918F"/>
		<stop  offset="0.989" style="stop-color:#8A8A89"/>
	</linearGradient>
	<polygon class="st54" points="426.3,73.7 439.8,6.3 453.9,-5.5 	"/>
	<polygon class="st46" points="521.2,-117.4 520.3,-113.8 488.8,-106.9 	"/>
	<polygon class="st46" points="520.3,-113.8 624.2,-178 521.2,-117.4 	"/>
	<polygon class="st46" points="247.4,-99.8 247.3,-96.6 34.6,-102.5 	"/>
</g>
<g>
</g>
<g>
</g>
<g>
</g>
<g>
</g>
<g>
</g>
<g>
</g>
</svg>
