<?xml version="1.0" encoding="utf-8"?>
<!-- Generator: Adobe Illustrator 17.0.0, SVG Export Plug-In . SVG Version: 6.00 Build 0)  -->
<!DOCTYPE svg PUBLIC "-//W3C//DTD SVG 1.0//EN" "http://www.w3.org/TR/2001/REC-SVG-20010904/DTD/svg10.dtd">
<svg version="1.0" id="l7" xmlns="http://www.w3.org/2000/svg" xmlns:xlink="http://www.w3.org/1999/xlink" x="0px" y="0px"
	 width="1486.8px" height="1189.4px" viewBox="0 0 1486.8 1189.4" style="enable-background:new 0 0 1486.8 1189.4;"
	 xml:space="preserve">
<style type="text/css">
	.st0{fill:url(#SVGID_1_);}
	.st1{fill:url(#SVGID_2_);}
	.st2{fill:url(#SVGID_3_);}
	.st3{fill:url(#SVGID_4_);}
	.st4{fill:#DADBDA;}
	.st5{fill:#EEEEEF;}
	.st6{fill:url(#SVGID_5_);}
	.st7{fill:url(#SVGID_6_);}
	.st8{fill:url(#SVGID_7_);}
	.st9{fill:url(#SVGID_8_);}
	.st10{fill:url(#SVGID_9_);}
	.st11{fill:url(#SVGID_10_);}
	.st12{fill:url(#SVGID_11_);}
	.st13{fill:url(#SVGID_12_);}
	.st14{fill:url(#SVGID_13_);}
	.st15{fill:url(#SVGID_14_);}
	.st16{fill:url(#SVGID_15_);}
	.st17{fill:url(#SVGID_16_);}
	.st18{fill:url(#SVGID_17_);}
	.st19{fill:#F7F8F9;}
	.st20{fill:url(#SVGID_18_);}
	.st21{fill:url(#SVGID_19_);}
	.st22{fill:url(#SVGID_20_);}
	.st23{fill:url(#SVGID_21_);}
	.st24{fill:url(#SVGID_22_);}
	.st25{fill:url(#SVGID_23_);}
	.st26{fill:url(#SVGID_24_);}
	.st27{fill:url(#SVGID_25_);}
	.st28{fill:url(#SVGID_26_);}
	.st29{fill:url(#SVGID_27_);}
	.st30{fill:url(#SVGID_28_);}
	.st31{fill:url(#SVGID_29_);}
	.st32{fill:url(#SVGID_30_);}
	.st33{fill:url(#SVGID_31_);}
	.st34{fill:url(#SVGID_32_);}
	.st35{fill:url(#SVGID_33_);}
	.st36{fill:url(#SVGID_34_);}
	.st37{fill:url(#SVGID_35_);}
	.st38{fill:url(#SVGID_36_);}
	.st39{fill:url(#SVGID_37_);}
	.st40{fill:url(#SVGID_38_);}
	.st41{fill:url(#SVGID_39_);}
	.st42{fill:url(#SVGID_40_);}
	.st43{fill:url(#SVGID_41_);}
	.st44{fill:url(#SVGID_42_);}
	.st45{fill:url(#SVGID_43_);}
	.st46{fill:#FFFFFF;}
	.st47{fill:url(#SVGID_44_);}
	.st48{fill:url(#SVGID_45_);}
	.st49{fill:url(#SVGID_46_);}
	.st50{fill:url(#SVGID_47_);}
	.st51{fill:url(#SVGID_48_);}
	.st52{fill:url(#SVGID_49_);}
	.st53{fill:url(#SVGID_50_);}
	.st54{fill:url(#SVGID_51_);}
</style>
<g>
	
		<linearGradient id="SVGID_1_" gradientUnits="userSpaceOnUse" x1="949.8126" y1="415.0271" x2="978.6191" y2="481.6423" gradientTransform="matrix(0.7071 -0.7071 0.7071 0.7071 -910.2749 1452.6466)">
		<stop  offset="0" style="stop-color:#D9D9DA"/>
		<stop  offset="0.803" style="stop-color:#D3D4D3"/>
		<stop  offset="1" style="stop-color:#D1D2D1"/>
	</linearGradient>
	<polygon class="st0" points="120.5,1145 78.1,1032.1 72.9,1038.6 99,1143.6 	"/>
	
		<linearGradient id="SVGID_2_" gradientUnits="userSpaceOnUse" x1="936.6721" y1="323.8807" x2="987.9564" y2="323.8807" gradientTransform="matrix(0.7071 -0.7071 0.7071 0.7071 -910.2749 1452.6466)">
		<stop  offset="0" style="stop-color:#C3C3C2"/>
		<stop  offset="1" style="stop-color:#D1D2D1"/>
	</linearGradient>
	<polygon class="st1" points="72.9,1038.6 -65.1,954.4 -52.9,985.4 	"/>
	
		<linearGradient id="SVGID_3_" gradientUnits="userSpaceOnUse" x1="865.1199" y1="400.1815" x2="987.9564" y2="400.1815" gradientTransform="matrix(0.7071 -0.7071 0.7071 0.7071 -910.2749 1452.6466)">
		<stop  offset="0" style="stop-color:#D1D2D1"/>
		<stop  offset="1" style="stop-color:#DEDFDE"/>
	</linearGradient>
	<polygon class="st2" points="72.9,1038.6 -14.4,1112.7 -10.6,1128.9 	"/>
	
		<linearGradient id="SVGID_4_" gradientUnits="userSpaceOnUse" x1="849.0642" y1="361.929" x2="987.9851" y2="361.929" gradientTransform="matrix(0.7071 -0.7071 0.7071 0.7071 -910.2749 1452.6466)">
		<stop  offset="0" style="stop-color:#C3C3C2"/>
		<stop  offset="1" style="stop-color:#D1D2D1"/>
	</linearGradient>
	<polygon class="st3" points="72.9,1038.6 -82.6,1079.6 -54.2,1090.6 	"/>
	<polygon class="st4" points="21.4,1151.5 11.8,1144.4 90.8,1110.5 	"/>
	<polygon class="st5" points="11.8,1144.4 9.5,1134.8 83,1079.3 	"/>
	
		<linearGradient id="SVGID_5_" gradientUnits="userSpaceOnUse" x1="865.1199" y1="422.7858" x2="966.3784" y2="422.7858" gradientTransform="matrix(0.7071 -0.7071 0.7071 0.7071 -910.2749 1452.6466)">
		<stop  offset="0" style="stop-color:#F4F4F5"/>
		<stop  offset="1" style="stop-color:#D9D9DA"/>
	</linearGradient>
	<polygon class="st6" points="9.5,1134.8 -10.6,1128.9 83,1079.3 	"/>
	
		<linearGradient id="SVGID_6_" gradientUnits="userSpaceOnUse" x1="909.3777" y1="334.7503" x2="987.9564" y2="334.7503" gradientTransform="matrix(0.7071 -0.7071 0.7071 0.7071 -910.2749 1452.6466)">
		<stop  offset="0" style="stop-color:#D1D2D1"/>
		<stop  offset="1" style="stop-color:#DEDFDE"/>
	</linearGradient>
	<polygon class="st7" points="72.9,1038.6 -52.9,985.4 -78.4,998.5 	"/>
	
		<linearGradient id="SVGID_7_" gradientUnits="userSpaceOnUse" x1="902.5807" y1="334.7503" x2="987.9564" y2="334.7503" gradientTransform="matrix(0.7071 -0.7071 0.7071 0.7071 -910.2749 1452.6466)">
		<stop  offset="0" style="stop-color:#C3C3C2"/>
		<stop  offset="1" style="stop-color:#D1D2D1"/>
	</linearGradient>
	<polygon class="st8" points="72.9,1038.6 -78.4,998.5 -64.8,1021.7 	"/>
	
		<linearGradient id="SVGID_8_" gradientUnits="userSpaceOnUse" x1="874.3148" y1="346.9763" x2="987.9564" y2="346.9763" gradientTransform="matrix(0.7071 -0.7071 0.7071 0.7071 -910.2749 1452.6466)">
		<stop  offset="0" style="stop-color:#D1D2D1"/>
		<stop  offset="1" style="stop-color:#DEDFDE"/>
	</linearGradient>
	<polygon class="st9" points="72.9,1038.6 -64.8,1021.7 -85.9,1040.5 	"/>
	
		<linearGradient id="SVGID_9_" gradientUnits="userSpaceOnUse" x1="874.3148" y1="346.9763" x2="987.9564" y2="346.9763" gradientTransform="matrix(0.7071 -0.7071 0.7071 0.7071 -910.2749 1452.6466)">
		<stop  offset="0" style="stop-color:#C3C3C2"/>
		<stop  offset="1" style="stop-color:#D1D2D1"/>
	</linearGradient>
	<polygon class="st10" points="72.9,1038.6 -85.9,1040.5 -64.9,1056.5 	"/>
	
		<linearGradient id="SVGID_10_" gradientUnits="userSpaceOnUse" x1="849.0642" y1="360.0433" x2="987.9564" y2="360.0433" gradientTransform="matrix(0.7071 -0.7071 0.7071 0.7071 -910.2749 1452.6466)">
		<stop  offset="0" style="stop-color:#D1D2D1"/>
		<stop  offset="1" style="stop-color:#DEDFDE"/>
	</linearGradient>
	<polygon class="st11" points="72.9,1038.6 -64.9,1056.5 -82.6,1079.6 	"/>
	
		<linearGradient id="SVGID_11_" gradientUnits="userSpaceOnUse" x1="849.8711" y1="375.8969" x2="987.9564" y2="375.8969" gradientTransform="matrix(0.7071 -0.7071 0.7071 0.7071 -910.2749 1452.6466)">
		<stop  offset="0" style="stop-color:#D1D2D1"/>
		<stop  offset="1" style="stop-color:#DEDFDE"/>
	</linearGradient>
	<polygon class="st12" points="72.9,1038.6 -54.2,1090.6 -49.2,1111.8 	"/>
	
		<linearGradient id="SVGID_12_" gradientUnits="userSpaceOnUse" x1="849.8711" y1="385.1653" x2="987.9564" y2="385.1653" gradientTransform="matrix(0.7071 -0.7071 0.7071 0.7071 -910.2749 1452.6466)">
		<stop  offset="0" style="stop-color:#C3C3C2"/>
		<stop  offset="1" style="stop-color:#D1D2D1"/>
	</linearGradient>
	<polygon class="st13" points="72.9,1038.6 -49.2,1111.8 -14.4,1112.7 	"/>
	
		<linearGradient id="SVGID_13_" gradientUnits="userSpaceOnUse" x1="949.9507" y1="323.8807" x2="996.2394" y2="323.8807" gradientTransform="matrix(0.7071 -0.7071 0.7071 0.7071 -910.2749 1452.6466)">
		<stop  offset="0" style="stop-color:#F4F4F5"/>
		<stop  offset="1" style="stop-color:#E2E3E3"/>
	</linearGradient>
	<polygon class="st14" points="78.1,1032.1 -65.1,954.4 72.9,1038.6 	"/>
	<polygon class="st5" points="90.8,1110.5 24.1,1163.1 21.4,1151.5 	"/>
	
		<linearGradient id="SVGID_14_" gradientUnits="userSpaceOnUse" x1="865.1199" y1="420.3825" x2="987.9564" y2="420.3825" gradientTransform="matrix(0.7071 -0.7071 0.7071 0.7071 -910.2749 1452.6466)">
		<stop  offset="0" style="stop-color:#F4F4F5"/>
		<stop  offset="1" style="stop-color:#E2E3E3"/>
	</linearGradient>
	<polygon class="st15" points="83,1079.3 72.9,1038.6 -10.6,1128.9 	"/>
	
		<linearGradient id="SVGID_15_" gradientUnits="userSpaceOnUse" x1="986.8154" y1="498.261" x2="964.7993" y2="438.8687" gradientTransform="matrix(0.7071 -0.7071 0.7071 0.7071 -910.2749 1452.6466)">
		<stop  offset="0" style="stop-color:#A4A4A4"/>
		<stop  offset="1" style="stop-color:#C7C7C7"/>
	</linearGradient>
	<polygon class="st16" points="78.1,1032.1 120.5,1145 121.8,1135.2 	"/>
	
		<linearGradient id="SVGID_16_" gradientUnits="userSpaceOnUse" x1="865.4072" y1="475.5483" x2="949.7508" y2="475.5483" gradientTransform="matrix(0.7071 -0.7071 0.7071 0.7071 -910.2749 1452.6466)">
		<stop  offset="0" style="stop-color:#F4F4F5"/>
		<stop  offset="1" style="stop-color:#E2E3E3"/>
	</linearGradient>
	<polygon class="st17" points="90.8,1110.5 99,1143.6 24.1,1163.1 	"/>
	
		<linearGradient id="SVGID_17_" gradientUnits="userSpaceOnUse" x1="869.9447" y1="450.0035" x2="966.3784" y2="450.0035" gradientTransform="matrix(0.7071 -0.7071 0.7071 0.7071 -910.2749 1452.6466)">
		<stop  offset="0" style="stop-color:#F4F4F5"/>
		<stop  offset="1" style="stop-color:#E2E3E3"/>
	</linearGradient>
	<polygon class="st18" points="90.8,1110.5 11.8,1144.4 83,1079.3 	"/>
	<polygon class="st19" points="360.8,955.8 251,1020.4 243,1051.3 	"/>
	
		<linearGradient id="SVGID_18_" gradientUnits="userSpaceOnUse" x1="1102.5044" y1="495.7198" x2="1115.1428" y2="529.2388" gradientTransform="matrix(0.7071 -0.7071 0.7071 0.7071 -910.2749 1452.6466)">
		<stop  offset="0" style="stop-color:#E8E8E9"/>
		<stop  offset="1" style="stop-color:#D1D2D1"/>
	</linearGradient>
	<polygon class="st20" points="251,1020.4 216.5,1031.7 243,1051.3 	"/>
	
		<linearGradient id="SVGID_19_" gradientUnits="userSpaceOnUse" x1="1097.6376" y1="512.0459" x2="992.4254" y2="544.3611" gradientTransform="matrix(0.7071 -0.7071 0.7071 0.7071 -910.2749 1452.6466)">
		<stop  offset="0" style="stop-color:#F0F0F0"/>
		<stop  offset="1" style="stop-color:#DCDCDD"/>
	</linearGradient>
	<polygon class="st21" points="216.5,1031.7 169.8,1107.1 164.4,1131.6 243,1051.3 	"/>
	
		<linearGradient id="SVGID_20_" gradientUnits="userSpaceOnUse" x1="1099.8242" y1="539.6151" x2="1249.0613" y2="539.6151" gradientTransform="matrix(0.7071 -0.7071 0.7071 0.7071 -910.2749 1452.6466)">
		<stop  offset="0" style="stop-color:#9A9A99"/>
		<stop  offset="1" style="stop-color:#C4C5C4"/>
	</linearGradient>
	<polygon class="st22" points="360.8,955.8 256.7,1052.5 243,1051.3 	"/>
	
		<linearGradient id="SVGID_21_" gradientUnits="userSpaceOnUse" x1="1046.9281" y1="531.4265" x2="1048.7158" y2="550.3236" gradientTransform="matrix(0.7071 -0.7071 0.7071 0.7071 -910.2749 1452.6466)">
		<stop  offset="0" style="stop-color:#9C9D9C"/>
		<stop  offset="1" style="stop-color:#B8B8B8"/>
	</linearGradient>
	<polygon class="st23" points="256.7,1052.5 206.5,1117 164.4,1131.6 243,1051.3 	"/>
	
		<linearGradient id="SVGID_22_" gradientUnits="userSpaceOnUse" x1="929.7888" y1="491.0008" x2="969.666" y2="535.57" gradientTransform="matrix(0.7071 -0.7071 0.7071 0.7071 -910.2749 1452.6466)">
		<stop  offset="0" style="stop-color:#F4F4F5"/>
		<stop  offset="1" style="stop-color:#DADBDA"/>
	</linearGradient>
	<polygon class="st24" points="93.8,1138.7 100.3,1151.7 153.9,1142 122.8,1134.9 	"/>
	
		<linearGradient id="SVGID_23_" gradientUnits="userSpaceOnUse" x1="934.8259" y1="485.9597" x2="953.8511" y2="507.2233" gradientTransform="matrix(0.7071 -0.7071 0.7071 0.7071 -910.2749 1452.6466)">
		<stop  offset="5.494510e-03" style="stop-color:#F4F4F5"/>
		<stop  offset="1" style="stop-color:#FAFAFB"/>
	</linearGradient>
	<polygon class="st25" points="93.8,1138.7 104.1,1132.3 122.8,1134.9 	"/>
	
		<linearGradient id="SVGID_24_" gradientUnits="userSpaceOnUse" x1="777.2272" y1="533.657" x2="924.6757" y2="494.2539" gradientTransform="matrix(0.7071 -0.7071 0.7071 0.7071 -910.2749 1452.6466)">
		<stop  offset="0" style="stop-color:#EBECEC"/>
		<stop  offset="0.5032" style="stop-color:#E7E8E9"/>
		<stop  offset="0.9625" style="stop-color:#DEDEDE"/>
		<stop  offset="1" style="stop-color:#DCDCDD"/>
	</linearGradient>
	<polygon class="st26" points="22.5,1284.6 74.7,1164 100.3,1151.7 	"/>
	
		<linearGradient id="SVGID_25_" gradientUnits="userSpaceOnUse" x1="860.3004" y1="502.1196" x2="884.3469" y2="557.7272" gradientTransform="matrix(0.7071 -0.7071 0.7071 0.7071 -910.2749 1452.6466)">
		<stop  offset="0" style="stop-color:#F4F4F5"/>
		<stop  offset="1" style="stop-color:#D9D9DA"/>
	</linearGradient>
	<polygon class="st27" points="22.5,1284.6 59.9,1267.5 153.9,1142 100.3,1151.7 	"/>
	
		<linearGradient id="SVGID_26_" gradientUnits="userSpaceOnUse" x1="812.6013" y1="590.0485" x2="814.7797" y2="576.5813" gradientTransform="matrix(0.7071 -0.7071 0.7071 0.7071 -910.2749 1452.6466)">
		<stop  offset="0" style="stop-color:#ACAEAC"/>
		<stop  offset="1" style="stop-color:#919292"/>
	</linearGradient>
	<polygon class="st28" points="113,1254 73.3,1300.8 35.7,1316.6 	"/>
	
		<linearGradient id="SVGID_27_" gradientUnits="userSpaceOnUse" x1="902.8421" y1="325.7501" x2="898.4999" y2="495.0974" gradientTransform="matrix(0.7071 -0.7071 0.7071 0.7071 -910.2749 1452.6466)">
		<stop  offset="0" style="stop-color:#CECDCD"/>
		<stop  offset="0.3254" style="stop-color:#C8C8C8"/>
		<stop  offset="0.7769" style="stop-color:#B9B9B9"/>
		<stop  offset="1" style="stop-color:#AEAFAF"/>
	</linearGradient>
	<polygon class="st29" points="-40.9,1039.2 -40.9,1039.2 -41.5,1050.6 74.7,1164 	"/>
	
		<linearGradient id="SVGID_28_" gradientUnits="userSpaceOnUse" x1="871.9373" y1="233.3819" x2="766.7091" y2="258.7491" gradientTransform="matrix(0.7071 -0.7071 0.7071 0.7071 -910.2749 1452.6466)">
		<stop  offset="0" style="stop-color:#E8E8E9"/>
		<stop  offset="1" style="stop-color:#D1D2D1"/>
	</linearGradient>
	<polygon class="st30" points="-41.5,1050.7 -267.8,1036.4 -228.4,1066.9 	"/>
	<polygon class="st4" points="15.1,1242.6 74.7,1164 5.7,1237.4 	"/>
	
		<linearGradient id="SVGID_29_" gradientUnits="userSpaceOnUse" x1="766.1064" y1="381.8232" x2="898.5573" y2="381.8232" gradientTransform="matrix(0.7071 -0.7071 0.7071 0.7071 -910.2749 1452.6466)">
		<stop  offset="0" style="stop-color:#F4F4F5"/>
		<stop  offset="1" style="stop-color:#E2E3E3"/>
	</linearGradient>
	<polygon class="st31" points="-41.5,1050.7 -79.6,1199.9 -62,1217.5 	"/>
	
		<linearGradient id="SVGID_30_" gradientUnits="userSpaceOnUse" x1="887.8472" y1="310.8977" x2="694.1995" y2="357.58" gradientTransform="matrix(0.7071 -0.7071 0.7071 0.7071 -910.2749 1452.6466)">
		<stop  offset="0" style="stop-color:#E8E8E9"/>
		<stop  offset="1" style="stop-color:#D1D2D1"/>
	</linearGradient>
	<polygon class="st32" points="-41.5,1050.7 -184.5,1203.4 -143.1,1198.4 	"/>
	
		<linearGradient id="SVGID_31_" gradientUnits="userSpaceOnUse" x1="897.7365" y1="445.9226" x2="791.575" y2="471.5148" gradientTransform="matrix(0.7071 -0.7071 0.7071 0.7071 -910.2749 1452.6466)">
		<stop  offset="0" style="stop-color:#E8E8E9"/>
		<stop  offset="1" style="stop-color:#D1D2D1"/>
	</linearGradient>
	<polygon class="st33" points="-7,1224.7 -23.7,1222.2 38.1,1128.3 	"/>
	
		<linearGradient id="SVGID_32_" gradientUnits="userSpaceOnUse" x1="789.8683" y1="428.4347" x2="899.3573" y2="428.4347" gradientTransform="matrix(0.7071 -0.7071 0.7071 0.7071 -910.2749 1452.6466)">
		<stop  offset="0" style="stop-color:#F4F4F5"/>
		<stop  offset="1" style="stop-color:#E2E3E3"/>
	</linearGradient>
	<polygon class="st34" points="-23.7,1222.2 -34.2,1211.7 3.5,1094.6 	"/>
	
		<linearGradient id="SVGID_33_" gradientUnits="userSpaceOnUse" x1="898.8423" y1="407.9203" x2="767.421" y2="439.6018" gradientTransform="matrix(0.7071 -0.7071 0.7071 0.7071 -910.2749 1452.6466)">
		<stop  offset="0" style="stop-color:#E8E8E9"/>
		<stop  offset="1" style="stop-color:#D1D2D1"/>
	</linearGradient>
	<polygon class="st35" points="-34.2,1211.7 -62,1217.5 3.5,1094.6 	"/>
	<polygon class="st19" points="-41.5,1050.7 -228.4,1066.9 -246.6,1099.9 	"/>
	
		<linearGradient id="SVGID_34_" gradientUnits="userSpaceOnUse" x1="876.8782" y1="258.5125" x2="736.0709" y2="292.4567" gradientTransform="matrix(0.7071 -0.7071 0.7071 0.7071 -910.2749 1452.6466)">
		<stop  offset="0" style="stop-color:#E8E8E9"/>
		<stop  offset="1" style="stop-color:#D1D2D1"/>
	</linearGradient>
	<polygon class="st36" points="-41.5,1050.7 -246.6,1099.9 -212,1119.8 	"/>
	<polygon class="st19" points="-41.5,1050.7 -212,1119.8 -220.5,1157.1 	"/>
	
		<linearGradient id="SVGID_35_" gradientUnits="userSpaceOnUse" x1="882.0034" y1="284.1017" x2="707.9666" y2="326.0564" gradientTransform="matrix(0.7071 -0.7071 0.7071 0.7071 -910.2749 1452.6466)">
		<stop  offset="0" style="stop-color:#E8E8E9"/>
		<stop  offset="1" style="stop-color:#D1D2D1"/>
	</linearGradient>
	<polygon class="st37" points="-41.5,1050.7 -220.5,1157.1 -183.4,1163.1 	"/>
	<polygon class="st19" points="-41.5,1050.7 -183.4,1163.1 -184.5,1203.4 	"/>
	<polygon class="st19" points="-41.5,1050.7 -143.1,1198.4 -120,1221.6 	"/>
	
		<linearGradient id="SVGID_36_" gradientUnits="userSpaceOnUse" x1="898.6239" y1="353.368" x2="722.1213" y2="395.9172" gradientTransform="matrix(0.7071 -0.7071 0.7071 0.7071 -910.2749 1452.6466)">
		<stop  offset="0" style="stop-color:#E8E8E9"/>
		<stop  offset="1" style="stop-color:#D1D2D1"/>
	</linearGradient>
	<polygon class="st38" points="-41.5,1050.7 -120,1221.6 -79.6,1199.9 	"/>
	
		<linearGradient id="SVGID_37_" gradientUnits="userSpaceOnUse" x1="801.2073" y1="512.0691" x2="900.5885" y2="512.0691" gradientTransform="matrix(0.7071 -0.7071 0.7071 0.7071 -910.2749 1452.6466)">
		<stop  offset="0" style="stop-color:#F4F4F5"/>
		<stop  offset="1" style="stop-color:#F7F8F9"/>
	</linearGradient>
	<polygon class="st39" points="15.1,1242.6 32.3,1262.1 74.7,1164 	"/>
	
		<linearGradient id="SVGID_38_" gradientUnits="userSpaceOnUse" x1="748.6244" y1="245.0367" x2="907.1013" y2="245.0367" gradientTransform="matrix(0.7071 -0.7071 0.7071 0.7071 -910.2749 1452.6466)">
		<stop  offset="0" style="stop-color:#CECDCD"/>
		<stop  offset="0.7045" style="stop-color:#C8C8C8"/>
		<stop  offset="1" style="stop-color:#C4C5C4"/>
	</linearGradient>
	<polygon class="st40" points="-40.9,1039.2 -267.8,1036.4 -41.5,1050.7 	"/>
	
		<linearGradient id="SVGID_39_" gradientUnits="userSpaceOnUse" x1="799.9059" y1="468.3813" x2="899.9574" y2="468.3813" gradientTransform="matrix(0.7071 -0.7071 0.7071 0.7071 -910.2749 1452.6466)">
		<stop  offset="0" style="stop-color:#F4F4F5"/>
		<stop  offset="1" style="stop-color:#E2E3E3"/>
	</linearGradient>
	<polygon class="st41" points="38.1,1128.3 5.7,1237.4 -7,1224.7 	"/>
	<polygon class="st19" points="3.5,1094.6 -41.5,1050.7 -62,1217.5 	"/>
	
		<linearGradient id="SVGID_40_" gradientUnits="userSpaceOnUse" x1="981.6147" y1="512.5369" x2="979.8402" y2="532.0516" gradientTransform="matrix(0.7071 -0.7071 0.7071 0.7071 -910.2749 1452.6466)">
		<stop  offset="0" style="stop-color:#DEDFDE"/>
		<stop  offset="1" style="stop-color:#C3C3C2"/>
	</linearGradient>
	<polygon class="st42" points="169.8,1107.1 122.8,1134.9 153.9,1142 164.4,1131.6 	"/>
	
		<linearGradient id="SVGID_41_" gradientUnits="userSpaceOnUse" x1="1000.3876" y1="536.1236" x2="998.7175" y2="550.1503" gradientTransform="matrix(0.7071 -0.7071 0.7071 0.7071 -910.2749 1452.6466)">
		<stop  offset="0" style="stop-color:#90918F"/>
		<stop  offset="1" style="stop-color:#989898"/>
	</linearGradient>
	<polygon class="st43" points="164.3,1152.4 206.5,1117 164.4,1131.6 153.9,1142 	"/>
	
		<linearGradient id="SVGID_42_" gradientUnits="userSpaceOnUse" x1="882.9359" y1="506.7646" x2="849.911" y2="554.8748" gradientTransform="matrix(0.7071 -0.7071 0.7071 0.7071 -910.2749 1452.6466)">
		<stop  offset="0" style="stop-color:#9A9A99"/>
		<stop  offset="1" style="stop-color:#B8B8B8"/>
	</linearGradient>
	<polygon class="st44" points="3.2,1342.9 149.8,1224.2 164.3,1152.4 	"/>
	
		<linearGradient id="SVGID_43_" gradientUnits="userSpaceOnUse" x1="889.0235" y1="497.8961" x2="853.479" y2="549.6769" gradientTransform="matrix(0.7071 -0.7071 0.7071 0.7071 -910.2749 1452.6466)">
		<stop  offset="0" style="stop-color:#878887"/>
		<stop  offset="0.989" style="stop-color:#A4A4A4"/>
	</linearGradient>
	<polygon class="st45" points="3.2,1342.9 153.9,1142 164.3,1152.4 	"/>
	<polygon class="st46" points="-40.9,1039.2 100.3,1151.7 93.8,1138.7 	"/>
	
		<linearGradient id="SVGID_44_" gradientUnits="userSpaceOnUse" x1="723.4932" y1="558.8009" x2="816.9351" y2="558.8009" gradientTransform="matrix(0.7071 -0.7071 0.7071 0.7071 -910.2749 1452.6466)">
		<stop  offset="0" style="stop-color:#F4F4F5"/>
		<stop  offset="1" style="stop-color:#F7F8F9"/>
	</linearGradient>
	<polygon class="st47" points="59.9,1267.5 3.2,1342.9 44.8,1274.4 	"/>
	
		<linearGradient id="SVGID_45_" gradientUnits="userSpaceOnUse" x1="668.5251" y1="542.8682" x2="789.8693" y2="542.8682" gradientTransform="matrix(0.7071 -0.7071 0.7071 0.7071 -910.2749 1452.6466)">
		<stop  offset="0" style="stop-color:#F4F4F5"/>
		<stop  offset="1" style="stop-color:#F7F8F9"/>
	</linearGradient>
	<polygon class="st48" points="33.6,1279.5 -55.2,1362.3 22.5,1284.6 	"/>
	
		<linearGradient id="SVGID_46_" gradientUnits="userSpaceOnUse" x1="698.6624" y1="550.0317" x2="801.3734" y2="550.0317" gradientTransform="matrix(0.7071 -0.7071 0.7071 0.7071 -910.2749 1452.6466)">
		<stop  offset="0" style="stop-color:#F4F4F5"/>
		<stop  offset="1" style="stop-color:#F7F8F9"/>
	</linearGradient>
	<polygon class="st49" points="44.8,1274.4 -23.8,1351.1 33.6,1279.5 	"/>
	<polygon class="st19" points="38.1,1128.3 74.7,1164 5.7,1237.4 	"/>
	<polygon class="st19" points="38.1,1128.3 -23.7,1222.2 3.5,1094.6 	"/>
	
		<linearGradient id="SVGID_47_" gradientUnits="userSpaceOnUse" x1="870.4763" y1="330.2426" x2="930.0875" y2="468.0936" gradientTransform="matrix(0.7071 -0.7071 0.7071 0.7071 -910.2749 1452.6466)">
		<stop  offset="0" style="stop-color:#E5E7E8"/>
		<stop  offset="0.4624" style="stop-color:#E0E1E2"/>
		<stop  offset="1" style="stop-color:#D3D4D4"/>
	</linearGradient>
	<polygon class="st50" points="100.3,1151.7 74.7,1164 -40.9,1039.2 	"/>
	
		<linearGradient id="SVGID_48_" gradientUnits="userSpaceOnUse" x1="796.5185" y1="541.5959" x2="700.8638" y2="564.6552" gradientTransform="matrix(0.7071 -0.7071 0.7071 0.7071 -910.2749 1452.6466)">
		<stop  offset="0" style="stop-color:#E8E8E9"/>
		<stop  offset="1" style="stop-color:#AEAFAF"/>
	</linearGradient>
	<polygon class="st51" points="3.2,1342.9 -3.7,1356 -23.8,1351.1 44.8,1274.4 	"/>
	
		<linearGradient id="SVGID_49_" gradientUnits="userSpaceOnUse" x1="782.7722" y1="529.9532" x2="672.2222" y2="556.6033" gradientTransform="matrix(0.7071 -0.7071 0.7071 0.7071 -910.2749 1452.6466)">
		<stop  offset="0" style="stop-color:#E8E8E9"/>
		<stop  offset="1" style="stop-color:#BCBCBC"/>
	</linearGradient>
	<polygon class="st52" points="33.6,1279.5 -55.2,1362.3 -38.3,1370.9 -23.8,1351.1 	"/>
	
		<linearGradient id="SVGID_50_" gradientUnits="userSpaceOnUse" x1="954.4654" y1="482.2737" x2="996.9728" y2="529.7823" gradientTransform="matrix(0.7071 -0.7071 0.7071 0.7071 -910.2749 1452.6466)">
		<stop  offset="5.494510e-03" style="stop-color:#F4F4F5"/>
		<stop  offset="1" style="stop-color:#FAFAFB"/>
	</linearGradient>
	<polygon class="st53" points="104.1,1132.3 169.8,1107.1 122.8,1134.9 	"/>
	
		<linearGradient id="SVGID_51_" gradientUnits="userSpaceOnUse" x1="980.6665" y1="549.1245" x2="913.9697" y2="589.3462" gradientTransform="matrix(0.7071 -0.7071 0.7071 0.7071 -910.2749 1452.6466)">
		<stop  offset="5.494510e-03" style="stop-color:#787879"/>
		<stop  offset="0.9615" style="stop-color:#90918F"/>
		<stop  offset="0.989" style="stop-color:#8A8A89"/>
	</linearGradient>
	<polygon class="st54" points="149.8,1224.2 164.3,1152.4 179.3,1139.8 	"/>
	<polygon class="st46" points="251,1020.4 250,1024.3 216.5,1031.7 	"/>
	<polygon class="st46" points="250,1024.3 360.8,955.8 251,1020.4 	"/>
	<polygon class="st46" points="-40.9,1039.2 -41.1,1042.7 -267.8,1036.4 	"/>
</g>
<g>
</g>
<g>
</g>
<g>
</g>
<g>
</g>
<g>
</g>
<g>
</g>
</svg>
