<?xml version="1.0" standalone="no"?>
<!DOCTYPE svg PUBLIC "-//W3C//DTD SVG 1.1//EN" "http://www.w3.org/Graphics/SVG/1.1/DTD/svg11.dtd" >
<svg>
<metadata>
Created by FontForge 20120731 at Sun Jun  8 23:58:53 2014
 By World Wide Web Server
copyright missing
</metadata>
<defs>
<font id="1LoveFest-Regular" horiz-adv-x="309" >
  <font-face 
    font-family="1LoveFest"
    font-weight="400"
    font-stretch="normal"
    units-per-em="1000"
    panose-1="0 0 5 0 0 0 0 0 0 0"
    ascent="800"
    descent="-200"
    cap-height="576.931"
    bbox="0 -99.9959 765.339 716.901"
    underline-thickness="50"
    underline-position="-50"
    unicode-range="U+0020-97F3"
  />
<missing-glyph horiz-adv-x="500" 
d="M0 0v700h500v-700h-500zM250 395l170 255h-340zM280 350l170 -255v510zM80 50h340l-170 255zM50 605v-510l170 255z" />
    <glyph glyph-name=".notdef" horiz-adv-x="500" 
d="M0 0v700h500v-700h-500zM250 395l170 255h-340zM280 350l170 -255v510zM80 50h340l-170 255zM50 605v-510l170 255z" />
    <glyph glyph-name="A" unicode="A" horiz-adv-x="344" 
d="M114.35 446.79l-68.8916 -316.64c-15.5801 -71.5898 -11.5098 -130.149 9.03027 -130.149c20.5498 0 42.3193 25.3203 48.3896 56.25s36.7607 56.2295 68.2012 56.2295s62.04 -25.3203 68 -56.25s28.1504 -56.2295 49.3301 -56.2295
c21.1797 0.00976562 25.9395 58.6299 10.5693 130.26l-67.8701 316.43c-15.3701 71.6299 -41.5498 130.24 -58.1895 130.24c-16.6396 0.0195312 -42.9893 -58.5508 -58.5693 -130.141zM170.888 172.641c-25.3701 0 -39.749 33.2705 -31.9492 73.9502
c7.50977 39.8799 13.9697 77.5498 19.4297 113.06c5.46973 35.5195 9.92969 70.5498 13.4102 105.17l7.25 -70.9902c11.46 -71.0898 24.7002 -149.939 29.4199 -175.22c4.71973 -25.29 -12.1904 -45.9697 -37.5605 -45.9697z" />
    <glyph glyph-name="D" unicode="D" horiz-adv-x="351" 
d="M36 443.71l0.0195312 -310.51c0 -73.2598 28.25 -133.2 62.7803 -133.2c72.7197 0 123.21 12.5703 151.33 37.7207c22.96 20.2197 39.3701 49.4795 49.3203 87.8096c10.1904 40.1299 15.3105 91.9502 15.3105 155.46c0 69.2598 -4.59961 122.43 -13.79 159.56
c-9.25 38.3604 -24.6602 69.5 -46.3203 93.4102c-14.4902 15.9404 -30.9004 27.0205 -49.3604 33.2705l-19.9502 6.4502c-29.5 1.76953 -75.1797 3.21973 -101.489 3.23926c-26.3203 0 -47.8506 -59.9404 -47.8506 -133.21zM113.729 201.2l0.00976562 177.161
c0 73.2695 4.37012 133.189 9.71973 133.17c41.8701 0 70.6201 -16.6504 86.3301 -50.0801c15.71 -33.3604 23.5195 -94.5303 23.5596 -183.44c-0.0400391 -82.7305 -8.20996 -138.4 -24.6797 -167.03l-15.9297 -28.6504
c-43.4502 -7.87988 -79.0098 45.6006 -79.0098 118.87z" />
    <glyph glyph-name="J" unicode="J" horiz-adv-x="252" 
d="M138.75 301.37l0.0078125 -156.38c0 -48.0596 -17.0498 -72.1191 -51.1895 -72.1191h-12.2197c-21.6396 10.8799 -39.3496 -15.1699 -39.3496 -57.9102c18.21 -9.99023 40.2295 -14.96 66.1699 -14.96c43.71 0.0302734 75.29 14.54 94.5703 43.7002l13.1904 19.96
c3.61035 42.6602 6.56055 137.5 6.56055 210.77v176.39c0 73.2695 -17.4902 133.199 -38.8701 133.199c-21.3701 0 -38.8701 -59.9297 -38.8701 -133.199v-149.45z" />
    <glyph glyph-name="L" unicode="L" horiz-adv-x="277" 
d="M36 443.71l0.000976562 -310.51c0 -73.2695 46.0703 -133.199 102.37 -133.199c56.3096 0 102.359 14.7998 102.35 32.8799c0 18.0801 -28.5996 32.8799 -63.5293 32.8799s-63.5195 59.9404 -63.5098 133.2l0.0195312 244.77
c0.00976562 73.2695 -17.4707 133.199 -38.8408 133.189c-21.3799 0 -38.8604 -59.9404 -38.8604 -133.21z" />
    <glyph glyph-name="R" unicode="R" 
d="M36 443.73l-0.000976562 -310.529c0 -73.2695 17.4902 -133.199 38.8799 -133.199c21.3799 0 38.8701 59.9297 38.8701 133.199v16.0703c0 73.2598 21 77.0596 46.6699 8.44922l12.3496 -32.9805c25.6699 -68.6104 64.4102 -124.75 86.1006 -124.75
s18.2305 56.0596 -7.68945 124.6l-59 156.01c25.7002 5.96973 45.4307 21.4893 59.2402 46.5488c13.8203 25 20.7803 58.2002 20.7803 99.5605c0 53.7803 -13.1299 93.7705 -39.2695 119.94l-20.7002 20.1904c-40.6201 5.54004 -96.8896 10.0801 -125.04 10.0801
c-28.1602 0.00976562 -51.1904 -59.9199 -51.1904 -133.189zM113.729 417.182c-0.00976562 52.7197 5.86035 95.8506 13.0508 95.8506c12.2305 0.00976562 22.7402 -1.83008 31.6201 -5.58984c8.80957 -3.74023 16.0498 -9.58984 21.6201 -17.5801
c5.59961 -7.98047 9.72949 -18.3105 12.3291 -31.0107c2.63965 -12.71 3.93945 -28.04 3.93945 -45.9697c0.0400391 -33.1299 -6.2002 -56.6299 -18.6904 -70.6299l-12.4297 -13.9404c-28.2803 -3.83984 -51.4199 36.1602 -51.4395 88.8701z" />
    <glyph glyph-name="S" unicode="S" 
d="M245.66 572.07c-25.1602 13.2305 -51.5713 19.8467 -79.251 19.8467c-39.8604 0 -71.6201 -13.3301 -95.2803 -40c-23.4404 -26.3799 -35.1406 -62.1494 -35.1406 -107.229c0 -33.3604 5.98047 -61.0303 17.9404 -82.9307
c6.24023 -11.2305 15.8301 -24.3301 28.7998 -39.2305c12.9297 -14.96 29.2197 -32.1797 48.9199 -51.5898c12.7002 -12.7197 23.29 -24.2197 31.7998 -34.5693c8.42969 -10.3301 15 -19.4805 19.7998 -27.4609c9.20996 -16.6904 13.7695 -35.4902 13.8096 -56.4102
c0 -24.1797 -5.98047 -43.3096 -17.9404 -57.3594c-11.9199 -14.0996 -28.5195 -21.1191 -49.6895 -21.1191h-22.6699c-29.0498 16.6504 -52.8193 -4.36914 -52.8193 -46.6992c23.4404 -18.1797 51.6807 -27.29 84.8105 -27.3096
c39.4199 0.0195312 71.6299 14.0996 96.7695 42.25c25.1904 28.9004 37.7402 65.6602 37.7803 110.24c-0.0400391 32.8604 -5.71973 60.6299 -17.21 83.3203c-11.4297 23.4199 -33.0195 51.2002 -64.6299 83.3203c-17.1904 17.2002 -31.2002 31.9102 -42.0498 44.0703
c-10.8496 12.2197 -18.6494 22.2002 -23.3594 29.9102c-9.19043 14.4697 -13.79 31.7393 -13.79 51.9297c0 22.9404 6.45996 41.2305 19.3896 54.9102c13.0098 14.4697 29.6797 21.7002 50.1201 21.6699h18.9004c24.7402 -13.9805 44.9902 8.70996 44.9902 50.4404z" />
    <glyph glyph-name="T" unicode="T" horiz-adv-x="325" 
d="M36 542.93c0 -18.71 20.1895 -34.0107 44.8594 -34.0107c24.6602 0 44.8506 -59.9297 44.8506 -133.199v-242.52c0 -73.2695 17.1396 -133.199 38.0996 -133.199c20.9502 0 38.0898 59.9502 38.0898 133.22v242.52c0 73.2695 19.5898 133.189 43.54 133.189
c23.9404 0 43.5303 15.2998 43.5303 34c0 18.71 -56.9199 34 -126.479 34c-69.5703 0 -126.49 -15.29 -126.49 -34z" />
    <glyph glyph-name="U" unicode="U" horiz-adv-x="337" 
d="M36 450.82l0.00195312 -274.418c-0.0400391 -63.04 7.32031 -105.65 22.0303 -127.801c21.1396 -32.4004 57.6494 -48.6201 109.43 -48.6006c47.1104 0 82.1006 12.5898 105.061 37.7197l19.1602 22.1797c5.26953 57.8896 9.5791 165.199 9.5791 238.469v152.44
c0 73.2695 -17.1504 133.199 -38.1104 133.199s-38.1104 -59.9297 -38.1104 -133.199v-285.65c0 -37.3896 -3.71973 -62.1396 -11.2197 -74.3398c-7.20996 -11.9697 -22.1396 -17.9502 -44.8301 -17.9502c-22.7002 0 -37.8506 6.86035 -45.5811 20.5508l-7.5 13.6904
c-2.0498 38.0996 -3.70996 129.199 -3.70996 202.469v141.25c0 73.2695 -17.1504 133.21 -38.1006 133.19c-20.96 0 -38.0996 -59.9297 -38.0996 -133.199z" />
    <glyph glyph-name="Y" unicode="Y" horiz-adv-x="322" 
d="M56.3398 451.83l28.7637 -78.6191c25.1699 -68.79 45.7598 -180.91 45.7598 -249.15c0 -68.2305 17.4902 -124.061 38.8799 -124.061c21.3799 0 38.8701 55.8301 38.8701 124.061c0 68.2402 17.5303 181.38 38.9404 251.439l22.6396 74.0303
c21.4102 70.0596 20.7002 127.38 -1.59961 127.39c-22.2998 0 -47.7803 -29.3398 -56.6104 -65.1895l-18.3203 -75.2998c-1.23047 -5.5498 -7.63086 -33.2998 -14.2109 -61.6602c-2.98047 -12.2002 -6.68066 -33.7305 -11.1807 -64.6309
c-5.23047 30.8799 -14.9404 68.9902 -29.1904 114.36l-4.45996 14.5703l-1.23047 4.48047l-21.5703 70.5996c-10.4902 34.5195 -37.5605 62.7695 -60.1602 62.7695c-22.5898 0 -20.4902 -56.29 4.67969 -125.09z" />
    <glyph glyph-name="uni591C" unicode="&#x591c;" horiz-adv-x="780" 
d="M640.15 633.24h-198.11c-4.66016 23.9902 -10.0205 48.0098 -15.4609 72.8398l-117.8 -9.28027l4.69043 -19.3604c5.08008 -24.3096 -31.0195 -44.1992 -80.21 -44.1992h-107.81c-49.1904 0 -89.4404 -20.4004 -89.4404 -45.3408s40.25 -45.3506 89.4404 -45.3506
h68.5996c-42.5996 -70.5703 -105.67 -126.12 -105.67 -126.12c-36.9199 -32.5098 -52.9697 -96.7793 -35.6699 -142.829l7.29004 -19.4004l15.5195 12.3701c16.6201 14.5195 30.2197 -13.8408 30.2197 -63.0312v-114.1c0 -49.1904 21.7998 -89.4404 48.4502 -89.4404
c26.6396 0 48.4395 40.25 48.4395 89.4404v301.19l28.6797 33.2998c27.7002 40.0801 36.9307 83.1699 20.5205 95.75c-16.4199 12.5801 10.4004 22.8701 59.5908 22.8701h328.73c49.1904 0 89.4404 20.4004 89.4404 45.3408s-40.25 45.3506 -89.4404 45.3506z
M368.33 533.721l-17.71 2.59082c-30.1904 -100.76 -83.6201 -169.05 -83.6201 -169.05c-30.3096 -38.7402 -33.04 -104.101 -6.08008 -145.24l8.36035 -12.75c17.0596 17.0596 33.2998 35.6699 48.8496 55c26.3203 -40.2998 54.1807 -75.1494 85.1904 -105.399
c-48.0098 -25.5898 -101.29 -38.2402 -101.29 -38.2402c-47.8604 -11.3604 -69.5801 -56.9307 -48.2705 -101.261l9.32031 -19.3799c83.7002 19.3701 156.55 51.1299 219.319 94.5703c65.0703 -44.9805 124.271 -67.8008 124.271 -67.8008
c45.9004 -17.7002 102.75 3.14941 126.33 46.3193l11.3096 20.7002c-71.2695 15.46 -132.5 37.96 -185.2 66.6104c54.2695 59.71 93.9697 167.96 93.9697 167.96c16.9297 46.1797 30.79 101.59 30.79 123.13s-40.25 39.1602 -89.4404 39.1602h-148.43l3.03027 9.30957
c4.29004 11.4502 -32.0195 26.6504 -80.6992 33.7705zM479.311 215.441c-37.2598 31 -72.8389 72.8799 -106.989 124.03l12.4297 20.9004c13.6396 25.1797 65.0498 45.7695 114.24 45.7695h82.5898c-25.6201 -82.9404 -59.6504 -146.5 -102.271 -190.7zM528.102 296.091
l1.52051 0.730469c-10.8301 31.04 -24.7998 64.3398 -42.5898 100.01l-72.8203 -24.0195l12.3701 -34.1504c11.5195 -44.7598 57.1992 -63.9102 101.52 -42.5703z" />
    <glyph glyph-name="uni63A2" unicode="&#x63a2;" horiz-adv-x="785" 
d="M78.46 560.33c-20.8799 0 -37.9727 -19.6914 -37.9727 -43.751s17.0898 -43.75 37.9795 -43.75s37.9795 -40.25 37.9795 -89.4404v-36.9502l-28.6797 -7.76953c-32.4102 -6.40039 -55.4805 -51.7402 -51.2705 -100.75l0.929688 -10.8701l26.3496 6.98047
c28.9697 8.9502 52.6699 -23.9697 52.6699 -73.1602v-42.2695c0 -14.7402 -6.16992 -21.7207 -18.6299 -21.7207h-3.08984c-29.8301 3.41992 -50.04 -16.2803 -44.9199 -43.7803c5.12988 -27.5 43.1299 -50 84.46 -50h48.04c13.6797 41.7803 24.8701 116.21 24.8701 165.4
v113.61l21.6299 8.5c23.04 10.2803 39.0898 58.0498 35.6602 106.149l-19.3896 -7.70996c-20.8496 -7.66992 -37.9092 8.04004 -37.9092 34.9199s15 48.8701 33.3203 48.8701c18.3301 0 33.3203 9.40039 33.3203 20.8809s18.9902 20.8701 42.2002 20.8701
s42.2002 17.0898 42.2002 37.9795s40.25 37.9795 89.4404 37.9795h97.0703c49.1904 0 89.4404 -17.0898 89.4404 -37.9795s20.4004 -37.9795 45.3408 -37.9795s45.3506 36.7998 45.3506 81.7803s-40.25 81.7803 -89.4404 81.7803h-278.39
c-49.1904 0 -89.4404 -26.5098 -89.4404 -58.9102s-13.5898 -58.9102 -30.21 -58.9102c-16.6104 0 -30.2002 30.7002 -30.2002 68.2197s-20.4102 68.21 -45.3604 68.21s-45.3701 -30.6904 -45.3701 -68.21s-17.0898 -68.2197 -37.9795 -68.2197zM431.897 431.688
c21.7197 27.1299 33.2412 72.0605 35.6309 134.891h-84.5195c-1.50977 -41.9199 -10.7998 -72.1104 -28.6396 -89.0908l-18.6104 -17.9297c-40.9404 -14.46 -49.9902 -58.2598 -20.1006 -97.3301l3.7998 -4.95996c51.1504 19.3604 88.4199 44.1699 112.439 74.4199z
M603.959 537.879c0 15.79 -19.8877 28.71 -44.1875 28.71s-44.1797 -40.25 -44.1797 -89.4404v-1.28027v-55.0303c45.1797 -14.9102 110.029 -27.1104 144.119 -27.1104s61.9795 18.4805 61.9795 41.0703c0 22.5801 -40.2402 41.0605 -89.4307 41.0605h-10.4805h-12.4404
c-2.95996 18.3203 -5.37988 46.2305 -5.37988 62.0205zM357.062 339.459c-45.7998 0 -83.2725 -19.1895 -83.2725 -42.6396s40.25 -42.6406 89.4404 -42.6406h17.5c-10.8896 -24.7803 -25.6201 -46.4707 -43.4404 -65.8604
c-33.3096 -37.2002 -41.2598 -42.0098 -41.2598 -42.0098c-42.0801 -25.4805 -51.2998 -77.6904 -20.4795 -116.03l4.41016 -5.49023c51.9102 33.3604 96.1006 72.0908 131.74 117.801l10.0996 12.4297c10.1904 16.6396 18.5205 -10 18.5205 -59.1904v-6.40039
c0 -49.1904 21.1104 -89.4404 46.9004 -89.4404c25.7998 0 46.8994 40.25 46.8994 89.4404v105.83c13.25 -23.1797 27.9004 -45.6494 44.9902 -66.6094l42.9902 -57.6299c39.8799 -28.7998 93.7295 -18.1699 119.67 23.6299l7.13965 11.4902
c-64.4297 33.4297 -103.569 79.7393 -103.569 79.7393c-31.75 37.5703 -26.8496 68.3105 10.8809 68.3105c37.7402 0 68.6104 19.1904 68.6104 42.6406s-40.25 42.6299 -89.4404 42.6299h-11.8203c-49.1904 0 -89.4404 15.7002 -89.4404 34.8799
c0 19.1904 -21.0996 34.8809 -46.8994 34.8809c-25.79 0 -46.9004 -15.6904 -46.9004 -34.8809c0 -19.1797 -37.4697 -34.8799 -83.2695 -34.8799z" />
    <glyph glyph-name="uni65E5" unicode="&#x65e5;" horiz-adv-x="581" 
d="M545.18 89.4404v472.17c0 49.1904 -40.25 89.4404 -89.4404 89.4404h-330.3c-49.1904 0 -89.4404 -40.25 -89.4404 -89.4404v-472.17c0 -49.1904 23.8896 -89.4404 53.0898 -89.4404s53.0898 14.2998 53.0898 31.7803s40.2402 31.7803 89.4307 31.7803h117.95
c49.1904 0 89.4404 -14.2998 89.4404 -31.7803s23.8896 -31.7803 53.0898 -31.7803s53.0898 40.25 53.0898 89.4404zM349.56 409.23h-117.94c-49.1904 0 -89.4404 32.6104 -89.4404 72.46c0 39.8604 40.25 72.4707 89.4404 72.4707h117.94
c49.1904 0 89.4404 -32.6104 89.4404 -72.4707c0 -39.8496 -40.25 -72.46 -89.4404 -72.46zM349.56 157.301h-117.94c-49.1904 0 -89.4404 35.5898 -89.4404 79.0801s40.25 79.0703 89.4404 79.0703h117.94c49.1904 0 89.4404 -35.5801 89.4404 -79.0703
s-40.25 -79.0801 -89.4404 -79.0801z" />
    <glyph glyph-name="uni6A02" unicode="&#x6a02;" horiz-adv-x="787" 
d="M334.18 706.05l-3.15039 -20.2246c-4.69043 -20.9805 -20.96 -38.1504 -36.1504 -38.1504c-15.2002 0 -27.6299 -10.5195 -27.6299 -23.3691s-25.9297 -13.1992 -57.6201 -0.779297c-8.58984 -26.4199 -17.8994 -52.1699 -27.249 -75.46
c-14.0098 -3.16016 -27.2598 -5.46973 -40.4199 -7.00977l1.48047 2.28027c17.2002 30.3496 23.7197 47 23.7197 47c18.21 46.5 -3.67969 95.7598 -48.6299 109.47c-13.1904 -67.71 -31.1104 -123.01 -53.6504 -166.58l-8.58984 -0.830078
c-9.42969 0 -10.1602 -37.0996 -1.61035 -82.46c31.1104 6.26953 62.2705 13.2793 93.4707 21.7891c-20.3096 -38.9199 -42.8193 -73.9102 -67.7598 -105.09l-13.9199 -1.50977c-15.04 0 -20.3496 -36.8096 -11.7998 -81.8096
c51.3896 9.42969 103.55 22.6094 155.75 38.2197l1.54004 -15.6104c2.16992 -15.8301 34.04 -20.7197 70.8301 -10.8701l-0.759766 2.33008c-0.480469 3.83984 10.3496 6.97949 24.0596 6.97949s24.9297 -9.62012 24.9297 -21.3799s-40.8604 -21.3896 -90.8008 -21.3896
h-113.45c-49.9297 0 -90.79 -16.9902 -90.79 -37.7705c0 -20.7695 40.8604 -37.7695 90.79 -37.7695h124.85c-61.4502 -40.46 -140.101 -63.3203 -140.101 -63.3203c-47.9502 -13.9404 -70.0303 -62.4307 -49.0605 -107.751l4.00977 -8.67969
c65.2002 19.4404 127.58 46.6904 185.15 80.8604l27.2803 17.1699c28.6699 25.6797 52.1201 12.7197 52.1201 -28.8203c0 -41.5303 21.8896 -75.5107 48.6494 -75.5107c26.75 0 48.6396 40.8604 48.6396 90.79v63.4004c21.0498 -23.3496 45.1797 -44.3896 73.2393 -63.0693
c46.6699 -32.6904 108.99 -54.6504 108.99 -54.6504c47.0996 -16.5996 106.6 4.89062 132.22 47.7607l7.86035 13.1504c-69.3203 10.79 -128.48 27.1904 -177.49 49l-24.9004 10.8799c-24.3799 15.8301 -3.46973 28.79 46.46 28.79h44.1104
c49.9404 0 90.79 16.9902 90.79 37.7705c0 20.7695 -40.8496 37.7695 -90.79 37.7695h-119.68c-49.9404 0 -90.79 9.62012 -90.79 21.3799s12.2803 21.3799 27.29 21.3799c15 0 27.2803 6.84961 27.2803 15.21c0 8.37012 4.2002 -7.93945 9.33008 -36.2393
c56.0098 8.66016 112.05 19.5303 168.14 33.4805l1.50977 -13.9502c2.19043 -14.1396 37.9404 -16.2393 79.4502 -4.65918c-7.80957 49.7695 -15.3594 74.3193 -15.3594 74.3193c-14.6797 47.7305 -49.1494 80.8105 -76.6094 73.5107
c28.0498 43.6201 42.5098 72.3105 42.5098 72.3105c22.4805 44.5996 3.73047 96.1494 -41.6699 114.569c-10.9199 -31.1201 -22.5498 -60.7402 -35 -88.7598c-12.4297 -3.07031 -24.1494 -6.26074 -36.5791 -7.77051c16.25 32.6904 23.4102 52.9404 23.4102 52.9404
c16.6602 47.0703 -9.01953 96.7305 -57.6299 110.5c-11.7197 -70.8096 -27.2695 -128.449 -47.5391 -172.81l-4.62988 -0.769531c-5.12988 0 -9.33008 27.3203 -9.33008 60.7207c0 33.3896 -32.6104 60.7197 -72.4707 60.7197l5.46973 13.9805
c5.12012 17.5498 -31.1699 37.46 -80.6396 44.2402zM375.039 511.396c-12.6299 0 -22.96 14.9102 -22.96 33.1299c0 18.2305 10.3301 33.1406 22.96 33.1406s22.9697 -14.9102 22.9697 -33.1406c0 -18.2197 -10.3398 -33.1299 -22.9697 -33.1299zM211.969 444.506
l18.6484 31.0996c20.1504 41.5498 36.6309 34.6797 36.6309 -15.25v-83.5596l-6.25977 24.0898c-8.11035 28.6904 -30.1699 48.3203 -49.0195 43.6201zM503.117 365.926c-7.0498 -0.799805 -14.0693 -0.800781 -20.2197 -0.800781v32.9805
c0 49.9404 2.76953 71.8809 6.14941 48.7705c28.8604 6.16992 57.6602 13.21 87.1406 20.9502c-21.7197 -37.3604 -46.5898 -71.5801 -73.0703 -101.9zM398.007 410.685c0 -19.9102 -10.3398 -36.1904 -22.9697 -36.1904s-22.96 16.2803 -22.96 36.1904
c0 19.9004 10.3301 36.1904 22.96 36.1904s22.9697 -16.29 22.9697 -36.1904zM636.217 425.765l11.6611 -45.1299c-17.1299 -3.16016 -33.46 -5.44043 -49.8701 -6.9707c12.5596 15.5703 24.9395 32.6807 38.209 52.1006zM193.238 414.125
c2.36035 -9.28027 4.7002 -19.4502 6.25 -28.79c-10.1504 -3.09961 -20.2305 -4.69922 -30.3701 -6.28906c7.83008 10.9297 16.3604 22.6094 24.1201 35.0791z" />
    <glyph glyph-name="uni6C99" unicode="&#x6c99;" horiz-adv-x="783" 
d="M539.01 400.96l-0.0107422 223.37c0 49.1904 -23.8896 89.4404 -53.0898 89.4404s-53.0898 -40.25 -53.0898 -89.4404v-273.29c0 -14.71 -7.00977 -21.6904 -20.9902 -21.6904h-4.59961c-37.5195 3.41016 -64.1992 -16.9902 -59.2891 -45.3203
c4.91016 -28.3398 49.1797 -51.5195 98.3701 -51.5195h7.41992h56.54c15.8096 43.46 28.7393 119.26 28.7393 168.45zM275.489 598.3l9.29004 10.0996c-41.1396 34.0703 -86.79 65.1006 -136.43 93.8105l-60.4404 -63.5596
c48.0898 -34.1504 60.9902 -45.9102 60.9902 -45.9102c36.3301 -33.1602 93.2998 -30.6602 126.59 5.55957zM730.419 378.939l17.0508 8.60059c-24.7803 74.3604 -60.3906 154.19 -105.431 238.71l-88.3301 -30.2803c37.1797 -75.1699 69.0098 -172.32 69.0098 -172.32
c15.3203 -46.7402 63.7803 -66.8604 107.7 -44.71zM314.71 618.84l-5.93066 1.13086c-13.8896 -104.58 -55.4795 -184.19 -55.4795 -184.19c-22.7803 -43.5996 -3.87988 -93.79 42 -111.54l16.5996 -6.41992c44.1904 74.3799 71.3506 197 71.3506 197
c10.6299 48.0303 -20.21 94.8398 -68.54 104.02zM221.06 422.621l11.79 12.9414c-40.2998 34.0596 -84.4902 65.1592 -133.29 93.8096l-63.5498 -66.7002c47.25 -34.0703 59.2998 -45.2705 59.2998 -45.2705c36.0303 -33.4902 92.6201 -31.1406 125.75 5.21973z
M636.31 334.072l-9.7793 4.61133c-39.5098 -65.8604 -89.8193 -117.051 -150.319 -152.741c-66.6699 -37.1504 -180.58 -65.29 -180.58 -65.29c-47.7598 -11.79 -68.3701 -57.21 -45.7998 -100.92l10.1797 -19.7197c109.27 23.21 200.739 57.3301 275.069 103.79
c69.7598 44.29 128.05 121.01 128.05 121.01c29.7695 39.1602 17.6992 88.3301 -26.8203 109.26zM164.431 323.773l-6.74902 2.46875c-23.21 -82.8896 -82.8398 -178.319 -82.8398 -178.319c-26.0596 -41.71 -12.4697 -95.8496 30.21 -120.31l22.3496 -12.7998
c54.2695 89 91.2393 193.81 91.2393 193.81c16.3701 46.3896 -8.03027 98.21 -54.21 115.15z" />
    <glyph glyph-name="uni6D0B" unicode="&#x6d0b;" horiz-adv-x="783" 
d="M474.64 592.88c-15.4902 44.1699 -34.04 83.708 -56.5498 118.618l-103.03 -21.7197l20.8701 -32.6104c17.4902 -35.3496 12.4307 -64.2793 -11.2393 -64.2793s-43.0303 -19.6904 -43.0303 -43.7607c0 -24.0596 38.8896 -43.75 86.4297 -43.75
c47.5303 0 86.4199 -18.5098 86.4199 -41.1299s-33.4697 -41.1201 -74.3896 -41.1201c-40.9102 0 -74.3799 -19.0098 -74.3799 -42.2295c0 -23.2305 33.4697 -42.2305 74.3799 -42.2305c40.9199 0 74.3896 -19.7002 74.3896 -43.7803
c0 -24.0703 -40.25 -43.7705 -89.4404 -43.7705h-12.5195c-49.1904 0 -89.4307 -19.8896 -89.4307 -44.1992c0 -24.2998 40.2402 -44.1895 89.4307 -44.1895h12.5195c49.1904 0 89.4404 -36.6104 89.4404 -81.3604s22.3301 -81.3604 49.6299 -81.3604
c27.29 0 49.6201 36.6104 49.6201 81.3604s40.25 81.3604 89.4404 81.3604h14.8203c49.1904 0 89.4404 19.8896 89.4404 44.1895c0 24.3096 -40.25 44.1992 -89.4404 44.1992h-14.8203c-49.1904 0 -89.4404 19.7002 -89.4404 43.7705
c0 24.0801 35.5703 43.7803 79.0303 43.7803c43.4697 0 79.0293 19 79.0293 42.2305c0 23.2197 -35.5596 42.2295 -79.0293 42.2295c-43.46 0 -79.0303 18.5 -79.0303 41.1201s40.25 41.1299 89.5596 41.1299c49.1904 0 89.4404 19.6904 89.4404 43.75
c0 24.0703 -40.25 43.7607 -89.4404 43.7607h-2.75977l20.0898 29.46c19.6299 38.7803 -4.04004 76.9707 -52.5898 84.8506l-26.4297 4.2998l-10.8896 -41.9297c-22.1602 -42.1797 -65.4102 -76.6895 -96.1006 -76.6895zM272.56 595.118l12.2412 13.2803
c-43.4404 34.8799 -90.6309 67.4297 -142.601 96.8701l-63.5596 -66.6104c51.1602 -35.7002 66.6797 -49.6104 66.6797 -49.6104c36.6396 -32.8301 93.8896 -30.0996 127.239 6.07031zM230.291 410.368l11.8516 12.75c-42.6201 37.21 -89.8701 72.1201 -141.78 103.07
l-64.3799 -66.6396c51.1299 -37.1797 68.2695 -53.3301 68.2695 -53.3301c35.8096 -33.7305 92.5293 -31.8604 126.039 4.14941zM170.623 315.338l-6.71094 2.48145c-23.3203 -81.4102 -80.54 -172.99 -80.54 -172.99c-26.0596 -41.7197 -12.4795 -95.8799 30.1904 -120.36
l22.4004 -12.8496c52.7598 86.8496 88.7402 188.489 88.7402 188.489c16.4199 46.3701 -7.91992 98.2197 -54.0801 115.229z" />
    <glyph glyph-name="uni6D77" unicode="&#x6d77;" horiz-adv-x="786" 
d="M141.42 326.98c-17.8203 -85.2197 -62.5498 -182.271 -62.5498 -182.271c-20.5898 -44.6699 -2.7998 -101.71 39.54 -126.75l19.9404 -11.7998c39.4805 89.1201 66.9404 192.58 66.9404 192.58c12.6104 47.5498 40.71 86.4502 62.4404 86.4502
c-6.16992 -55.0303 -10.0703 -81.2705 -10.0703 -81.2705c-7.24023 -48.6602 27.0898 -88.4697 76.2803 -88.4697h236.06c-2.36035 -10.0996 -4.66016 -17.0596 -6.17969 -20.1797c-5.46973 -6.95996 -13.1602 -10.04 -22.4697 -10.04h-10.8604
c-48.9902 3.41992 -83.6699 -14.3496 -77.0801 -39.5s43.3594 -45.7207 81.709 -45.7207c52.7197 1.48047 87.5693 10.8008 104.629 27.8906l9.29004 9.99023c10.2803 42.6602 34.54 77.5605 53.9199 77.5605c19.3701 0 35.2305 17.0996 35.2305 37.9893
c0 20.9004 -26.8496 38 -59.6592 38l3.12012 27.0703c3.41016 36.6699 20.1504 66.6699 37.21 66.6699c17.0498 0 31.0098 16.9199 31.0098 37.5996s-25.1396 37.5996 -55.8701 37.5996l6.58984 83.6602c4.05957 49.0303 -32.8701 89.1406 -82.0605 89.1406h-273.21
l9.25977 12.4297c11.0703 16.5996 60.3701 30.1895 109.561 30.1895h178.41c49.1904 0 89.4404 18.3096 89.4404 40.6992c0 22.3799 -40.25 40.7002 -89.4404 40.7002h-223.66l5.41992 12.4004c5.94043 14.9102 -28.9893 33.1504 -77.6289 40.5303l-8.37988 1.28027
c-29.4902 -81.4102 -74.7207 -128.93 -74.7207 -128.93c-33.9102 -35.6396 -39.1201 -98.1396 -11.5801 -138.899l4.88965 -7.24023c8.55957 7.74023 17.04 15.46 26.4102 24.7998l-2.38965 -32.6104c-2.98047 -37.4805 -19.1904 -68.1504 -36.0303 -68.1504
s-30.6094 -13.6201 -30.6094 -30.25c0 -16.6396 -32.7803 -18.0596 -72.8506 -3.14941zM256.601 602.49l8.86035 9.74902c-41.8896 32.5498 -88.2998 62.7998 -138.78 90.6895l-60.4502 -63.5596c49.6396 -33.3096 62.5898 -44.5195 62.5898 -44.5195
c37.1904 -32.2002 94.6904 -28.7598 127.78 7.64062zM217.841 414.18l11.9307 12.8408c-39.54 36.4199 -82.9502 69.7197 -130.23 100l-63.5303 -66.7002c45.71 -36.4199 57.6699 -48.3799 57.6699 -48.3799c34.7803 -34.79 90.6504 -33.7803 124.16 2.23926zM371.611 360.4
l2.3584 30.96c2.53027 36.2197 23.2705 65.8496 46.0908 65.8496s20.2207 -18.8096 -5.76953 -41.8096l25.4805 -13.9697c31.5596 -22.5703 17.1299 -41.0303 -32.0605 -41.0303h-36.0996zM555.67 360.41c-22.3701 0 -19.3916 26.1494 6.63867 58.1094l-19.4199 10.8301
c-32.8096 15.3203 -19.4092 27.8604 29.7812 27.8604h29.9004l-2.2998 -34.8203c-2.16016 -34.0898 -22.2305 -61.9795 -44.6006 -61.9795zM404.908 242.52c24.0498 -13.8896 49.5791 -30.9492 76.7793 -51.0693h-128.75l3.90039 29.4102
c4.28027 35.3896 27.6504 64.3398 51.9404 64.3398s22.5498 -19.2002 -3.87012 -42.6807zM570.337 285.199h19.8096c-3.05957 -36.4297 -5.41992 -67.5195 -8.47949 -93.75c-33.7002 0 -42.4199 22.9805 -19.3604 51.0703l-20.1201 12.46
c-33.71 16.6201 -21.04 30.2197 28.1504 30.2197z" />
    <glyph glyph-name="uni7058" unicode="&#x7058;" horiz-adv-x="775" 
d="M198.38 675.02c-10.8701 0 -19.7432 -15.0049 -19.7432 -33.3252s8.88965 -33.3105 19.7598 -33.3105c10.8604 0 19.75 -19.8799 19.75 -44.1797s15.7002 -44.1797 34.8799 -44.1797c19.1904 0 34.8809 -5.40039 34.8809 -12s-21.7998 -12 -48.4395 -12
c-26.6504 0 -48.4502 -36.7998 -48.4502 -81.7803s21.7998 -81.7803 48.4502 -81.7803c26.6396 0 48.4395 -6.11035 48.4395 -13.5703s-21.2695 -13.5596 -47.2598 -13.5596c-26 0 -47.2695 -13.6104 -47.2695 -30.25s21.2695 -30.25 47.2695 -30.25
c25.9902 0 47.2598 -6.09961 47.2598 -13.5498c0 -7.45996 -24.5801 -13.5596 -54.6299 -13.5596s-54.6396 -15.6699 -54.6396 -34.8301s40.25 -34.8398 89.4404 -34.8398h3.5498c-4.65039 -8.55957 -10.04 -16.2998 -16.2705 -22.5303l-21.7197 -22.5098
c-45.1904 -17.04 -63.3105 -63.4004 -40.2705 -103.03c55.75 20.9004 98.4004 47.2207 127.021 79.7705l44.2305 -22.4502c37.5195 -26.8496 88.7998 -17.4395 113.95 20.9102c-27.9697 17.0898 -69.75 37.2295 -124.87 60.4697l0.849609 3.08984
c1.28027 3.45996 27.6201 6.29004 58.5303 6.29004s56.21 15.6699 56.21 34.8301s-23.21 34.8398 -51.5703 34.8398s-51.5605 6.09961 -51.5605 13.5498c0 7.45996 20.4004 13.5596 45.3408 13.5596s45.3506 13.6104 45.3506 30.25
c0 16.6299 -20.4102 30.2402 -45.3506 30.2402s-45.3408 6.11035 -45.3408 13.5703s22.5 13.5596 50 13.5596s50 21.7998 50 48.4395s5.58008 39.0195 12.4004 27.5195l2.36035 3.12012c3.38965 5.50977 6.16992 -30.2305 6.16992 -79.4209v-242.7
c0 -49.1904 17.7803 -89.4404 39.5107 -89.4404s39.5107 8.71973 39.5107 19.3799c0 10.6504 38.8896 19.3701 86.4297 19.3701c47.5303 0 86.4199 17.0801 86.4199 37.96c0 20.8701 -12.3799 37.9502 -27.5098 37.9502s-27.5098 19.71 -27.5098 43.7998
s8.90039 43.7998 19.7803 43.7998s19.7803 15.6904 19.7803 34.8701c0 19.1699 -8.90039 34.8604 -19.7803 34.8604s-19.7803 17.79 -19.7803 39.5303s8.90039 39.5205 19.7803 39.5205s19.7803 16.2197 19.7803 36.0498c0 19.8203 -8.90039 36.04 -19.7803 36.04
s-19.7803 16.4102 -19.7803 36.4697c0 20.0498 11.6797 36.46 25.9697 36.46c14.2803 0 25.9707 17.0898 25.9707 37.9697s-19.1797 37.96 -42.6299 37.96c-23.4404 0 -15.4102 9.41016 17.8496 20.9102l-12.4004 44.9199
c-12.7998 33.6904 -57.4297 51.8604 -99.1895 40.3799l8.46973 -29.4902c7.69043 -42.1904 -13.9199 -76.7207 -48.0098 -76.7207l10.7998 34.0703c7.25977 47.75 -23.4307 91.0195 -68.1807 96.1592c-6.2002 -50.4805 -15.4902 -91.4805 -26.3203 -122.48
l-10.9199 -29.4404c-17.4697 -29.8301 -46.9297 -54.2402 -65.4795 -54.2402c-18.54 0 -33.71 5.40039 -33.71 12s15.71 12 34.9102 12s34.9102 19.8799 34.9102 44.1797s8.87988 44.1797 19.7295 44.1797c10.8604 0 19.7402 14.9902 19.7402 33.3105
s-8.87988 33.3105 -19.7402 33.3105c-10.8496 0 -19.7295 7.5 -19.7295 16.6602c0 9.16992 -17.7998 16.6699 -39.5596 16.6699c-21.75 0 -39.5498 -7.5 -39.5498 -16.6699c0 -9.16016 -13.5996 -16.6602 -30.2197 -16.6602s-30.2197 7.5 -30.2197 16.6602
c0 9.16992 -17.6201 16.6699 -39.1504 16.6699s-39.1406 -7.5 -39.1406 -16.6699c0 -9.16016 -8.88965 -16.6602 -19.7598 -16.6602zM187.986 583.585c-22.5 39.4805 -46.5801 75.1719 -72.9297 106.182l-63.5 -42.6504l30.25 -40.2402
c21.7197 -40.9502 69.5 -51.4307 106.18 -23.291zM296.437 591.736c0 9.16016 13.5996 16.6504 30.2197 16.6504s30.2197 -7.49023 30.2197 -16.6504s-13.5996 -16.6602 -30.2197 -16.6602s-30.2197 7.5 -30.2197 16.6602zM178.637 414.637
c-23.2695 37.1201 -48.0693 72.0195 -76.0195 103.029l-66.6201 -42.5996l31.7998 -41.0498c22.5898 -40.96 72.4697 -49.6797 110.84 -19.3799zM608.747 459.566c0 -20.0596 -9.58984 -36.4697 -21.3096 -36.4697s-21.3096 16.4102 -21.3096 36.4697
c0 20.0498 9.58984 36.46 21.3096 36.46s21.3096 -16.4102 21.3096 -36.46zM290.207 414.637c0 -14.9102 -6.7998 -27.1201 -15.0996 -27.1201c-8.30957 0 -15.0996 12.21 -15.0996 27.1201c0 14.9199 6.79004 27.1201 15.0996 27.1201
c8.2998 0 15.0996 -12.2002 15.0996 -27.1201zM396.357 414.637c0 -14.9102 -7.48047 -27.1201 -16.6104 -27.1201c-9.13965 0 -16.6094 12.21 -16.6094 27.1201c0 14.9199 7.46973 27.1201 16.6094 27.1201c9.12988 0 16.6104 -12.2002 16.6104 -27.1201zM608.747 311.486
c0 -21.7402 -9.58984 -39.5303 -21.3096 -39.5303s-21.3096 17.79 -21.3096 39.5303s9.58984 39.5205 21.3096 39.5205s21.3096 -17.7803 21.3096 -39.5205zM96.4775 329.316c-11.6201 -85.2197 -38.5693 -177.65 -38.5693 -177.65
c-13.7695 -47.2197 9.96094 -105.739 52.7305 -130.029l1.33008 -0.75c25.5596 89.9297 42.6992 193.1 42.6992 193.1c8.05957 48.5195 -18.1309 100.42 -58.1904 115.33zM587.448 114.636c-11.7197 0 -21.3096 19.71 -21.3096 43.7998s9.58984 43.7998 21.3096 43.7998
s21.3096 -19.71 21.3096 -43.7998s-9.58984 -43.7998 -21.3096 -43.7998z" />
    <glyph glyph-name="uni7063" unicode="&#x7063;" horiz-adv-x="801" 
d="M503.82 672.53c-1.55957 13.2998 -3.90625 27.3477 -5.45605 42.0977l-82.5303 -5.44043l3.90039 -10.9297c3.4502 -14.1299 -7.56934 -25.6797 -24.4893 -25.6797s-30.7598 -7.87988 -30.7598 -17.5c0 -9.62988 -20.6699 -8.74023 -45.9297 1.97949l-7.82031 -18.6797
c-8.99023 -19.7002 -26.8701 -35.8203 -39.7197 -35.8203l14.1299 20.21c18.3799 37.2402 0.490234 77.1807 -39.75 88.7607l-10.8799 -43.5703c-17.5703 -35.9697 -35.9805 -65.4102 -40.9004 -65.4102s-7.53027 -27.3301 -5.81055 -60.7305l73.1699 4.66992
c-14.0098 -21.8096 -30.3701 -41.2598 -48.2705 -59.1699l-7.7998 -0.740234c-9.41016 0 -12.9199 -28.7197 -7.80957 -63.8096c44.3604 6.13965 88.7705 14.7393 133.94 24.8789v-4.73047c0.860352 -5.12012 -10.3594 -12.79 -24.9297 -17.0498l10.8604 -27.2803
c9.4502 -38.5098 25.9502 -66.8701 36.6602 -63.0303c10.71 3.84961 19.4697 4.54004 19.4697 1.54004s40.8496 -5.45996 90.79 -5.45996h67.1504l-0.790039 -1.5c-0.849609 -2.58984 27.1699 -7.17969 62.2803 -10.1992l9.41016 30.3496
c3 31.7305 -19.0996 59.0703 -49.1094 60.7607l-2.26953 -19.5098c-5.58008 -20.0898 -10.1396 -7.80957 -10.1396 27.2803c52.1104 6.20996 104.351 14.0098 157.15 23.3496l0.80957 -4.66992c0.860352 -5.55957 -9.97949 -13.6094 -24.0693 -17.8789l11.6299 -26.5098
c10.2695 -38.9697 46 -61.0293 79.4004 -49.0391l-12.4297 35.0195c-13.2402 27.8799 -10.46 55.8896 6.17969 62.25l-10.8398 37.3896c-10.6797 27.8398 -41.1494 45.0303 -67.7197 38.1807c1.50977 -7.7998 3.91992 -15.5098 6.96973 -24.1396
c-15.5596 -2.30957 -30.3398 -3.90918 -45.0996 -5.46875c42.04 35.8496 67.0205 67.8096 67.0205 67.8096c30.75 39.3496 24.4004 83.7998 -14.1094 98.79c-9.37988 -17.1699 -18.6699 -33.5098 -28.8398 -49l-33.46 -0.830078l14.7803 19.4502
c19.7002 35.1299 1.52051 73.6699 -40.3994 85.6504l-12.46 -43.6299c-21.0098 -34.6504 -41.8701 -63.0107 -46.3506 -63.0107c-4.49023 0 -8.16016 0.700195 -8.16016 1.56055c0 0.849609 -36.2598 1.5498 -80.5801 1.5498s-80.5801 -11.0303 -80.5801 -24.5205
c0 -13.4805 34.5 -24.5205 76.6602 -24.5205c42.1699 0 77.4102 -5.24023 78.3105 -11.6406c30.3398 0.769531 59.8496 1.50977 87.9199 3.06934c-21.79 -24.8799 -45.1504 -46.6396 -70.8701 -66.1396l-9.30957 -0.769531c-10.7002 0 -19.1104 -2.82031 -18.6904 -6.26074
c0.429688 -3.44043 -40.0801 -6.25 -90.0205 -6.25h-54.0098l-6.16016 24.9102c-6.4502 19.7002 -31 30.2197 -54.54 23.3799c0.839844 -6.24023 2.32031 -11.71 3.90039 -17.9502c-10.9404 -2.2998 -20.9902 -3.83984 -31.1406 -4.63965
c29.5498 33.4902 40.6494 51.6807 40.6494 51.6807c26.0098 42.6299 87.75 77.5098 137.2 77.5098s89.9102 11.0303 89.9102 24.5205c0 13.4805 -24.8604 24.5107 -55.25 24.5107zM190.883 611.858c-22.5303 32.6904 -46.6611 61.6006 -73.1611 88.0205l-63.8398 -42.8203
l31.1104 -34.29c21.4102 -34.6904 69.0703 -39.6006 105.891 -10.9102zM459.842 538.658c-44.3203 0 -80.5801 -11.0303 -80.5801 -24.5c0 -13.4805 36.2598 -24.5 80.5801 -24.5s80.5898 11.0195 80.5898 24.5c0 13.4697 -36.2695 24.5 -80.5898 24.5zM187.802 419.639
c-25.71 34.2598 -53.7207 64.54 -84.9609 91.8496l-66.8398 -42.8496l35.7305 -36.5898c25.2998 -36.79 77.5303 -42.3701 116.07 -12.4102zM373.101 383.039c-6.25 17.1396 -13.29 32.6895 -19.54 46.7598c10.75 3.82031 19.54 -17.2197 19.54 -46.7598zM473.44 400.199
c0 -12.4102 -7.50977 -22.5605 -16.7002 -22.5605c-9.17969 0 -16.6992 10.1504 -16.6992 22.5605s7.51953 22.5703 16.6992 22.5703c9.19043 0 16.7002 -10.1602 16.7002 -22.5703zM315.41 325.439c-1.48047 31.9199 -6.9502 64.5498 -17.8203 97.3193l-49.0898 -3.12988
l3.84961 -21.8096c1.32031 -41.5498 29.6904 -74.1201 63.0605 -72.3799zM680.54 325.439c-1.5498 31.1201 -7.85938 63.0391 -18.7393 94.1895l-48.2305 -2.36035l3.87012 -21.7803c1.30957 -40.2695 29.71 -71.7891 63.0996 -70.0488zM194.03 414.139l-3.14062 -30.3604
c-11.5498 -28.6699 4.93066 -54.9297 36.6104 -58.3398l9.29004 29.5898c3.04004 30.8203 -16.2002 57.4199 -42.7598 59.1104zM117.729 325.438c-12.4697 -99.7197 -51.4297 -198.171 -51.4297 -198.171c-18.3701 -46.4297 5.09961 -98.0801 52.1592 -114.78
l8.61035 -3.05957c40.4805 95.7002 58.8809 211.5 58.8809 211.5c7.83984 49.3203 -22.8604 96.3506 -68.2207 104.511zM620.119 310.588h-314.33c-49.9404 0 -90.8008 -12.4297 -90.8008 -27.6299s40.8604 -27.6406 90.8008 -27.6406h217
c49.9297 0 90.79 -5.41016 90.79 -12.0303c0 -6.61035 -40.8604 -12.0303 -90.79 -12.0303h-192.8c-49.9297 0 -99.5596 -30.8301 -110.279 -68.5098s21.3604 -68.5098 71.3008 -68.5098h340.48c-1.57031 -10.1699 -1.57031 -14.75 -1.57031 -14.75
c-0.780273 -10.2197 -6.18066 -15.6299 -16.3408 -15.6299c-19.4805 0 -79.7402 2.50977 -79.7402 2.50977c-49.8896 2.08008 -88.5996 -12 -86.0195 -31.29c2.58008 -19.2803 45.5498 -35.0605 95.4795 -35.0605h118.5c25.7197 0 43.6895 4.7002 54.5293 12.4404
c15.5801 13.9805 19.75 46.9707 19.75 46.9707c6.25977 49.5498 -29.4805 90.0801 -79.4102 90.0801h-250.46c-49.9297 0 -88.6797 6.12988 -86.0898 13.6299c2.58008 7.49023 45.5498 13.6201 95.4902 13.6201h204.51c49.9297 0 90.79 30.1104 90.79 66.9199
c0 36.7998 -40.8604 66.9102 -90.79 66.9102z" />
    <glyph glyph-name="uni7BC0" unicode="&#x7bc0;" horiz-adv-x="772" 
d="M125.41 710.63l-7.16113 0.882812c-24.1201 -66.9404 -49.3301 -95.8408 -49.3301 -95.8408c-32.8203 -37.6396 -26.4404 -92.1992 14.1797 -121.249l11.0303 -7.88965l20.2197 24.8896c20.9697 33.4199 58.7695 60.7598 84 60.7598l8.69043 -27.25
c4.67969 -26.9805 49.1699 -45.0508 98.8604 -40.1504l4.63965 0.459961l-6.20996 18.6797c-10.6904 26.54 16.6299 48.2598 60.71 48.2598l-6.32031 -7.76953c-8.12988 -7.7002 18.4502 -37.7803 59.0605 -66.8398l11.04 -7.90039l18.6797 24.1396
c18.8604 32.1104 55.25 58.3701 80.8701 58.3701l10.9902 -28.0195c5.98047 -28.2305 51.5605 -47.5703 101.291 -42.9805l10.0195 0.929688l-6.26953 20.2998c-13.2305 27.3799 1.85938 49.7695 33.5498 49.7695c31.6797 0 57.5996 19.0898 57.5996 42.4102
c0 23.3301 -40.8604 42.4102 -90.79 42.4102h-120.12l5.5 12.4404c5.9502 15.0195 -29.75 32.1592 -79.3301 38.0889l-7.20996 0.860352l-14.0098 -41.9697c-23.9297 -37.7002 -43.5 -55.2402 -43.5 -38.9902c0 16.2598 -40.8604 29.5596 -90.79 29.5596h-98.4199l6.2002 14
c6.86035 15.8496 -28.0898 33.6895 -77.6699 39.6396zM292.089 480.362l-137.609 -0.0078125c-49.9297 0 -90.79 -40.8496 -90.79 -90.79v-290.68l-13.9502 -1.46973c-14.1699 0 -18.0303 -40.1201 -8.56055 -89.1504l1.58984 -8.24023
c84.7598 14.8398 169.59 32.6895 254.53 53.709l4.61035 -15.5801c5.98047 -19.2402 47.4307 -16.7402 92.1006 5.56934l4.54004 2.26953c-17.2002 44.3301 -26.7197 62.25 -26.7197 62.25c-23.4404 44.0996 -30.54 80.1797 -15.7803 80.1797s26.8398 40.8496 26.8398 90.79
v110.36c0 49.9297 -40.8604 90.79 -90.8008 90.79zM566.96 395.475c24.1504 0 43.9092 -40.8613 43.9092 -90.8018v-149.69c0 -16.4102 -6.98047 -24.1201 -20.9902 -24.1201h-3.83984c-26.0801 1.69043 -44.0996 -18.8096 -40.0498 -45.5596
s37.5 -48.6396 74.3301 -48.6396h60.71c16.6797 45.3604 30.3301 123.32 30.3301 173.261v179.63c0 49.9404 -40.8604 90.79 -90.79 90.79h-104.1c-49.9297 0 -90.79 -40.8496 -90.79 -90.79v-298.74c0 -49.9404 21.9004 -90.8008 48.6807 -90.8008
c26.7695 0 48.6797 40.8604 48.6797 90.8008v213.86c0 49.9404 19.7598 90.8008 43.9199 90.8008zM223.249 368.224c-35.9805 0 -65.4102 8.94043 -65.4102 19.8604c0 10.9297 29.4297 19.8701 65.4102 19.8701c35.9697 0 65.4102 -8.94043 65.4102 -19.8701
c0 -10.9199 -29.4404 -19.8604 -65.4102 -19.8604zM223.249 261.613c-35.9805 0 -65.4102 9.62012 -65.4102 21.3799s29.4297 21.3896 65.4102 21.3896c35.9697 0 65.4102 -9.62988 65.4102 -21.3896s-29.4404 -21.3799 -65.4102 -21.3799zM249.049 170.554
c7.04004 -14.0596 13.8799 -28.8682 20.8604 -44.3584l-38.7803 -7.7998c-40.3096 -6.03027 -73.2998 7.25 -73.2998 29.5195s33.3096 40.4893 74.0098 40.4893c40.71 0 48.4502 -8.03027 17.21 -17.8506z" />
    <glyph glyph-name="uni85DD" unicode="&#x85dd;" horiz-adv-x="778" 
d="M127.53 687.37c-48.5898 0 -88.2949 -15.0811 -88.2949 -33.501c0 -18.4297 39.75 -33.5 88.3398 -33.5s88.3496 -4.01953 88.3496 -8.92969s-6.12012 -8.91992 -13.6006 -8.91992s-13.6006 -3.50977 -13.6006 -7.7998s-26.0996 -7.7998 -57.9893 -7.7998
c-31.9004 0 -57.9902 -11.5703 -57.9902 -25.7002c0 -14.1396 26.0898 -25.6992 57.9902 -25.6992c31.8896 0 57.9893 -4.73047 57.9893 -10.5107s-31.5195 -10.5107 -70.0498 -10.5107c-38.5195 0 -70.0391 -11.7305 -70.0391 -26.0605s32.1797 -26.0498 71.5195 -26.0498
c-3.12988 -10.9102 -9.33984 -19.5098 -17.9102 -24.9199l-15.4805 -10.9004c-32.5801 -8.5498 -40.29 -41.8193 -17.1504 -73.9189l11.6504 3.07031c11.9902 5.16992 21.8105 5.36035 21.8105 0.419922s19.96 -8.99023 44.3604 -8.99023s44.3701 -11.54 44.3701 -25.6504
l-46.1699 -1.59961c-49.9297 0 -86.5898 -27.6396 -81.4502 -61.4199c123.77 2.28027 249.579 11.7803 249.579 11.7803c49.7998 3.75977 89.6699 14.3701 88.6201 23.5703c-1.05957 9.2002 24.3105 -5.33008 56.3604 -32.2803
c27.3096 18.6797 49.9492 40.4297 68.5088 63.8398l12.4102 -12.4697c15.9297 -14.5801 45.4102 4.67969 65.5 42.7998l-43.5703 35.0498l6.15039 19.4502c2.17969 23.5596 3.95996 49.6699 3.95996 58.0195c0 8.36035 15.0498 15.1904 33.4502 15.1904
c3.83984 -56.0596 6.20996 -97.2598 6.20996 -124.54c0 -31.1797 7.03027 -56.0693 22.5801 -75.5498c14.8301 -20.2402 32.7402 -30.29 52.96 -30.29c12.4102 0 22.5801 6.16992 31.8604 18.5898c17.9697 20.2402 18.4502 22.8301 18.4502 22.8301
c9.09961 49.0996 -6.55078 101.55 -34.7705 116.55c0 -45.1299 -5.44043 -66.9697 -15.54 -66.9697c-3.95996 0 -5.44043 13.2695 -5.44043 39.6895c0 35.0596 1.01953 78.9697 1.01953 78.9697c1.16016 49.9297 -23.29 90.7695 -54.3398 90.7695
s-56.46 8.91992 -56.46 19.8203s-2.11035 19.8203 -4.7002 19.8203c-2.58008 0 -4.7002 6.12988 -4.7002 13.6299c0 7.49023 39.7598 13.6201 88.3496 13.6201s88.3398 15.0801 88.3398 33.5c0 18.4297 -39.75 33.5 -88.3398 33.5s-88.3496 6.12988 -88.3496 13.6104
c0 7.49023 -19.0996 13.6104 -42.4395 13.6104c-23.3496 0 -42.4492 -6.12012 -42.4492 -13.6104c0 -7.48047 -17.1396 -13.6104 -38.0996 -13.6104c-20.9502 0 -38.1006 -15.0703 -38.1006 -33.5c0 -18.4199 17.1504 -33.5 38.1006 -33.5
c20.96 0 38.0996 -6.82031 38.0996 -15.1602s4.05957 -15.1699 9.01953 -15.1699s9.00977 -8.21973 9.00977 -18.2793c0 -10.0498 -16.29 -18.2803 -36.2002 -18.2803c-19.9199 0 -36.21 -15.7598 -36.21 -35.0195c0 -19.2695 16.29 -35.0293 36.21 -35.0293
c19.9102 0 36.2002 -13.6699 36.2002 -30.3799l-0.830078 -14.0098l-14.7695 8.57031c-14.54 8.12988 -44.2998 -8.33008 -66.1494 -36.5801c16.25 -10.8799 33.46 -22.5801 52.1396 -35.8496l-15.6104 -18.6504c-28.2803 -17.54 -51.7705 -30.1396 -52.1904 -27.9893
l-40.3701 -2.37012c-46.2305 -1.28027 -84.0605 2.91016 -84.0605 9.32031c0 6.41992 23.9805 11.6602 53.29 11.6602s53.29 10.1699 53.29 22.5996s-23.9805 22.5996 -53.29 22.5996s-53.29 9.62988 -53.29 21.3994s-18.4004 21.3994 -40.9004 21.3994
s-40.9004 -9.62988 -40.9004 -21.3994s-18.9199 -21.3994 -42.0303 -21.3994c3.07031 2.33008 6.9707 5.44043 10.1006 9.31055l12.54 13.2402c7.25 26.1201 35.0703 47.4902 61.8301 47.4902c26.75 0 48.6396 -6.65039 48.6396 -14.7803v-28.8203
c23.5703 -7.71973 61.9404 -14.04 85.2705 -14.04c23.3203 0 42.4102 8.92969 42.4102 19.8496c0 10.9102 -22.0801 19.8398 -49.0703 19.8398h-6.2002c-1.2998 8.17969 -2.37012 15.5596 -2.37012 16.3994c0 0.849609 12.9697 1.54004 28.8193 1.54004
s28.8193 11.7197 28.8193 26.0498s-30.1299 26.0605 -66.9502 26.0605s-66.9404 4.73047 -66.9404 10.5107s24.7002 10.5107 54.8799 10.5107c30.1904 0 54.8906 11.5596 54.8906 25.6992c0 14.1299 -24.7002 25.7002 -54.8906 25.7002
c-30.1797 0 -54.8799 2.08984 -54.8799 4.64941s5.41992 4.65918 12.0498 4.65918s12.0596 5.42969 12.0596 12.0693s17.1699 12.0801 38.1504 12.0801c20.9902 0 38.1602 15.0703 38.1602 33.5c0 18.4199 -17.1699 33.5 -38.1602 33.5
c-20.9805 0 -38.1504 6.12012 -38.1504 13.6104c0 7.48047 -19.0996 13.6104 -42.4395 13.6104s-42.4395 -6.12988 -42.4395 -13.6104c0 -7.49023 -39.7598 -13.6104 -88.3496 -13.6104zM562.655 255.299h-346.98c-49.9404 0 -90.79 -12.25 -90.79 -27.21
c0 -14.9697 40.8496 -27.21 90.79 -27.21h346.98c49.9404 0 90.8008 12.2402 90.8008 27.21c0 14.96 -40.8604 27.21 -90.8008 27.21zM651.385 176.739l-524.549 -0.00878906c-49.9404 0 -90.8008 -14.3604 -90.8008 -31.9199c0 -17.5498 40.8604 -31.9199 90.8008 -31.9199
h77.4902c-11.8203 -12.4102 -26.54 -24.9199 -44.4502 -37.3604l-24.9404 0.769531c-37.2305 1.74023 -61.04 -32.5996 -52.9102 -76.3096c218.77 1.59961 401.659 9.39941 548.779 23.3193l7.87012 -7.67969c8.12988 -10.2803 47.6797 -2.23047 87.8994 17.8799
l-23.29 25.71c-36.8398 29.5195 -43.1602 53.6797 -14.04 53.6797c29.1104 0 52.9307 14.3604 52.9307 31.9199c0 17.5498 -40.8604 31.9199 -90.79 31.9199zM539.666 112.891l35.1221 -30.3291c-88.7305 -5.49023 -189.16 -8.57031 -299.641 -9.39062l15.5498 13.2695
c13.6797 14.5498 65.7393 26.4502 115.669 26.4502h133.3z" />
    <glyph glyph-name="uni8853" unicode="&#x8853;" horiz-adv-x="774" 
d="M265.87 577.57c-32.5596 0 -59.1885 -19.9521 -59.1885 -44.3525s26.6396 -44.3701 59.1992 -44.3701s59.1992 -40.8604 59.1992 -90.79v-307.26c0 -49.9297 19.7598 -90.79 43.9199 -90.79c24.1504 0 43.9199 40.8604 43.9199 90.79v307.26
c0 49.9297 27.5 90.79 61.1201 90.79c33.6104 0 61.1201 19.9697 61.1201 44.3701s-12.4404 44.3604 -27.6406 44.3604s-6.95996 16.4502 18.2998 36.5605l-21.7598 33.4902c-26.5596 31.7002 -57.9297 51.1504 -69.7197 43.2207
c-11.7803 -7.91992 -21.4307 -5.2998 -21.4307 5.82031c0 11.1299 -19.7598 20.2295 -43.9199 20.2295c-24.1504 0 -43.9199 -31.3496 -43.9199 -69.6592c0 -38.3203 -26.6396 -69.6699 -59.1992 -69.6699zM160.69 714.568
c-36.4697 -66.9502 -74.709 -107.539 -74.709 -107.539c-34.2402 -36.3496 -40.0898 -100.42 -13.0098 -142.37l5.96973 -9.25c59.9297 54.4697 106.359 134.66 106.359 134.66c25.0195 43.2197 13.9492 99.2393 -24.6104 124.499zM632.161 689.629
c-49.9297 0 -90.79 -21.1797 -90.79 -47.0801c0 -25.8896 40.8604 -47.0801 91.3799 -47.0801c49.9404 0 90.79 21.1904 90.79 47.0801c0 25.9004 -40.8496 47.0801 -91.3799 47.0801zM412.921 653.839c20.2695 -26.4199 36.6494 -51.3398 50.5996 -76.25
c-27.8301 0 -50.5996 34.3096 -50.5996 76.25zM154.541 516.879c-34.29 -83.3203 -85.2275 -145.93 -85.2275 -145.93c-31.5098 -38.7402 -42.6602 -108.59 -24.7803 -155.21l7.20996 -18.8203l12.4697 13.9805c13.2695 16.2695 24.1191 -11.2705 24.1191 -61.2109v-58.8701
c0 -49.9404 19.0996 -90.8008 42.4492 -90.8008c23.3398 0 42.4395 21.8799 42.4395 48.6201s25.9102 23.79 57.5801 -6.55957c27.3096 51.3398 45.9893 105.01 56.0391 160.34c10.9297 60.7305 13.96 147.41 13.96 147.41c1.75 49.9102 -33.9297 90.7402 -79.29 90.7402
c0 -94.1904 -5.44043 -165.78 -16.3701 -215.641l-7.7998 -32.6602c-13.2695 -29.9697 -24.1191 -13.6396 -24.1191 36.3008v136.48l18.6797 31.1504c17.9805 37.7002 1.1709 92 -37.3594 120.68zM516.474 285.38l0.000976562 64.3877
c0 49.9297 -17.6904 90.79 -39.3105 90.79s-39.3105 -40.8604 -39.3105 -90.79v-180.05v-60.71c28.29 -16.7197 58.9502 -30.4102 68.1299 -30.4102c9.19043 0 18.8203 -15.7695 21.4004 -35.0391c2.58984 -19.2695 45.5596 -35.0293 95.4893 -35.0293h6.4502h42.0801
c11.9697 42 21.7598 117.23 21.7598 167.16v125.11c0 49.9404 10.1699 90.79 22.6104 90.79c12.4297 0 22.6094 20.6602 22.6094 45.9004c0 25.25 -40.8604 45.9004 -90.8008 45.9004h-24.71c-49.9297 0 -90.79 -20.6504 -90.79 -45.9004
c0 -25.2402 16.4502 -45.9004 36.5605 -45.9004s36.5605 -40.8496 36.5605 -90.79v-185.58c0 -12.5 -6.2002 -17.96 -18.6201 -17.96h-3.19043c-9.84961 0.469727 -17.9092 15.5596 -17.9092 33.54s-16.4697 32.6904 -36.5898 32.6904h-8.45996
c-2.17969 17.0996 -3.95996 71.9492 -3.95996 121.89z" />
    <glyph glyph-name="uni8DE1" unicode="&#x8de1;" horiz-adv-x="776" 
d="M635.38 623.92l-58.5381 0.000976562c-3.84961 27.1299 -7.75 54.1797 -12.4102 82.1602l-103.09 -9.29004l3.83984 -21.75c3.87988 -28.1201 -27.4805 -51.1201 -69.6807 -51.1201s-76.7305 -18.3096 -76.7305 -40.6895s21.7803 -40.6895 48.4102 -40.6895
s48.4199 -40.25 48.4199 -89.4404v-26.1201c0 -110.02 -9.25977 -187.55 -27.8896 -233.21c-15.4902 -41.8896 -39.9404 -72.2295 -39.9404 -72.2295c-30.8604 -38.2998 -22.1006 -91.1602 19.4795 -117.45l6.48047 -4.09961
c40.2998 47.2197 70.5801 99.9795 92.2998 158.869c21.6602 52.7598 29.3799 178.85 29.3799 178.85c3 49.0996 5.45996 115.27 5.45996 147.05s6.80957 57.7803 15.1191 57.7803c8.32031 0 15.1299 -40.25 15.1299 -89.4404v-334.55
c0 -14.71 -6.16992 -21.6904 -18.6299 -21.6904h-3.08984c-24.7197 3.41992 -40.9395 -15.5801 -36.0293 -42.2197c4.91016 -26.6504 38.9004 -48.4502 75.54 -48.4502h46.5c12.8096 40.0498 23.29 113.069 23.29 162.26v284.65c0 49.1904 23.8799 89.4404 53.0596 89.4404
c29.1904 0 53.0605 18.3096 53.0605 40.6895s-40.25 40.6895 -89.4404 40.6895zM208.392 678.101l-66.0078 -0.0195312c-49.1904 0 -89.4404 -40.2402 -89.4404 -89.4307v-72.2402c0 -49.1904 23.7197 -89.4404 52.71 -89.4404s52.71 -40.25 52.71 -89.4404v-201.96
l-10.8896 -3.05957c-12.3604 -2.15039 -22.4805 36.3496 -22.4805 85.54v76.8896c0 49.1904 -17.6104 89.4404 -39.1299 89.4404s-39.1299 -40.25 -39.1299 -89.4404v-179.49l-6.16992 -1.58008c-6.82031 -0.830078 -5.86035 -41.2197 2.13965 -89.75l0.910156 -5.53027
c93.0195 19.3896 168.859 43.0996 168.859 43.0996c46.9502 14.6797 85.3701 66.0996 85.3701 114.26l-18.6104 -6.25977c-21.3301 -6.37012 -38.7803 12.1299 -38.7803 41.1104c0 28.9902 24.4199 52.7002 54.2695 52.7002l-6.23047 -24.0703
c-8.08008 -23.4297 19.1201 -56.1992 60.4502 -72.8193c24.7998 79.0801 41.0498 211.2 41.0498 211.2c6 48.8203 -21.8799 95.3701 -61.96 103.44c-5.41016 -71.2695 -11.3203 -104.18 -11.3203 -104.18c-8.67969 -48.4199 -15.79 -75.2998 -15.79 -59.75
c0 15.5596 -13.5996 28.29 -30.2295 28.29s-30.2402 18.3096 -30.2402 40.6895s12.9102 40.6895 28.6904 40.6895s28.6904 40.25 28.6904 89.4404v72.2305c0 49.1904 -40.25 89.4404 -89.4404 89.4404zM213.364 552.961c0 -25.79 -17.0898 -46.8896 -37.9697 -46.8896
s-37.96 21.0996 -37.96 46.8896s17.0801 46.8896 37.96 46.8896s37.9697 -21.0996 37.9697 -46.8896zM737.685 163.271l1.91992 0.240234c-9.30957 122.4 -20.1699 227.091 -33.2695 315.431l-78.3203 -6.2002c12.4004 -114.74 17.25 -231.51 17.25 -231.51
c2.04004 -49.1504 43.6299 -84.2305 92.4199 -77.9609z" />
    <glyph glyph-name="uni907A" unicode="&#x907a;" horiz-adv-x="789" 
d="M348.8 690.5h-2.46973c-49.1904 0 -89.4404 -28.5996 -89.4404 -63.5498c0 -34.96 40.25 -63.5596 89.4404 -63.5596h2.46973c49.1904 0 89.4404 -4.7002 89.4404 -10.4502s-40.25 -10.46 -89.4404 -10.46h-29.6104c-49.1904 0 -89.4404 -13.5996 -89.4404 -30.2295
s40.25 -30.2402 89.4404 -30.2402h341.19c49.1904 0 89.4404 13.6104 89.4404 30.2402s-40.25 30.2295 -89.4404 30.2295h-38.9199c-49.1904 0 -89.4404 4.70996 -89.4404 10.46s40.25 10.4502 89.4404 10.4502h3.25977c49.1904 0 89.4404 28.5996 89.4404 63.5596
c0 34.9502 -40.25 63.5498 -89.4404 63.5498h-3.25977c-49.1904 0 -89.4404 5.41016 -89.4404 12.0098c0 6.61035 -21.0996 12.0107 -46.8896 12.0107s-46.8896 -5.40039 -46.8896 -12.0107c0 -6.59961 -40.25 -12.0098 -89.4404 -12.0098zM216.25 592.77l1.13184 0.839844
c-28.7402 38.7803 -59.6904 74.4502 -93.8105 106.24l-69.7305 -45.7402l40.5098 -40.6797c27.5898 -40.7305 82.4395 -50.0303 121.899 -20.6602zM438.242 626.949c0 -6.82031 -20.4004 -12.4004 -45.3301 -12.4004s-45.3301 5.58008 -45.3301 12.4004
s20.4004 12.4004 45.3301 12.4004s45.3301 -5.58008 45.3301 -12.4004zM622.683 626.949c0 -6.82031 -20.4004 -12.4004 -45.3301 -12.4004s-45.3301 5.58008 -45.3301 12.4004s20.4004 12.4004 45.3301 12.4004s45.3301 -5.58008 45.3301 -12.4004zM621.583 460.299
l-263.608 0.000976562c-49.1904 0 -89.4404 -40.25 -89.4404 -89.4404v-96.2305c0 -49.1904 40.25 -89.4404 89.4404 -89.4404h57.79c-62.04 -15.5195 -91.7803 -19.21 -91.7803 -19.21c-48.8203 -6.07031 -77.6104 -34.4004 -63.9805 -62.9502
c-6.2002 1.57031 -11.5898 3.11035 -16.2998 5.44043c-19.3896 8.46973 -37.9697 20.9297 -55.0596 37.2393l3.15039 6.92969c22.5 52.7305 33.5801 113.511 33.5801 113.511c8.82031 48.3896 -15.3496 87.9893 -53.6992 87.9893
c21.6299 51.9404 28.4902 77.2207 28.4902 77.2207c12.8896 47.4697 -16.8203 86.3193 -66.0107 86.3193h-8.70996c-49.1904 0 -89.4404 -18.3096 -89.4404 -40.6797s34.5098 -40.6699 76.6895 -40.6699c-13.9199 -50.4805 -25.8203 -80.4404 -25.8203 -80.4404
c-18.1602 -45.7197 2.89941 -83.1201 46.7891 -83.1201c-8.50977 -40.3203 -19.3896 -72.0898 -32.5 -96.8896l-15.5498 -31.7998c-30.71 -35.7998 -29.8799 -95.8594 1.83984 -133.459l8.95996 -10.6201c23.2695 27.0703 43.4697 54.96 60.4697 82.8301
c18.6104 -17.8203 39.5703 -32.5508 62.7705 -43.3506c50.4004 -21.7197 172.131 -33.3398 364.311 -33.3398l61.6904 1.11035c49.1797 1.09961 96.0596 40.3691 104.18 87.249l-9.32031 -0.780273c-9.40039 -0.419922 -3.83008 25.7305 12.3799 58.1104
c-72.0303 14.7598 -100.03 19.2402 -100.03 19.2402c-48.5703 7.76953 -55.3604 14.1191 -15.0801 14.1191s73.2402 40.25 73.2402 89.4404v96.2305c0 49.1904 -40.25 89.4404 -89.4404 89.4404zM527.824 382.06h-76.04c-49.1904 0 -89.4404 5.41016 -89.4404 12.0098
c0 6.61035 40.25 12.0107 89.4404 12.0107h76.04c49.1904 0 89.4404 -5.40039 89.4404 -12.0107c0 -6.59961 -40.25 -12.0098 -89.4404 -12.0098zM527.824 312.31h-76.04c-49.1904 0 -89.4404 5.38965 -89.4404 11.9893s40.25 12 89.4404 12h76.04
c49.1904 0 89.4404 -5.40039 89.4404 -12s-40.25 -11.9893 -89.4404 -11.9893zM617.265 253.01c0 -7.4502 -40.2402 -13.5498 -89.4307 -13.5498h-76.0498c-49.1904 0 -89.4404 6.09961 -89.4404 13.5498c0 7.45996 40.25 13.5596 89.4404 13.5596h76.0498
c49.1904 0 89.4307 -6.09961 89.4307 -13.5596zM474.694 85.21c-65.8604 0 -119.369 3.08984 -159.659 8.5c51.96 10.0996 71.8496 16.8799 71.8496 16.8799c46.5703 15.8604 75.6006 39.1299 64.5205 51.7197c-11.0801 12.5801 4.08984 22.8799 33.71 22.8799
c29.6299 0 38.5195 -20.5996 19.7695 -45.7695c58.96 -10.7998 122.46 -27.1299 190.67 -47.2803c-120.12 -4.66016 -193.75 -6.92969 -220.86 -6.92969z" />
    <glyph glyph-name="uni96AA" unicode="&#x96aa;" horiz-adv-x="768" 
d="M580.45 654.59c0 0 63.9277 -57.8604 151.498 -91.9199l-2.05957 -4.95996c-18.8799 -45.4199 -62.2598 -68.3096 -96.3994 -50.8496l-28.6504 18.5996c0 -19.6104 -40.25 -35.6602 -89.4404 -35.6602h-81.5195c-49.1904 0 -89.4404 6.7998 -89.4404 15.1201
s-21.29 0.830078 -47.3096 -16.6396l-24.8398 -13.1602c-18.3301 40.9199 -42.75 44.0498 -54.2695 6.95996l-12.3701 -37.1699c34.1504 -51.1904 51.1807 -96.9004 51.1807 -136.44c0 -47.3096 -9.2002 -80.6191 -26.3506 -100.739
c-13.9199 -18.6904 -49.6104 -28.7002 -106.91 -29.4902v-85.6797c0 -49.1904 -19.7002 -89.4404 -43.79 -89.4404c-24.0801 0 -43.79 40.25 -43.79 89.4404v504.64c0 49.1904 40.25 89.4404 89.4404 89.4404h45.04c49.1904 0 89.4404 -12.8896 89.4404 -28.6396
s-4.16016 -46.4502 -9.25 -68.2305l-6.25977 -21.6904c72.1396 33.3096 132.59 82.1592 182.17 146.529c48.1602 0 117.41 -27.0098 153.88 -60.0195zM397.898 562.67l65.5693 -0.000976562c49.1904 0 63.2803 20.9199 31.3203 46.4902l-26.3203 26.3203
c-22.5 -27.0703 -45.7998 -51.0898 -70.5693 -72.8096zM123.588 509.649l0.000976562 -52.3691c24.7695 51.21 41.8291 98.46 51.9092 141.81c-28.5498 0 -51.9102 -40.25 -51.9102 -89.4404zM620.369 186.021l-3.02344 -10.8652
c46.3799 -31.04 82.0801 -58.1104 106.1 -81.3799l-4.13965 -6.5498c-26.2695 -41.5801 -70.7891 -46.6504 -98.9287 -11.2607l-31.0098 29.4297c-3.13965 -6.2002 -6.16992 -12.4307 -9.28027 -17.0908c-20.1797 -34.0596 -44.1396 -61.9795 -72.0898 -85.1895
l-1.99023 2.46973c-30.9004 38.2695 -61.4102 61.3799 -67.7998 51.3496s-29.3896 5.16016 -51.0996 33.7598l-24.0801 24.8096c-5.44043 -10.8604 -10.8008 -20.1699 -15.4609 -27.9502c-23.29 -34.8203 -50.4297 -64.3105 -81.3799 -87.5508l-4.42969 5.50977
c-30.8496 38.3203 -33.3896 86.4102 -5.63965 106.87l21.6602 28.6797c20.1797 26.3496 36.3994 59.6494 49.6396 100.739c-35.3896 0 -64.3398 40.25 -64.3398 89.4404v38.9199c0 49.1904 40.25 89.4404 89.4404 89.4404h17.9902
c49.1904 0 89.4307 -40.25 89.4307 -89.4404v-38.9199c0 -49.1904 -25.9805 -89.4404 -57.7402 -89.4404s-44.8398 -5.40039 -29.0703 -12s25.5195 -21.7695 21.6592 -33.71l-3.05957 -9.32031c37.1504 -24.7803 65.9199 -47.3105 86.0098 -65.8604
c-9.79004 -16.2002 -2.11035 -15.1699 17.0596 2.2998l15.4902 21.6904c17.0596 25.6201 31.7598 58.1699 44.1602 96.9004c-37.0801 0 -67.4199 40.25 -67.4199 89.4404v38.9199c0 49.1904 40.2402 89.4404 89.4307 89.4404h26.5303
c49.1904 0 89.4307 -40.25 89.4307 -89.4404v-38.9199c0 -49.1904 -27.5596 -89.4404 -61.25 -89.4404s-48 -6.08984 -31.79 -13.54c16.2002 -7.44043 25.6504 -26.4502 20.9902 -42.2402zM135.996 260.425c23.1699 0.730469 34.8506 17.0586 36.3604 48.0391
c0 36.4502 -16.2695 79.0703 -48.7598 127.051v-173.58c6.16992 -1.50977 10.0098 -1.50977 12.3994 -1.50977zM361.077 311.603c12.6104 0 22.9199 17.79 22.9199 39.5205c0 21.7402 -10.3096 39.5205 -22.9199 39.5205c-12.5996 0 -22.9092 -17.7803 -22.9092 -39.5205
c0 -21.7305 10.3096 -39.5205 22.9092 -39.5205zM565.377 351.122c0 -21.7305 10.9805 -39.5205 24.4004 -39.5205s24.4004 17.79 24.4004 39.5205c0 21.7402 -10.9805 39.5205 -24.4004 39.5205s-24.4004 -17.7803 -24.4004 -39.5205z" />
    <glyph glyph-name="uni97F3" unicode="&#x97f3;" horiz-adv-x="792" 
d="M465.62 653.05l-6.96875 63.8516l-125.3 -11.6504l4.66016 -15.6299c5.13965 -20.1104 -31.5107 -36.5605 -81.4404 -36.5605h-87.7402c-49.9297 0 -90.79 -18.3896 -90.79 -40.8594c0 -22.4805 40.8604 -40.8701 90.79 -40.8701h1.07031l20.2402 -30.4102
c12.7998 -31.6504 -16.6406 -57.5508 -65.4307 -57.5508s-88.71 -19.2598 -88.71 -42.8096c0 -23.54 40.8604 -42.8096 90.79 -42.8096h538.47c49.9404 0 90.79 19.2695 90.79 42.8096c0 23.5498 -40.8496 42.8096 -90.79 42.8096h-84.2998l13.9297 26.4805
c13.2402 33.8096 45.46 61.4795 71.5898 61.4795c26.1396 0 47.5195 18.3896 47.5195 40.8594c0 22.4805 -40.8604 40.8604 -90.79 40.8604h-157.59zM324.771 483.382l-13.9102 31.1201c-18.4805 31.2598 7.25 56.8398 57.1904 56.8398h141.24l-10.9502 -31.9502
c-14.9404 -30.7998 -68.0303 -56.0098 -117.96 -56.0098h-55.6104zM674.352 90.8018l0.000976562 176.47c0 49.9404 -40.8604 90.79 -90.8008 90.79h-375.08c-49.9404 0 -90.79 -40.8496 -90.79 -90.79v-176.47c0 -49.9404 24 -90.8008 53.3398 -90.8008
s53.3496 8.04004 53.3496 17.8604s40.8604 17.8506 90.79 17.8506h161.73c49.9297 0 90.79 -8.03027 90.79 -17.8506s24 -17.8604 53.3301 -17.8604c29.3398 0 53.3398 40.8604 53.3398 90.8008zM476.893 233.521h-161.73c-49.9297 0 -90.79 9.62988 -90.79 21.3994
s40.8604 21.3994 90.79 21.3994h161.73c49.9297 0 90.79 -9.62988 90.79 -21.3994s-40.8604 -21.3994 -90.79 -21.3994zM476.893 118.321h-161.73c-49.9297 0 -90.79 9.62012 -90.79 21.3799s40.8604 21.3896 90.79 21.3896h161.73c49.9297 0 90.79 -9.62988 90.79 -21.3896
s-40.8604 -21.3799 -90.79 -21.3799z" />
    <glyph glyph-name="zero" unicode="0" horiz-adv-x="333" 
d="M296.81 290.74c0 119.06 -11.21 199.419 -33.6201 240.989c-20.9404 39.3799 -53.3008 59.0498 -97.1406 59.0498c-47.3203 -0.0302734 -80.8604 -22.4199 -100.521 -67.2695c-19.6904 -43.3398 -29.5303 -119.46 -29.5303 -228.27
c0 -108.87 9.7998 -184.98 29.5303 -228.32c19.9199 -44.5898 53.5703 -66.9102 100.86 -66.9199c47.3203 0.00976562 80.8301 22.2002 100.561 66.5303c19.9102 45.8398 29.8604 120.57 29.8604 224.21zM217.609 290.729c0 -85.1904 -3.87012 -143.381 -11.5898 -174.491
c-7.38965 -32.6504 -20.7998 -48.9805 -40.1602 -48.9805c-19.6504 0 -33.2803 16.4404 -40.96 49.3809c-7.46973 33.0996 -11.1895 92.3594 -11.1895 177.819c0 85.4404 3.71973 144.61 11.1895 177.49c7.67969 32.9004 21.3496 49.3008 40.9697 49.3203
c19.5703 -0.0195312 33.1006 -16.5693 40.5605 -49.709c7.42969 -33.3496 11.1797 -93.6699 11.1797 -180.83z" />
    <glyph glyph-name="one" unicode="1" horiz-adv-x="204" 
d="M36 543.82c0 -18.1904 12.8613 -33.0684 28.5811 -33.0684c15.7305 0 28.5908 -59.9199 28.6104 -133.189l0.00976562 -244.38c0.00976562 -73.2598 16.7295 -133.2 37.1494 -133.19c20.4297 0 37.1494 59.9404 37.1494 133.21v310.51
c0 73.2695 -29.5898 133.199 -65.75 133.199s-65.75 -14.9004 -65.75 -33.0908z" />
    <glyph glyph-name="two" unicode="2" horiz-adv-x="324" 
d="M112.43 392.36l-0.550781 35.8809c0 59.2803 15.9404 88.9307 47.8604 88.9307c33.0898 0.0195312 49.6201 -23.9404 49.6201 -71.79c0 -27.1201 -6.73047 -59.3799 -20.1807 -96.7695c-6.71973 -18.6699 -16.6699 -42.5703 -29.8604 -71.71l-49.3203 -106.48
c-23.1602 -47.8604 -41.4697 -85.8105 -54.9199 -113.971l-13.4805 -28.1602c-7.17969 -15.5596 43.9502 -28.29 113.601 -28.29c69.6699 0 126.68 14.96 126.689 33.2598c0 18.2998 -59.9297 33.2695 -133.199 33.2695h-9.55957l5.24023 10.8301l1.23047 2.49023
l46.9502 88.2998c63.5303 119.57 95.29 211.12 95.25 274.64c0.0400391 94.1699 -42.4199 141.26 -127.41 141.22c-45.0098 0.00976562 -77.1494 -12.9199 -96.3496 -38.8301l-18.9502 -25.6602c-5.20996 -59.0498 -9.29004 -112.5 -9.08008 -118.77
s17.5303 -11.3896 38.5 -11.3896c20.96 0 38.0303 1.34961 37.9199 3z" />
    <glyph glyph-name="four" unicode="4" horiz-adv-x="339" 
d="M139.59 455.37l-49.1182 -109.62c-29.9697 -66.8496 -54.4697 -136.43 -54.4697 -154.609c0 -18.1904 35.5596 -33.0703 79.0293 -33.0703s79.0293 -35.5703 79.0293 -79.04s16.2305 -79.0293 36.0703 -79.0293c19.8301 0 36.0498 35.5703 36.04 79.04
c0 43.4697 8.32031 79.0293 18.5107 79.0293c10.1797 0 18.5195 13.3701 18.5195 29.71c0 16.3301 -8.33984 29.7002 -18.5195 29.7002c-10.1904 0 -18.5107 59.9404 -18.5107 133.21l0.00976562 93.04c0.00976562 73.2695 -16.2207 133.199 -36.0508 133.199
c-19.8398 -0.00976562 -60.5703 -54.71 -90.54 -121.56zM145.491 217.49c-26.71 0 -26.71 54.4697 0 121.06c26.7197 66.5801 48.5693 66.5801 48.5693 0c0 -66.5898 -21.8496 -121.06 -48.5693 -121.06z" />
    <glyph glyph-name="nine" unicode="9" horiz-adv-x="319" 
d="M167.15 7.09961l33.6006 70.2393c15.9502 33.6504 29.2803 63.96 40.0107 91.0098c10.7002 27 18.9502 51.4805 24.6299 73.4102c11.9902 44.2998 17.9404 92.6602 17.9805 144.95c0 70.7695 -9.58984 121.359 -28.79 151.72
c-19.21 30.3701 -51.1104 45.6006 -95.6504 45.5703c-44.0898 -0.00976562 -75.6396 -15.04 -94.5498 -45.1904c-18.9404 -30.1504 -28.4209 -80.0908 -28.3809 -149.841c-0.0400391 -58.0498 8.07031 -100.85 24.3008 -128.359
c16.1904 -27.5098 41.3506 -41.2998 75.4502 -41.2998c20.4199 0 40.2197 7.73047 59.4297 23.1807c-9.46973 -23.4102 -19.1396 -45.8799 -28.9795 -67.4199l-9.80957 -21.54c-10.9199 -22.79 -32.4004 -66.6602 -47.7207 -97.4902
c-15.3203 -30.8203 -9.18066 -56.04 13.6289 -56.04c22.8203 0 43 3.2002 44.8496 7.10059zM207.521 399.069c-0.0400391 -38.6104 -3.86816 -66.7217 -11.5879 -84.2715c-7.73047 -17.5801 -20.1807 -26.3496 -37.3711 -26.3496
c-17.2402 0 -29.6104 8.84961 -37.1904 26.54c-7.61035 17.6904 -11.4307 46.1807 -11.3906 85.5605c0 74.9902 16.1904 112.471 48.54 112.471c32.6904 0.00976562 49 -37.9902 49 -113.95z" />
    <glyph glyph-name="comma" unicode="," horiz-adv-x="152" 
d="M105.21 106.8c17.0703 -5.04004 14.3604 -54.8203 -5.98926 -110.62c-20.3604 -55.7998 -45.8408 -99.0195 -56.6104 -96.0293c-10.7803 2.98047 -8.08984 52.75 5.99023 110.61c14.0801 57.8496 39.5498 101.069 56.6094 96.0391z" />
    <glyph glyph-name="space" unicode=" " horiz-adv-x="200" 
 />
    <glyph glyph-name="bar" unicode="|" horiz-adv-x="149" 
d="M74.3701 80c21.1104 0 38.3799 40.25 38.3799 89.4404v348.06c0 49.1904 -17.2695 89.4404 -38.3799 89.4404c-21.0996 0 -38.3691 -40.25 -38.3691 -89.4404v-348.06c0 -49.1904 17.2695 -89.4404 38.3691 -89.4404z" />
    </font>
</defs>
</svg>
